<?xml version="1.0" encoding="us-ascii" standalone="no"?><svg xmlns="http://www.w3.org/2000/svg" xmlns:xlink="http://www.w3.org/1999/xlink" contentStyleType="text/css" height="282px" preserveAspectRatio="none" style="width:523px;height:282px;background:#FFFFFF;" version="1.1" viewBox="0 0 523 282" width="523px" zoomAndPan="magnify"><defs/><g><!--entity additionalElements--><g id="elem_additionalElements"><rect fill="#F1F1F1" height="36.2969" rx="2.5" ry="2.5" style="stroke:#181818;stroke-width:0.5;" width="159" x="149" y="7"/><text fill="#000000" font-family="sans-serif" font-size="14" lengthAdjust="spacing" textLength="139" x="159" y="29.9951">additionalElements</text></g><!--entity value--><g id="elem_value"><rect fill="#F1F1F1" height="36.2969" rx="2.5" ry="2.5" style="stroke:#181818;stroke-width:0.5;" width="57" x="7" y="240"/><text fill="#000000" font-family="sans-serif" font-size="14" lengthAdjust="spacing" textLength="37" x="17" y="262.9951">value</text></g><!--entity properties--><g id="elem_properties"><rect fill="#F1F1F1" height="36.2969" rx="2.5" ry="2.5" style="stroke:#181818;stroke-width:0.5;" width="97" x="99" y="240"/><text fill="#000000" font-family="sans-serif" font-size="14" lengthAdjust="spacing" textLength="77" x="109" y="262.9951">properties</text></g><!--entity a2--><g id="elem_a2"><rect fill="#F1F1F1" height="36.2969" rx="2.5" ry="2.5" style="stroke:#181818;stroke-width:0.5;" width="159" x="231" y="240"/><text fill="#000000" font-family="sans-serif" font-size="14" lengthAdjust="spacing" textLength="139" x="241" y="262.9951">additionalElements</text></g><!--entity processes--><g id="elem_processes"><rect fill="#F1F1F1" height="36.2969" rx="2.5" ry="2.5" style="stroke:#181818;stroke-width:0.5;" width="92" x="425.5" y="240"/><text fill="#000000" font-family="sans-serif" font-size="14" lengthAdjust="spacing" textLength="72" x="435.5" y="262.9951">processes</text></g><g id="elem_additionalElement"><rect fill="#F1F1F1" height="77.1875" style="stroke:#181818;stroke-width:0.5;" width="146" x="155.5" y="103"/><text fill="#000000" font-family="sans-serif" font-size="14" lengthAdjust="spacing" textLength="132" x="162.5" y="117.9951">additionalElement</text><line style="stroke:#181818;stroke-width:0.5;" x1="156.5" x2="300.5" y1="123.2969" y2="123.2969"/><text fill="#000000" font-family="sans-serif" font-size="14" lengthAdjust="spacing" textLength="40" x="161.5" y="140.292">name</text><text fill="#000000" font-family="sans-serif" font-size="14" lengthAdjust="spacing" textLength="68" x="161.5" y="156.5889">dataType</text><text fill="#000000" font-family="sans-serif" font-size="14" lengthAdjust="spacing" textLength="50" x="161.5" y="172.8857">format</text></g><!--link additionalElements to additionalElement--><g id="link_additionalElements_additionalElement"><path codeLine="14" d="M228.5,43.203 C228.5,59.074 228.5,74.632 228.5,94.707 " fill="none" id="additionalElements-to-additionalElement" style="stroke:#181818;stroke-width:1.0;"/><line style="stroke:#181818;stroke-width:1.0;" x1="228.5" x2="234.5" y1="94.707" y2="102.707"/><line style="stroke:#181818;stroke-width:1.0;" x1="228.5" x2="222.5" y1="94.707" y2="102.707"/><line style="stroke:#181818;stroke-width:1.0;" x1="228.5" x2="228.5" y1="94.707" y2="102.707"/><line style="stroke:#181818;stroke-width:1.0;" x1="232.5" x2="224.5" y1="92.707" y2="92.707"/></g><!--link additionalElement to value--><g id="link_additionalElement_value"><path codeLine="16" d="M155.26,142 C100.6615,142 35.5,142 35.5,142 C35.5,142 35.5,192.25 35.5,224.875 " fill="none" id="additionalElement-to-value" style="stroke:#181818;stroke-width:1.0;"/><line style="stroke:#181818;stroke-width:1.0;" x1="35.5" x2="35.5" y1="228.875" y2="239.875"/><ellipse cx="35.5" cy="228.875" fill="none" rx="4" ry="4" style="stroke:#181818;stroke-width:1.0;"/><line style="stroke:#181818;stroke-width:1.0;" x1="39.5" x2="31.5" y1="235.875" y2="235.875"/></g><!--link additionalElement to properties--><g id="link_additionalElement_properties"><path codeLine="17" d="M175.75,180.2928 C175.75,200.415 175.75,209.0369 175.75,224.9087 " fill="none" id="additionalElement-to-properties" style="stroke:#181818;stroke-width:1.0;"/><line style="stroke:#181818;stroke-width:1.0;" x1="175.75" x2="175.75" y1="228.9087" y2="239.9087"/><ellipse cx="175.75" cy="228.9087" fill="none" rx="4" ry="4" style="stroke:#181818;stroke-width:1.0;"/><line style="stroke:#181818;stroke-width:1.0;" x1="179.75" x2="171.75" y1="235.9087" y2="235.9087"/></g><!--link additionalElement to a2--><g id="link_additionalElement_a2"><path codeLine="18" d="M266.25,180.2928 C266.25,200.415 266.25,209.0369 266.25,224.9087 " fill="none" id="additionalElement-to-a2" style="stroke:#181818;stroke-width:1.0;"/><line style="stroke:#181818;stroke-width:1.0;" x1="266.25" x2="266.25" y1="228.9087" y2="239.9087"/><ellipse cx="266.25" cy="228.9087" fill="none" rx="4" ry="4" style="stroke:#181818;stroke-width:1.0;"/><line style="stroke:#181818;stroke-width:1.0;" x1="270.25" x2="262.25" y1="235.9087" y2="235.9087"/></g><!--link additionalElement to processes--><g id="link_additionalElement_processes"><path codeLine="19" d="M301.738,142 C373.287,142 471.5,142 471.5,142 C471.5,142 471.5,192.25 471.5,224.875 " fill="none" id="additionalElement-to-processes" style="stroke:#181818;stroke-width:1.0;"/><line style="stroke:#181818;stroke-width:1.0;" x1="471.5" x2="471.5" y1="228.875" y2="239.875"/><ellipse cx="471.5" cy="228.875" fill="none" rx="4" ry="4" style="stroke:#181818;stroke-width:1.0;"/><line style="stroke:#181818;stroke-width:1.0;" x1="475.5" x2="467.5" y1="235.875" y2="235.875"/></g><!--SRC=[FSj13aLG343HhR00EZV_2oaj6kqZVItRvqTYUcvkAsNI94xNPequwW2mIAmvzjDkWBx9UR9l7814fbqDB8HEu7Y1OGrs-6oM9Vq1LZOk__HC4h8NrDzh_P6cDm00]--></g></svg>