<?xml version="1.0" encoding="us-ascii" standalone="no"?><svg xmlns="http://www.w3.org/2000/svg" xmlns:xlink="http://www.w3.org/1999/xlink" contentStyleType="text/css" height="241px" preserveAspectRatio="none" style="width:477px;height:241px;background:#FFFFFF;" version="1.1" viewBox="0 0 477 241" width="477px" zoomAndPan="magnify"><defs/><g><!--entity context--><g id="elem_context"><rect fill="#F1F1F1" height="36.2969" rx="2.5" ry="2.5" style="stroke:#181818;stroke-width:0.5;" width="77" x="93.5" y="7"/><text fill="#000000" font-family="sans-serif" font-size="14" lengthAdjust="spacing" textLength="57" x="103.5" y="29.9951">context</text></g><!--entity content--><g id="elem_content"><rect fill="#F1F1F1" height="36.2969" rx="2.5" ry="2.5" style="stroke:#181818;stroke-width:0.5;" width="78" x="206" y="7"/><text fill="#000000" font-family="sans-serif" font-size="14" lengthAdjust="spacing" textLength="58" x="216" y="29.9951">content</text></g><!--entity a--><g id="elem_a"><rect fill="#F1F1F1" height="36.2969" rx="2.5" ry="2.5" style="stroke:#181818;stroke-width:0.5;" width="152" x="319" y="7"/><text fill="#000000" font-family="sans-serif" font-size="14" lengthAdjust="spacing" textLength="132" x="329" y="29.9951">additionalElement</text></g><!--entity b--><g id="elem_b"><rect fill="#F1F1F1" height="36.2969" rx="2.5" ry="2.5" style="stroke:#181818;stroke-width:0.5;" width="152" x="7" y="199"/><text fill="#000000" font-family="sans-serif" font-size="14" lengthAdjust="spacing" textLength="132" x="17" y="221.9951">additionalElement</text></g><!--entity description--><g id="elem_description"><rect fill="#F1F1F1" height="36.2969" rx="2.5" ry="2.5" style="stroke:#181818;stroke-width:0.5;" width="102" x="194" y="199"/><text fill="#000000" font-family="sans-serif" font-size="14" lengthAdjust="spacing" textLength="82" x="204" y="221.9951">description</text></g><!--entity processes--><g id="elem_processes"><rect fill="#F1F1F1" height="36.2969" rx="2.5" ry="2.5" style="stroke:#181818;stroke-width:0.5;" width="92" x="331" y="199"/><text fill="#000000" font-family="sans-serif" font-size="14" lengthAdjust="spacing" textLength="72" x="341" y="221.9951">processes</text></g><g id="elem_additionalElements"><rect fill="#F1F1F1" height="36.2969" style="stroke:#181818;stroke-width:0.5;" width="153" x="168.5" y="103"/><text fill="#000000" font-family="sans-serif" font-size="14" lengthAdjust="spacing" textLength="139" x="175.5" y="117.9951">additionalElements</text><line style="stroke:#181818;stroke-width:0.5;" x1="169.5" x2="320.5" y1="123.2969" y2="123.2969"/></g><!--link context to additionalElements--><g id="link_context_additionalElements"><path codeLine="12" d="M163.75,43.057 C163.75,70.866 163.75,121 163.75,121 C163.75,121 150.357,121 153.118,121 " fill="none" id="context-to-additionalElements" style="stroke:#181818;stroke-width:1.0;"/><line style="stroke:#181818;stroke-width:1.0;" x1="157.118" x2="168.118" y1="121" y2="121"/><ellipse cx="157.118" cy="121" fill="none" rx="4" ry="4" style="stroke:#181818;stroke-width:1.0;"/><line style="stroke:#181818;stroke-width:1.0;" x1="164.118" x2="164.118" y1="117" y2="125"/></g><!--link content to additionalElements--><g id="link_content_additionalElements"><path codeLine="13" d="M245,43.057 C245,60.112 245,70.563 245,87.698 " fill="none" id="content-to-additionalElements" style="stroke:#181818;stroke-width:1.0;"/><line style="stroke:#181818;stroke-width:1.0;" x1="245" x2="245" y1="91.698" y2="102.698"/><ellipse cx="245" cy="91.698" fill="none" rx="4" ry="4" style="stroke:#181818;stroke-width:1.0;"/><line style="stroke:#181818;stroke-width:1.0;" x1="249" x2="241" y1="98.698" y2="98.698"/></g><!--link a to additionalElements--><g id="link_a_additionalElements"><path codeLine="14" d="M326.25,43.057 C326.25,70.866 326.25,121 326.25,121 C326.25,121 339.643,121 336.882,121 " fill="none" id="a-to-additionalElements" style="stroke:#181818;stroke-width:1.0;"/><line style="stroke:#181818;stroke-width:1.0;" x1="332.882" x2="321.882" y1="121" y2="121"/><ellipse cx="332.882" cy="121" fill="none" rx="4" ry="4" style="stroke:#181818;stroke-width:1.0;"/><line style="stroke:#181818;stroke-width:1.0;" x1="325.882" x2="325.882" y1="125" y2="117"/></g><!--link additionalElements to description--><g id="link_additionalElements_description"><path codeLine="16" d="M245,139.0569 C245,156.1115 245,166.5631 245,183.6977 " fill="none" id="additionalElements-to-description" style="stroke:#181818;stroke-width:1.0;"/><line style="stroke:#181818;stroke-width:1.0;" x1="245" x2="245" y1="187.6977" y2="198.6977"/><ellipse cx="245" cy="187.6977" fill="none" rx="4" ry="4" style="stroke:#181818;stroke-width:1.0;"/><line style="stroke:#181818;stroke-width:1.0;" x1="249" x2="241" y1="194.6977" y2="194.6977"/></g><!--link additionalElements to b--><g id="link_additionalElements_b"><path codeLine="17" d="M181.25,139.0569 C181.25,166.8657 181.25,217 181.25,217 C181.25,217 190.129,217 177.445,217 " fill="none" id="additionalElements-to-b" style="stroke:#181818;stroke-width:1.0;"/><line style="stroke:#181818;stroke-width:1.0;" x1="167.445" x2="159.445" y1="217" y2="223"/><line style="stroke:#181818;stroke-width:1.0;" x1="167.445" x2="159.445" y1="217" y2="211"/><line style="stroke:#181818;stroke-width:1.0;" x1="167.445" x2="159.445" y1="217" y2="217"/><ellipse cx="173.445" cy="217" fill="none" rx="4" ry="4" style="stroke:#181818;stroke-width:1.0;"/></g><!--link additionalElements to processes--><g id="link_additionalElements_processes"><path codeLine="18" d="M308.75,139.0569 C308.75,166.8657 308.75,217 308.75,217 C308.75,217 303.549,217 315.72,217 " fill="none" id="additionalElements-to-processes" style="stroke:#181818;stroke-width:1.0;"/><line style="stroke:#181818;stroke-width:1.0;" x1="319.72" x2="330.72" y1="217" y2="217"/><ellipse cx="319.72" cy="217" fill="none" rx="4" ry="4" style="stroke:#181818;stroke-width:1.0;"/><line style="stroke:#181818;stroke-width:1.0;" x1="326.72" x2="326.72" y1="213" y2="221"/></g><!--SRC=[XOz13i8m30JlVeNLUv_1GzpKAeR4Zk985C7ZAGAXY19ndHrRknIZNPAieWluMJHJeOHHbEirCrgfHmCe72hf4Xc3QUMrVXDjoK3pB5LCAHuYfoqSa1pflp8roimUYkIdrD1SBB0xEu1DfmtZxfF3koIEezsxkVPpwYQmPo-tRVlRkMthUjUVLGy0]--></g></svg>