<?xml version="1.0" encoding="us-ascii" standalone="no"?><svg xmlns="http://www.w3.org/2000/svg" xmlns:xlink="http://www.w3.org/1999/xlink" contentStyleType="text/css" height="170px" preserveAspectRatio="none" style="width:358px;height:170px;background:#FFFFFF;" version="1.1" viewBox="0 0 358 170" width="358px" zoomAndPan="magnify"><defs/><g><g id="cluster_##3"><rect fill="none" height="77" rx="2.5" ry="2.5" style="stroke:#181818;stroke-width:1.0;" width="345" x="7" y="87"/></g><g id="elem_startDate"><rect fill="#F1F1F1" height="44.5938" style="stroke:#181818;stroke-width:0.5;" width="139" x="196.5" y="103"/><text fill="#000000" font-family="sans-serif" font-size="14" lengthAdjust="spacing" textLength="70" x="231" y="117.9951">startDate</text><line style="stroke:#181818;stroke-width:0.5;" x1="197.5" x2="334.5" y1="123.2969" y2="123.2969"/><text fill="#000000" font-family="sans-serif" font-size="14" lengthAdjust="spacing" textLength="127" x="202.5" y="140.292">value = 20000101</text></g><g id="elem_endDate"><rect fill="#F1F1F1" height="44.5938" style="stroke:#181818;stroke-width:0.5;" width="138" x="23" y="103"/><text fill="#000000" font-family="sans-serif" font-size="14" lengthAdjust="spacing" textLength="62" x="61" y="117.9951">endDate</text><line style="stroke:#181818;stroke-width:0.5;" x1="24" x2="160" y1="123.2969" y2="123.2969"/><text fill="#000000" font-family="sans-serif" font-size="14" lengthAdjust="spacing" textLength="126" x="29" y="140.292">value = 20101231</text></g><!--entity period--><g id="elem_period"><rect fill="#F1F1F1" height="36.2969" rx="2.5" ry="2.5" style="stroke:#181818;stroke-width:0.5;" width="67" x="145.5" y="7"/><text fill="#000000" font-family="sans-serif" font-size="14" lengthAdjust="spacing" textLength="47" x="155.5" y="29.9951">period</text></g><!--link period to startDate--><g id="link_period_startDate"><path codeLine="14" d="M204.5,43.433 C204.5,60.207 204.5,77.0149 204.5,94.9615 " fill="none" id="period-to-startDate" style="stroke:#181818;stroke-width:1.0;"/><line style="stroke:#181818;stroke-width:1.0;" x1="208.5" x2="200.5" y1="98.9615" y2="98.9615"/><line style="stroke:#181818;stroke-width:1.0;" x1="208.5" x2="200.5" y1="95.9615" y2="95.9615"/><line style="stroke:#181818;stroke-width:1.0;" x1="204.5" x2="204.5" y1="94.9615" y2="102.9615"/></g><!--link period to endDate--><g id="link_period_endDate"><path codeLine="15" d="M153.25,43.433 C153.25,60.207 153.25,77.0149 153.25,94.9615 " fill="none" id="period-to-endDate" style="stroke:#181818;stroke-width:1.0;"/><line style="stroke:#181818;stroke-width:1.0;" x1="157.25" x2="149.25" y1="98.9615" y2="98.9615"/><line style="stroke:#181818;stroke-width:1.0;" x1="157.25" x2="149.25" y1="95.9615" y2="95.9615"/><line style="stroke:#181818;stroke-width:1.0;" x1="153.25" x2="153.25" y1="94.9615" y2="102.9615"/></g><!--SRC=[LOrB3i8m34JtFeKlKAafEoHsNCHGgnXI9tBDJvIx4q51ONRpPaP3CQRhA3VH0QQJQ2QZ4QCe-pqp9lD30Z3UE-aG6JERfBuc3qYxOt4uEPbloVaBMFktVGByCbpZXUAPSODTMnJQ04llBogyMmM0pnyspJnN1pLTrYy0]--></g></svg>