<?xml version="1.0" encoding="us-ascii" standalone="no"?><svg xmlns="http://www.w3.org/2000/svg" xmlns:xlink="http://www.w3.org/1999/xlink" contentStyleType="text/css" height="246px" preserveAspectRatio="none" style="width:404px;height:246px;background:#FFFFFF;" version="1.1" viewBox="0 0 404 246" width="404px" zoomAndPan="magnify"><defs/><g><!--entity p1--><g id="elem_p1"><rect fill="#F1F1F1" height="37.6094" rx="2.5" ry="2.5" style="stroke:#181818;stroke-width:0.5;" width="65" x="64" y="7"/><text fill="#000000" font-family="sans-serif" font-size="14" lengthAdjust="spacing" textLength="45" x="74" y="31.5332">context</text></g><!--entity p2--><g id="elem_p2"><rect fill="#F1F1F1" height="37.6094" rx="2.5" ry="2.5" style="stroke:#181818;stroke-width:0.5;" width="67" x="164" y="7"/><text fill="#000000" font-family="sans-serif" font-size="14" lengthAdjust="spacing" textLength="47" x="174" y="31.5332">content</text></g><!--entity p3--><g id="elem_p3"><rect fill="#F1F1F1" height="37.6094" rx="2.5" ry="2.5" style="stroke:#181818;stroke-width:0.5;" width="132" x="266.5" y="7"/><text fill="#000000" font-family="sans-serif" font-size="14" lengthAdjust="spacing" textLength="112" x="276.5" y="31.5332">additionalElement</text></g><!--entity c1--><g id="elem_c1"><rect fill="#F1F1F1" height="37.6094" rx="2.5" ry="2.5" style="stroke:#181818;stroke-width:0.5;" width="89" x="7" y="203"/><text fill="#000000" font-family="sans-serif" font-size="14" lengthAdjust="spacing" textLength="69" x="17" y="227.5332">description</text></g><!--entity c2--><g id="elem_c2"><rect fill="#F1F1F1" height="37.6094" rx="2.5" ry="2.5" style="stroke:#181818;stroke-width:0.5;" width="132" x="131.5" y="203"/><text fill="#000000" font-family="sans-serif" font-size="14" lengthAdjust="spacing" textLength="112" x="141.5" y="227.5332">additionalElement</text></g><!--entity c3--><g id="elem_c3"><rect fill="#F1F1F1" height="37.6094" rx="2.5" ry="2.5" style="stroke:#181818;stroke-width:0.5;" width="85" x="299" y="203"/><text fill="#000000" font-family="sans-serif" font-size="14" lengthAdjust="spacing" textLength="65" x="309" y="227.5332">processes</text></g><g id="elem_e"><rect fill="#F1F1F1" height="37.6094" style="stroke:#181818;stroke-width:0.5;" width="133" x="131" y="105"/><text fill="#000000" font-family="sans-serif" font-size="14" lengthAdjust="spacing" textLength="119" x="138" y="121.5332">additionalElements</text><line style="stroke:#181818;stroke-width:0.5;" x1="132" x2="263" y1="126.6094" y2="126.6094"/></g><!--link p1 to e--><g id="link_p1_e"><path codeLine="11" d="M112.5,45.06 C112.5,72.01 112.5,118 112.5,118 C112.5,118 105.19,118 115.94,118 " fill="none" id="p1-to-e" style="stroke:#181818;stroke-width:1.0;"/><line style="stroke:#181818;stroke-width:1.0;" x1="119.94" x2="130.94" y1="118" y2="118"/><ellipse cx="119.94" cy="118" fill="none" rx="4" ry="4" style="stroke:#181818;stroke-width:1.0;"/><line style="stroke:#181818;stroke-width:1.0;" x1="126.94" x2="126.94" y1="114" y2="122"/></g><!--link p2 to e--><g id="link_p2_e"><path codeLine="12" d="M197.5,45.36 C197.5,62.54 197.5,72.51 197.5,89.68 " fill="none" id="p2-to-e" style="stroke:#181818;stroke-width:1.0;"/><line style="stroke:#181818;stroke-width:1.0;" x1="197.5" x2="197.5" y1="93.68" y2="104.68"/><ellipse cx="197.5" cy="93.68" fill="none" rx="4" ry="4" style="stroke:#181818;stroke-width:1.0;"/><line style="stroke:#181818;stroke-width:1.0;" x1="201.5" x2="193.5" y1="100.68" y2="100.68"/></g><!--link p3 to e--><g id="link_p3_e"><path codeLine="13" d="M282.75,45.06 C282.75,72.01 282.75,118 282.75,118 C282.75,118 290.04,118 279.25,118 " fill="none" id="p3-to-e" style="stroke:#181818;stroke-width:1.0;"/><line style="stroke:#181818;stroke-width:1.0;" x1="275.25" x2="264.25" y1="118" y2="118"/><ellipse cx="275.25" cy="118" fill="none" rx="4" ry="4" style="stroke:#181818;stroke-width:1.0;"/><line style="stroke:#181818;stroke-width:1.0;" x1="268.25" x2="268.25" y1="122" y2="114"/></g><!--link e to c1--><g id="link_e_c1"><path codeLine="14" d="M130.85,131 C104.33,131 80,131 80,131 C80,131 80,160.99 80,187.7 " fill="none" id="e-to-c1" style="stroke:#181818;stroke-width:1.0;"/><line style="stroke:#181818;stroke-width:1.0;" x1="80" x2="80" y1="191.7" y2="202.7"/><ellipse cx="80" cy="191.7" fill="none" rx="4" ry="4" style="stroke:#181818;stroke-width:1.0;"/><line style="stroke:#181818;stroke-width:1.0;" x1="84" x2="76" y1="198.7" y2="198.7"/></g><!--link e to c2--><g id="link_e_c2"><path codeLine="15" d="M197.5,143.36 C197.5,160.54 197.5,177.51 197.5,194.68 " fill="none" id="e-to-c2" style="stroke:#181818;stroke-width:1.0;"/><line style="stroke:#181818;stroke-width:1.0;" x1="197.5" x2="203.5" y1="194.68" y2="202.68"/><line style="stroke:#181818;stroke-width:1.0;" x1="197.5" x2="191.5" y1="194.68" y2="202.68"/><line style="stroke:#181818;stroke-width:1.0;" x1="197.5" x2="197.5" y1="194.68" y2="202.68"/><line style="stroke:#181818;stroke-width:1.0;" x1="201.5" x2="193.5" y1="192.68" y2="192.68"/></g><!--link e to c3--><g id="link_e_c3"><path codeLine="16" d="M264.02,131 C301.75,131 341.5,131 341.5,131 C341.5,131 341.5,160.99 341.5,187.7 " fill="none" id="e-to-c3" style="stroke:#181818;stroke-width:1.0;"/><line style="stroke:#181818;stroke-width:1.0;" x1="341.5" x2="341.5" y1="191.7" y2="202.7"/><ellipse cx="341.5" cy="191.7" fill="none" rx="4" ry="4" style="stroke:#181818;stroke-width:1.0;"/><line style="stroke:#181818;stroke-width:1.0;" x1="345.5" x2="337.5" y1="198.7" y2="198.7"/></g><!--SRC=[XOxH3e8m34NVznKBxpp0li4FgLk3rT4ksn8nyl4m9mIZYMydFRUz1U_bFj94FAXq8muGOTIU6FCZe9QOBw9KH9k11u-wiS8PfzneI3fqNuRVfZyQS8uo2OC_UHptZ3bc72ORAPJOozhk_mNxqHAYM4m9KtL6oVcwsX_BDO4gTBfjPIxKxsGsmWhh8uNcPwdRPcO1]--></g></svg>