<?xml version="1.0" encoding="us-ascii" standalone="no"?><svg xmlns="http://www.w3.org/2000/svg" xmlns:xlink="http://www.w3.org/1999/xlink" contentStyleType="text/css" height="246px" preserveAspectRatio="none" style="width:121px;height:246px;background:#FFFFFF;" version="1.1" viewBox="0 0 121 246" width="121px" zoomAndPan="magnify"><defs/><g><!--entity p1--><g id="elem_p1"><rect fill="#F1F1F1" height="37.6094" rx="2.5" ry="2.5" style="stroke:#181818;stroke-width:0.5;" width="94" x="14" y="7"/><text fill="#000000" font-family="sans-serif" font-size="14" lengthAdjust="spacing" textLength="74" x="24" y="31.5332">flatFileType</text></g><!--entity c1--><g id="elem_c1"><rect fill="#F1F1F1" height="37.6094" rx="2.5" ry="2.5" style="stroke:#181818;stroke-width:0.5;" width="107" x="7.5" y="203"/><text fill="#000000" font-family="sans-serif" font-size="14" lengthAdjust="spacing" textLength="87" x="17.5" y="227.5332">charDefinition</text></g><g id="elem_e"><rect fill="#F1F1F1" height="37.6094" style="stroke:#181818;stroke-width:0.5;" width="108" x="7" y="105"/><text fill="#000000" font-family="sans-serif" font-size="14" lengthAdjust="spacing" textLength="94" x="14" y="121.5332">charDefinitions</text><line style="stroke:#181818;stroke-width:0.5;" x1="8" x2="114" y1="126.6094" y2="126.6094"/></g><!--link p1 to e--><g id="link_p1_e"><path codeLine="7" d="M61,45.36 C61,62.54 61,72.51 61,89.68 " fill="none" id="p1-to-e" style="stroke:#181818;stroke-width:1.0;"/><line style="stroke:#181818;stroke-width:1.0;" x1="61" x2="61" y1="93.68" y2="104.68"/><ellipse cx="61" cy="93.68" fill="none" rx="4" ry="4" style="stroke:#181818;stroke-width:1.0;"/><line style="stroke:#181818;stroke-width:1.0;" x1="65" x2="57" y1="100.68" y2="100.68"/></g><!--link e to c1--><g id="link_e_c1"><path codeLine="8" d="M61,143.36 C61,160.54 61,177.51 61,194.68 " fill="none" id="e-to-c1" style="stroke:#181818;stroke-width:1.0;"/><line style="stroke:#181818;stroke-width:1.0;" x1="61" x2="67" y1="194.68" y2="202.68"/><line style="stroke:#181818;stroke-width:1.0;" x1="61" x2="55" y1="194.68" y2="202.68"/><line style="stroke:#181818;stroke-width:1.0;" x1="61" x2="61" y1="194.68" y2="202.68"/><line style="stroke:#181818;stroke-width:1.0;" x1="65" x2="57" y1="192.68" y2="192.68"/></g><!--SRC=[NSin2iCm38NXNQSGsJFu3gKdw0KKeoHg5SdOWhGqXu_9LBhzyBr7ghvlyXPReBt42bNQKCKuFeNHQwmEK3a7sQACmwmKTr5-T1wG6fRqotcbUkDPJ4BSha5EuDEpJ_wrNSnG4ewZ7xsun_7jZnC0]--></g></svg>