<?xml version="1.0" encoding="us-ascii" standalone="no"?><svg xmlns="http://www.w3.org/2000/svg" xmlns:xlink="http://www.w3.org/1999/xlink" contentStyleType="text/css" height="246px" preserveAspectRatio="none" style="width:118px;height:246px;background:#FFFFFF;" version="1.1" viewBox="0 0 118 246" width="118px" zoomAndPan="magnify"><defs/><g><!--entity p1--><g id="elem_p1"><rect fill="#F1F1F1" height="37.6094" rx="2.5" ry="2.5" style="stroke:#181818;stroke-width:0.5;" width="105" x="7" y="7"/><text fill="#000000" font-family="sans-serif" font-size="14" lengthAdjust="spacing" textLength="85" x="17" y="31.5332">fieldDefinition</text></g><!--entity c1--><g id="elem_c1"><rect fill="#F1F1F1" height="37.6094" rx="2.5" ry="2.5" style="stroke:#181818;stroke-width:0.5;" width="51" x="34" y="203"/><text fill="#000000" font-family="sans-serif" font-size="14" lengthAdjust="spacing" textLength="31" x="44" y="227.5332">code</text></g><g id="elem_e"><rect fill="#F1F1F1" height="37.6094" style="stroke:#181818;stroke-width:0.5;" width="52" x="33.5" y="105"/><text fill="#000000" font-family="sans-serif" font-size="14" lengthAdjust="spacing" textLength="38" x="40.5" y="121.5332">codes</text><line style="stroke:#181818;stroke-width:0.5;" x1="34.5" x2="84.5" y1="126.6094" y2="126.6094"/></g><!--link p1 to e--><g id="link_p1_e"><path codeLine="7" d="M59.5,45.36 C59.5,62.54 59.5,72.51 59.5,89.68 " fill="none" id="p1-to-e" style="stroke:#181818;stroke-width:1.0;"/><line style="stroke:#181818;stroke-width:1.0;" x1="59.5" x2="59.5" y1="93.68" y2="104.68"/><ellipse cx="59.5" cy="93.68" fill="none" rx="4" ry="4" style="stroke:#181818;stroke-width:1.0;"/><line style="stroke:#181818;stroke-width:1.0;" x1="63.5" x2="55.5" y1="100.68" y2="100.68"/></g><!--link e to c1--><g id="link_e_c1"><path codeLine="8" d="M59.5,143.36 C59.5,160.54 59.5,177.51 59.5,194.68 " fill="none" id="e-to-c1" style="stroke:#181818;stroke-width:1.0;"/><line style="stroke:#181818;stroke-width:1.0;" x1="59.5" x2="65.5" y1="194.68" y2="202.68"/><line style="stroke:#181818;stroke-width:1.0;" x1="59.5" x2="53.5" y1="194.68" y2="202.68"/><line style="stroke:#181818;stroke-width:1.0;" x1="59.5" x2="59.5" y1="194.68" y2="202.68"/><line style="stroke:#181818;stroke-width:1.0;" x1="63.5" x2="55.5" y1="192.68" y2="192.68"/></g><!--SRC=[JOf13i8m30JlVeNLUm_v0nynwROON3jA8W6YZoSg5swZcH6pUExwKj-eFTIBLDdPrD7V1HortuAe8dVnpS3Jgh3bWbLTkuPFB8rB-ZzoB3XrJXJN-mW_rqu9AeddEOv1671ynlS5]--></g></svg>