<?xml version="1.0" encoding="us-ascii" standalone="no"?><svg xmlns="http://www.w3.org/2000/svg" xmlns:xlink="http://www.w3.org/1999/xlink" contentStyleType="text/css" height="246px" preserveAspectRatio="none" style="width:396px;height:246px;background:#FFFFFF;" version="1.1" viewBox="0 0 396 246" width="396px" zoomAndPan="magnify"><defs/><g><!--entity p1--><g id="elem_p1"><rect fill="#F1F1F1" height="37.6094" rx="2.5" ry="2.5" style="stroke:#181818;stroke-width:0.5;" width="81" x="160" y="7"/><text fill="#000000" font-family="sans-serif" font-size="14" lengthAdjust="spacing" textLength="61" x="170" y="31.5332">reference</text></g><!--entity c1--><g id="elem_c1"><rect fill="#F1F1F1" height="37.6094" rx="2.5" ry="2.5" style="stroke:#181818;stroke-width:0.5;" width="89" x="7" y="203"/><text fill="#000000" font-family="sans-serif" font-size="14" lengthAdjust="spacing" textLength="69" x="17" y="227.5332">description</text></g><!--entity c2--><g id="elem_c2"><rect fill="#F1F1F1" height="37.6094" rx="2.5" ry="2.5" style="stroke:#181818;stroke-width:0.5;" width="139" x="131" y="203"/><text fill="#000000" font-family="sans-serif" font-size="14" lengthAdjust="spacing" textLength="119" x="141" y="227.5332">additionalElements</text></g><!--entity c3--><g id="elem_c3"><rect fill="#F1F1F1" height="37.6094" rx="2.5" ry="2.5" style="stroke:#181818;stroke-width:0.5;" width="85" x="305" y="203"/><text fill="#000000" font-family="sans-serif" font-size="14" lengthAdjust="spacing" textLength="65" x="315" y="227.5332">processes</text></g><g id="elem_e"><rect fill="#F1F1F1" height="37.6094" style="stroke:#181818;stroke-width:0.5;" width="59" x="171" y="105"/><text fill="#000000" font-family="sans-serif" font-size="14" lengthAdjust="spacing" textLength="45" x="178" y="121.5332">context</text><line style="stroke:#181818;stroke-width:0.5;" x1="172" x2="229" y1="126.6094" y2="126.6094"/></g><!--link p1 to e--><g id="link_p1_e"><path codeLine="9" d="M200.5,45.36 C200.5,62.54 200.5,72.51 200.5,89.68 " fill="none" id="p1-to-e" style="stroke:#181818;stroke-width:1.0;"/><line style="stroke:#181818;stroke-width:1.0;" x1="200.5" x2="200.5" y1="93.68" y2="104.68"/><ellipse cx="200.5" cy="93.68" fill="none" rx="4" ry="4" style="stroke:#181818;stroke-width:1.0;"/><line style="stroke:#181818;stroke-width:1.0;" x1="204.5" x2="196.5" y1="100.68" y2="100.68"/></g><!--link e to c1--><g id="link_e_c1"><path codeLine="10" d="M170.71,124 C127.22,124 51.5,124 51.5,124 C51.5,124 51.5,159.08 51.5,187.64 " fill="none" id="e-to-c1" style="stroke:#181818;stroke-width:1.0;"/><line style="stroke:#181818;stroke-width:1.0;" x1="51.5" x2="51.5" y1="191.64" y2="202.64"/><ellipse cx="51.5" cy="191.64" fill="none" rx="4" ry="4" style="stroke:#181818;stroke-width:1.0;"/><line style="stroke:#181818;stroke-width:1.0;" x1="55.5" x2="47.5" y1="198.64" y2="198.64"/></g><!--link e to c2--><g id="link_e_c2"><path codeLine="11" d="M200.5,143.36 C200.5,160.54 200.5,170.51 200.5,187.68 " fill="none" id="e-to-c2" style="stroke:#181818;stroke-width:1.0;"/><line style="stroke:#181818;stroke-width:1.0;" x1="200.5" x2="200.5" y1="191.68" y2="202.68"/><ellipse cx="200.5" cy="191.68" fill="none" rx="4" ry="4" style="stroke:#181818;stroke-width:1.0;"/><line style="stroke:#181818;stroke-width:1.0;" x1="204.5" x2="196.5" y1="198.68" y2="198.68"/></g><!--link e to c3--><g id="link_e_c3"><path codeLine="12" d="M230.25,124 C273.2,124 347.5,124 347.5,124 C347.5,124 347.5,159.08 347.5,187.64 " fill="none" id="e-to-c3" style="stroke:#181818;stroke-width:1.0;"/><line style="stroke:#181818;stroke-width:1.0;" x1="347.5" x2="347.5" y1="191.64" y2="202.64"/><ellipse cx="347.5" cy="191.64" fill="none" rx="4" ry="4" style="stroke:#181818;stroke-width:1.0;"/><line style="stroke:#181818;stroke-width:1.0;" x1="351.5" x2="343.5" y1="198.64" y2="198.64"/></g><!--SRC=[LSr13e9038NX_PoYOSy2E8C7gSDJgqCxcMaY9XvU13Mu-zFl9UMKx3x9B7eEzIQQkV14IHJ-o20hVh4G2gApdXEeAJYXG2CQuagvszk86eja5zDLuv_oECgRE1qI9gZNRTJlHxbOHAtus13iU5sKccZgc7qz8-IEsjQUIs6BvTMt-byDBm00]--></g></svg>