<?xml version="1.0" encoding="us-ascii" standalone="no"?><svg xmlns="http://www.w3.org/2000/svg" xmlns:xlink="http://www.w3.org/1999/xlink" contentStyleType="text/css" height="255px" preserveAspectRatio="none" style="width:453px;height:255px;background:#FFFFFF;" version="1.1" viewBox="0 0 453 255" width="453px" zoomAndPan="magnify"><defs/><g><!--entity p1--><g id="elem_p1"><rect fill="#F1F1F1" height="37.6094" rx="2.5" ry="2.5" style="stroke:#181818;stroke-width:0.5;" width="58" x="197.5" y="7"/><text fill="#000000" font-family="sans-serif" font-size="14" lengthAdjust="spacing" textLength="38" x="207.5" y="31.5332">addml</text></g><!--entity c1--><g id="elem_c1"><rect fill="#F1F1F1" height="37.6094" rx="2.5" ry="2.5" style="stroke:#181818;stroke-width:0.5;" width="89" x="7" y="212"/><text fill="#000000" font-family="sans-serif" font-size="14" lengthAdjust="spacing" textLength="69" x="17" y="236.5332">description</text></g><!--entity c2--><g id="elem_c2"><rect fill="#F1F1F1" height="37.6094" rx="2.5" ry="2.5" style="stroke:#181818;stroke-width:0.5;" width="81" x="131" y="212"/><text fill="#000000" font-family="sans-serif" font-size="14" lengthAdjust="spacing" textLength="61" x="141" y="236.5332">reference</text></g><!--entity c3--><g id="elem_c3"><rect fill="#F1F1F1" height="37.6094" rx="2.5" ry="2.5" style="stroke:#181818;stroke-width:0.5;" width="69" x="247" y="212"/><text fill="#000000" font-family="sans-serif" font-size="14" lengthAdjust="spacing" textLength="49" x="257" y="236.5332">flatFiles</text></g><!--entity c4--><g id="elem_c4"><rect fill="#F1F1F1" height="37.6094" rx="2.5" ry="2.5" style="stroke:#181818;stroke-width:0.5;" width="96" x="351.5" y="212"/><text fill="#000000" font-family="sans-serif" font-size="14" lengthAdjust="spacing" textLength="76" x="361.5" y="236.5332">dataObjects</text></g><g id="elem_e"><rect fill="#F1F1F1" height="47.2188" style="stroke:#181818;stroke-width:0.5;" width="61" x="196" y="105"/><text fill="#000000" font-family="sans-serif" font-size="14" lengthAdjust="spacing" textLength="47" x="203" y="121.5332">dataset</text><line style="stroke:#181818;stroke-width:0.5;" x1="197" x2="256" y1="126.6094" y2="126.6094"/><text fill="#000000" font-family="sans-serif" font-size="14" lengthAdjust="spacing" textLength="35" x="202" y="145.1426">name</text></g><!--link p1 to e--><g id="link_p1_e"><path codeLine="11" d="M226.5,45.28 C226.5,62.21 226.5,78.9 226.5,96.99 " fill="none" id="p1-to-e" style="stroke:#181818;stroke-width:1.0;"/><line style="stroke:#181818;stroke-width:1.0;" x1="226.5" x2="232.5" y1="96.99" y2="104.99"/><line style="stroke:#181818;stroke-width:1.0;" x1="226.5" x2="220.5" y1="96.99" y2="104.99"/><line style="stroke:#181818;stroke-width:1.0;" x1="226.5" x2="226.5" y1="96.99" y2="104.99"/><line style="stroke:#181818;stroke-width:1.0;" x1="230.5" x2="222.5" y1="94.99" y2="94.99"/></g><!--link e to c1--><g id="link_e_c1"><path codeLine="12" d="M195.62,129 C145.38,129 51.5,129 51.5,129 C51.5,129 51.5,167.27 51.5,196.81 " fill="none" id="e-to-c1" style="stroke:#181818;stroke-width:1.0;"/><line style="stroke:#181818;stroke-width:1.0;" x1="51.5" x2="51.5" y1="200.81" y2="211.81"/><ellipse cx="51.5" cy="200.81" fill="none" rx="4" ry="4" style="stroke:#181818;stroke-width:1.0;"/><line style="stroke:#181818;stroke-width:1.0;" x1="55.5" x2="47.5" y1="207.81" y2="207.81"/></g><!--link e to c2--><g id="link_e_c2"><path codeLine="13" d="M204,152.02 C204,170.1 204,179.78 204,196.71 " fill="none" id="e-to-c2" style="stroke:#181818;stroke-width:1.0;"/><line style="stroke:#181818;stroke-width:1.0;" x1="204" x2="204" y1="200.71" y2="211.71"/><ellipse cx="204" cy="200.71" fill="none" rx="4" ry="4" style="stroke:#181818;stroke-width:1.0;"/><line style="stroke:#181818;stroke-width:1.0;" x1="208" x2="200" y1="207.71" y2="207.71"/></g><!--link e to c3--><g id="link_e_c3"><path codeLine="14" d="M252,152.02 C252,170.1 252,179.78 252,196.71 " fill="none" id="e-to-c3" style="stroke:#181818;stroke-width:1.0;"/><line style="stroke:#181818;stroke-width:1.0;" x1="252" x2="252" y1="200.71" y2="211.71"/><ellipse cx="252" cy="200.71" fill="none" rx="4" ry="4" style="stroke:#181818;stroke-width:1.0;"/><line style="stroke:#181818;stroke-width:1.0;" x1="256" x2="248" y1="207.71" y2="207.71"/></g><!--link e to c4--><g id="link_e_c4"><path codeLine="15" d="M257.03,129 C306.7,129 399.5,129 399.5,129 C399.5,129 399.5,167.27 399.5,196.81 " fill="none" id="e-to-c4" style="stroke:#181818;stroke-width:1.0;"/><line style="stroke:#181818;stroke-width:1.0;" x1="399.5" x2="399.5" y1="200.81" y2="211.81"/><ellipse cx="399.5" cy="200.81" fill="none" rx="4" ry="4" style="stroke:#181818;stroke-width:1.0;"/><line style="stroke:#181818;stroke-width:1.0;" x1="403.5" x2="395.5" y1="207.81" y2="207.81"/></g><!--SRC=[LSvD3i8W48RXFQUOTC-YFoiFuDOpZ7HQHs4WGAB67bu5RThTn_ia4z1QVtVyO9bLkh44ZEZ0ib1-1W8VyyKh5SbabDaID3YEpZQ02KAxxICb4pbazbBKx3JIH974KBLkQvF5V6HBgLg_kuePJ-Vh9_nqKBuyAoNA9PCYE82W8nLQq7fvbQIrNxuV-QzkNVswXZS0]--></g></svg>