<?xml version="1.0" encoding="us-ascii" standalone="no"?><svg xmlns="http://www.w3.org/2000/svg" xmlns:xlink="http://www.w3.org/1999/xlink" contentStyleType="text/css" height="255px" preserveAspectRatio="none" style="width:473px;height:255px;background:#FFFFFF;" version="1.1" viewBox="0 0 473 255" width="473px" zoomAndPan="magnify"><defs/><g><!--entity p1--><g id="elem_p1"><rect fill="#F1F1F1" height="37.6094" rx="2.5" ry="2.5" style="stroke:#181818;stroke-width:0.5;" width="96" x="187.5" y="7"/><text fill="#000000" font-family="sans-serif" font-size="14" lengthAdjust="spacing" textLength="76" x="197.5" y="31.5332">dataObjects</text></g><!--entity c1--><g id="elem_c1"><rect fill="#F1F1F1" height="37.6094" rx="2.5" ry="2.5" style="stroke:#181818;stroke-width:0.5;" width="89" x="7" y="212"/><text fill="#000000" font-family="sans-serif" font-size="14" lengthAdjust="spacing" textLength="69" x="17" y="236.5332">description</text></g><!--entity c2--><g id="elem_c2"><rect fill="#F1F1F1" height="37.6094" rx="2.5" ry="2.5" style="stroke:#181818;stroke-width:0.5;" width="84" x="131.5" y="212"/><text fill="#000000" font-family="sans-serif" font-size="14" lengthAdjust="spacing" textLength="64" x="141.5" y="236.5332">properties</text></g><!--entity c3--><g id="elem_c3"><rect fill="#F1F1F1" height="37.6094" rx="2.5" ry="2.5" style="stroke:#181818;stroke-width:0.5;" width="96" x="250.5" y="212"/><text fill="#000000" font-family="sans-serif" font-size="14" lengthAdjust="spacing" textLength="76" x="260.5" y="236.5332">dataObjects</text></g><!--entity c4--><g id="elem_c4"><rect fill="#F1F1F1" height="37.6094" rx="2.5" ry="2.5" style="stroke:#181818;stroke-width:0.5;" width="85" x="382" y="212"/><text fill="#000000" font-family="sans-serif" font-size="14" lengthAdjust="spacing" textLength="65" x="392" y="236.5332">processes</text></g><g id="elem_e"><rect fill="#F1F1F1" height="47.2188" style="stroke:#181818;stroke-width:0.5;" width="83" x="194" y="105"/><text fill="#000000" font-family="sans-serif" font-size="14" lengthAdjust="spacing" textLength="69" x="201" y="121.5332">dataObject</text><line style="stroke:#181818;stroke-width:0.5;" x1="195" x2="276" y1="126.6094" y2="126.6094"/><text fill="#000000" font-family="sans-serif" font-size="14" lengthAdjust="spacing" textLength="35" x="200" y="145.1426">name</text></g><!--link p1 to e--><g id="link_p1_e"><path codeLine="11" d="M235.5,45.28 C235.5,62.21 235.5,78.9 235.5,96.99 " fill="none" id="p1-to-e" style="stroke:#181818;stroke-width:1.0;"/><line style="stroke:#181818;stroke-width:1.0;" x1="235.5" x2="241.5" y1="96.99" y2="104.99"/><line style="stroke:#181818;stroke-width:1.0;" x1="235.5" x2="229.5" y1="96.99" y2="104.99"/><line style="stroke:#181818;stroke-width:1.0;" x1="235.5" x2="235.5" y1="96.99" y2="104.99"/><line style="stroke:#181818;stroke-width:1.0;" x1="239.5" x2="231.5" y1="94.99" y2="94.99"/></g><!--link e to c1--><g id="link_e_c1"><path codeLine="12" d="M193.75,129 C139.46,129 51.5,129 51.5,129 C51.5,129 51.5,167.27 51.5,196.81 " fill="none" id="e-to-c1" style="stroke:#181818;stroke-width:1.0;"/><line style="stroke:#181818;stroke-width:1.0;" x1="51.5" x2="51.5" y1="200.81" y2="211.81"/><ellipse cx="51.5" cy="200.81" fill="none" rx="4" ry="4" style="stroke:#181818;stroke-width:1.0;"/><line style="stroke:#181818;stroke-width:1.0;" x1="55.5" x2="47.5" y1="207.81" y2="207.81"/></g><!--link e to c2--><g id="link_e_c2"><path codeLine="13" d="M204.75,152.02 C204.75,170.1 204.75,179.78 204.75,196.71 " fill="none" id="e-to-c2" style="stroke:#181818;stroke-width:1.0;"/><line style="stroke:#181818;stroke-width:1.0;" x1="204.75" x2="204.75" y1="200.71" y2="211.71"/><ellipse cx="204.75" cy="200.71" fill="none" rx="4" ry="4" style="stroke:#181818;stroke-width:1.0;"/><line style="stroke:#181818;stroke-width:1.0;" x1="208.75" x2="200.75" y1="207.71" y2="207.71"/></g><!--link e to c3--><g id="link_e_c3"><path codeLine="14" d="M263.75,152.02 C263.75,170.1 263.75,179.78 263.75,196.71 " fill="none" id="e-to-c3" style="stroke:#181818;stroke-width:1.0;"/><line style="stroke:#181818;stroke-width:1.0;" x1="263.75" x2="263.75" y1="200.71" y2="211.71"/><ellipse cx="263.75" cy="200.71" fill="none" rx="4" ry="4" style="stroke:#181818;stroke-width:1.0;"/><line style="stroke:#181818;stroke-width:1.0;" x1="267.75" x2="259.75" y1="207.71" y2="207.71"/></g><!--link e to c4--><g id="link_e_c4"><path codeLine="15" d="M277.45,129 C333.13,129 424.5,129 424.5,129 C424.5,129 424.5,167.27 424.5,196.81 " fill="none" id="e-to-c4" style="stroke:#181818;stroke-width:1.0;"/><line style="stroke:#181818;stroke-width:1.0;" x1="424.5" x2="424.5" y1="200.81" y2="211.81"/><ellipse cx="424.5" cy="200.81" fill="none" rx="4" ry="4" style="stroke:#181818;stroke-width:1.0;"/><line style="stroke:#181818;stroke-width:1.0;" x1="428.5" x2="420.5" y1="207.81" y2="207.81"/></g><!--SRC=[VOvB3i8m34JtEONLVHRzhBW4Pp31AeOqjX9BWEZXWQ1Mb0MxqRnvbZ56kKvyupIwSk6ac762o8dihWIIxIJEPGg6QOm4pH4DzuVpgoWDO05jDvHAoAp6aYeD6wfPbB8nVTJG_JiS-XyrK2cBEJYfqs-j4d84EqWuaTCMl9yVjV9UvlSpI-hMrAzfU080]--></g></svg>