<?xml version="1.0" encoding="us-ascii" standalone="no"?><svg xmlns="http://www.w3.org/2000/svg" xmlns:xlink="http://www.w3.org/1999/xlink" contentStyleType="text/css" height="246px" preserveAspectRatio="none" style="width:346px;height:246px;background:#FFFFFF;" version="1.1" viewBox="0 0 346 246" width="346px" zoomAndPan="magnify"><defs/><g><!--entity p1--><g id="elem_p1"><rect fill="#F1F1F1" height="37.6094" rx="2.5" ry="2.5" style="stroke:#181818;stroke-width:0.5;" width="67" x="86" y="7"/><text fill="#000000" font-family="sans-serif" font-size="14" lengthAdjust="spacing" textLength="47" x="96" y="31.5332">dataset</text></g><!--entity p2--><g id="elem_p2"><rect fill="#F1F1F1" height="37.6094" rx="2.5" ry="2.5" style="stroke:#181818;stroke-width:0.5;" width="89" x="188" y="7"/><text fill="#000000" font-family="sans-serif" font-size="14" lengthAdjust="spacing" textLength="69" x="198" y="31.5332">dataObject</text></g><!--entity c1--><g id="elem_c1"><rect fill="#F1F1F1" height="37.6094" rx="2.5" ry="2.5" style="stroke:#181818;stroke-width:0.5;" width="89" x="7" y="203"/><text fill="#000000" font-family="sans-serif" font-size="14" lengthAdjust="spacing" textLength="69" x="17" y="227.5332">description</text></g><!--entity c2--><g id="elem_c2"><rect fill="#F1F1F1" height="37.6094" rx="2.5" ry="2.5" style="stroke:#181818;stroke-width:0.5;" width="89" x="131" y="203"/><text fill="#000000" font-family="sans-serif" font-size="14" lengthAdjust="spacing" textLength="69" x="141" y="227.5332">dataObject</text></g><!--entity c3--><g id="elem_c3"><rect fill="#F1F1F1" height="37.6094" rx="2.5" ry="2.5" style="stroke:#181818;stroke-width:0.5;" width="85" x="255" y="203"/><text fill="#000000" font-family="sans-serif" font-size="14" lengthAdjust="spacing" textLength="65" x="265" y="227.5332">processes</text></g><g id="elem_e"><rect fill="#F1F1F1" height="37.6094" style="stroke:#181818;stroke-width:0.5;" width="90" x="130.5" y="105"/><text fill="#000000" font-family="sans-serif" font-size="14" lengthAdjust="spacing" textLength="76" x="137.5" y="121.5332">dataObjects</text><line style="stroke:#181818;stroke-width:0.5;" x1="131.5" x2="219.5" y1="126.6094" y2="126.6094"/></g><!--link p1 to e--><g id="link_p1_e"><path codeLine="10" d="M141.75,45.36 C141.75,62.54 141.75,72.51 141.75,89.68 " fill="none" id="p1-to-e" style="stroke:#181818;stroke-width:1.0;"/><line style="stroke:#181818;stroke-width:1.0;" x1="141.75" x2="141.75" y1="93.68" y2="104.68"/><ellipse cx="141.75" cy="93.68" fill="none" rx="4" ry="4" style="stroke:#181818;stroke-width:1.0;"/><line style="stroke:#181818;stroke-width:1.0;" x1="145.75" x2="137.75" y1="100.68" y2="100.68"/></g><!--link p2 to e--><g id="link_p2_e"><path codeLine="11" d="M204.25,45.36 C204.25,62.54 204.25,72.51 204.25,89.68 " fill="none" id="p2-to-e" style="stroke:#181818;stroke-width:1.0;"/><line style="stroke:#181818;stroke-width:1.0;" x1="204.25" x2="204.25" y1="93.68" y2="104.68"/><ellipse cx="204.25" cy="93.68" fill="none" rx="4" ry="4" style="stroke:#181818;stroke-width:1.0;"/><line style="stroke:#181818;stroke-width:1.0;" x1="208.25" x2="200.25" y1="100.68" y2="100.68"/></g><!--link e to c1--><g id="link_e_c1"><path codeLine="12" d="M130.28,124 C110.19,124 91,124 91,124 C91,124 91,159.08 91,187.64 " fill="none" id="e-to-c1" style="stroke:#181818;stroke-width:1.0;"/><line style="stroke:#181818;stroke-width:1.0;" x1="91" x2="91" y1="191.64" y2="202.64"/><ellipse cx="91" cy="191.64" fill="none" rx="4" ry="4" style="stroke:#181818;stroke-width:1.0;"/><line style="stroke:#181818;stroke-width:1.0;" x1="95" x2="87" y1="198.64" y2="198.64"/></g><!--link e to c2--><g id="link_e_c2"><path codeLine="13" d="M175.5,143.36 C175.5,160.54 175.5,177.51 175.5,194.68 " fill="none" id="e-to-c2" style="stroke:#181818;stroke-width:1.0;"/><line style="stroke:#181818;stroke-width:1.0;" x1="175.5" x2="181.5" y1="194.68" y2="202.68"/><line style="stroke:#181818;stroke-width:1.0;" x1="175.5" x2="169.5" y1="194.68" y2="202.68"/><line style="stroke:#181818;stroke-width:1.0;" x1="175.5" x2="175.5" y1="194.68" y2="202.68"/><line style="stroke:#181818;stroke-width:1.0;" x1="179.5" x2="171.5" y1="192.68" y2="192.68"/></g><!--link e to c3--><g id="link_e_c3"><path codeLine="14" d="M220.75,124 C243.38,124 266,124 266,124 C266,124 266,159.08 266,187.64 " fill="none" id="e-to-c3" style="stroke:#181818;stroke-width:1.0;"/><line style="stroke:#181818;stroke-width:1.0;" x1="266" x2="266" y1="191.64" y2="202.64"/><ellipse cx="266" cy="191.64" fill="none" rx="4" ry="4" style="stroke:#181818;stroke-width:1.0;"/><line style="stroke:#181818;stroke-width:1.0;" x1="270" x2="262" y1="198.64" y2="198.64"/></g><!--SRC=[VOr13e9034NtSug6FGlW89wXZWrMXsapRQ963Yym8H4Nxbx- -x_5bEGnyPFp6EpEMR7W18ap-Ki9fFXLGYWK7VEO29eBEXfv0sYWtQyvdMzBK6L_a6Ini3fBtcpyDus7gHQ9P4PMtH1aQtwlggAW7RIjp2lrEr65vU5AytkzlcV31m00]--></g></svg>