<?xml version="1.0" encoding="us-ascii" standalone="no"?><svg xmlns="http://www.w3.org/2000/svg" xmlns:xlink="http://www.w3.org/1999/xlink" contentStyleType="text/css" height="246px" preserveAspectRatio="none" style="width:451px;height:246px;background:#FFFFFF;" version="1.1" viewBox="0 0 451 246" width="451px" zoomAndPan="magnify"><defs/><g><!--entity p1--><g id="elem_p1"><rect fill="#F1F1F1" height="37.6094" rx="2.5" ry="2.5" style="stroke:#181818;stroke-width:0.5;" width="94" x="192" y="7"/><text fill="#000000" font-family="sans-serif" font-size="14" lengthAdjust="spacing" textLength="74" x="202" y="31.5332">flatFileType</text></g><!--entity c1--><g id="elem_c1"><rect fill="#F1F1F1" height="37.6094" rx="2.5" ry="2.5" style="stroke:#181818;stroke-width:0.5;" width="124" x="7" y="203"/><text fill="#000000" font-family="sans-serif" font-size="14" lengthAdjust="spacing" textLength="104" x="17" y="227.5332">recordSeparator</text></g><!--entity c2--><g id="elem_c2"><rect fill="#F1F1F1" height="37.6094" rx="2.5" ry="2.5" style="stroke:#181818;stroke-width:0.5;" width="146" x="166" y="203"/><text fill="#000000" font-family="sans-serif" font-size="14" lengthAdjust="spacing" textLength="126" x="176" y="227.5332">fieldSeparatingChar</text></g><!--entity c3--><g id="elem_c3"><rect fill="#F1F1F1" height="37.6094" rx="2.5" ry="2.5" style="stroke:#181818;stroke-width:0.5;" width="98" x="347" y="203"/><text fill="#000000" font-family="sans-serif" font-size="14" lengthAdjust="spacing" textLength="78" x="357" y="227.5332">quotingChar</text></g><g id="elem_e"><rect fill="#F1F1F1" height="37.6094" style="stroke:#181818;stroke-width:0.5;" width="115" x="181.5" y="105"/><text fill="#000000" font-family="sans-serif" font-size="14" lengthAdjust="spacing" textLength="101" x="188.5" y="121.5332">delimFileFormat</text><line style="stroke:#181818;stroke-width:0.5;" x1="182.5" x2="295.5" y1="126.6094" y2="126.6094"/></g><!--link p1 to e--><g id="link_p1_e"><path codeLine="9" d="M239,45.36 C239,62.54 239,79.51 239,96.68 " fill="none" id="p1-to-e" style="stroke:#181818;stroke-width:1.0;"/><line style="stroke:#181818;stroke-width:1.0;" x1="243" x2="235" y1="100.68" y2="100.68"/><line style="stroke:#181818;stroke-width:1.0;" x1="243" x2="235" y1="97.68" y2="97.68"/><line style="stroke:#181818;stroke-width:1.0;" x1="239" x2="239" y1="96.68" y2="104.68"/></g><!--link e to c1--><g id="link_e_c1"><path codeLine="10" d="M181.45,124 C132.13,124 69,124 69,124 C69,124 69,166.08 69,194.64 " fill="none" id="e-to-c1" style="stroke:#181818;stroke-width:1.0;"/><line style="stroke:#181818;stroke-width:1.0;" x1="73" x2="65" y1="198.64" y2="198.64"/><line style="stroke:#181818;stroke-width:1.0;" x1="73" x2="65" y1="195.64" y2="195.64"/><line style="stroke:#181818;stroke-width:1.0;" x1="69" x2="69" y1="194.64" y2="202.64"/></g><!--link e to c2--><g id="link_e_c2"><path codeLine="11" d="M239,143.36 C239,160.54 239,177.51 239,194.68 " fill="none" id="e-to-c2" style="stroke:#181818;stroke-width:1.0;"/><line style="stroke:#181818;stroke-width:1.0;" x1="243" x2="235" y1="198.68" y2="198.68"/><line style="stroke:#181818;stroke-width:1.0;" x1="243" x2="235" y1="195.68" y2="195.68"/><line style="stroke:#181818;stroke-width:1.0;" x1="239" x2="239" y1="194.68" y2="202.68"/></g><!--link e to c3--><g id="link_e_c3"><path codeLine="12" d="M296.57,124 C341.38,124 396,124 396,124 C396,124 396,159.08 396,187.64 " fill="none" id="e-to-c3" style="stroke:#181818;stroke-width:1.0;"/><line style="stroke:#181818;stroke-width:1.0;" x1="396" x2="396" y1="191.64" y2="202.64"/><ellipse cx="396" cy="191.64" fill="none" rx="4" ry="4" style="stroke:#181818;stroke-width:1.0;"/><line style="stroke:#181818;stroke-width:1.0;" x1="400" x2="392" y1="198.64" y2="198.64"/></g><!--SRC=[LOv13e9034NtSug6FGlW22PSG2zGeK2rCns7CMh2uHr6IM3talVINnJHb-Ktkz7CTtOU0reGTXG_da13dDIOG5r4Dmf1CGZ6beKkIHU0C_XghnDgwC-qteaQSj4TYe59jY2jdYRyL_M-UZprQ1kZrrloKFGaRDSNMWqMOzPaV0LbkIo9w0TfTQCwaoPglW00]--></g></svg>