<?xml version="1.0" encoding="us-ascii" standalone="no"?><svg xmlns="http://www.w3.org/2000/svg" xmlns:xlink="http://www.w3.org/1999/xlink" contentStyleType="text/css" height="149px" preserveAspectRatio="none" style="width:1626px;height:149px;background:#FFFFFF;" version="1.1" viewBox="0 0 1626 149" width="1626px" zoomAndPan="magnify"><defs/><g><!--entity p1--><g id="elem_p1"><rect fill="#F1F1F1" height="37.6094" rx="2.5" ry="2.5" style="stroke:#181818;stroke-width:0.5;" width="67" x="7" y="7"/><text fill="#000000" font-family="sans-serif" font-size="14" lengthAdjust="spacing" textLength="47" x="17" y="31.5332">dataset</text></g><!--entity p2--><g id="elem_p2"><rect fill="#F1F1F1" height="37.6094" rx="2.5" ry="2.5" style="stroke:#181818;stroke-width:0.5;" width="65" x="109" y="7"/><text fill="#000000" font-family="sans-serif" font-size="14" lengthAdjust="spacing" textLength="45" x="119" y="31.5332">context</text></g><!--entity p3--><g id="elem_p3"><rect fill="#F1F1F1" height="37.6094" rx="2.5" ry="2.5" style="stroke:#181818;stroke-width:0.5;" width="67" x="209" y="7"/><text fill="#000000" font-family="sans-serif" font-size="14" lengthAdjust="spacing" textLength="47" x="219" y="31.5332">content</text></g><!--entity p4--><g id="elem_p4"><rect fill="#F1F1F1" height="37.6094" rx="2.5" ry="2.5" style="stroke:#181818;stroke-width:0.5;" width="121" x="311" y="7"/><text fill="#000000" font-family="sans-serif" font-size="14" lengthAdjust="spacing" textLength="101" x="321" y="31.5332">flatFileDefinition</text></g><!--entity p5--><g id="elem_p5"><rect fill="#F1F1F1" height="37.6094" rx="2.5" ry="2.5" style="stroke:#181818;stroke-width:0.5;" width="120" x="467.5" y="7"/><text fill="#000000" font-family="sans-serif" font-size="14" lengthAdjust="spacing" textLength="100" x="477.5" y="31.5332">recordDefinition</text></g><!--entity p6--><g id="elem_p6"><rect fill="#F1F1F1" height="37.6094" rx="2.5" ry="2.5" style="stroke:#181818;stroke-width:0.5;" width="105" x="623" y="7"/><text fill="#000000" font-family="sans-serif" font-size="14" lengthAdjust="spacing" textLength="85" x="633" y="31.5332">fieldDefinition</text></g><!--entity p7--><g id="elem_p7"><rect fill="#F1F1F1" height="37.6094" rx="2.5" ry="2.5" style="stroke:#181818;stroke-width:0.5;" width="94" x="763.5" y="7"/><text fill="#000000" font-family="sans-serif" font-size="14" lengthAdjust="spacing" textLength="74" x="773.5" y="31.5332">flatFileType</text></g><!--entity p8--><g id="elem_p8"><rect fill="#F1F1F1" height="37.6094" rx="2.5" ry="2.5" style="stroke:#181818;stroke-width:0.5;" width="93" x="893" y="7"/><text fill="#000000" font-family="sans-serif" font-size="14" lengthAdjust="spacing" textLength="73" x="903" y="31.5332">recordType</text></g><!--entity p9--><g id="elem_p9"><rect fill="#F1F1F1" height="37.6094" rx="2.5" ry="2.5" style="stroke:#181818;stroke-width:0.5;" width="78" x="1021.5" y="7"/><text fill="#000000" font-family="sans-serif" font-size="14" lengthAdjust="spacing" textLength="58" x="1031.5" y="31.5332">fieldType</text></g><!--entity p10--><g id="elem_p10"><rect fill="#F1F1F1" height="37.6094" rx="2.5" ry="2.5" style="stroke:#181818;stroke-width:0.5;" width="56" x="1134.5" y="7"/><text fill="#000000" font-family="sans-serif" font-size="14" lengthAdjust="spacing" textLength="36" x="1144.5" y="31.5332">query</text></g><!--entity p11--><g id="elem_p11"><rect fill="#F1F1F1" height="37.6094" rx="2.5" ry="2.5" style="stroke:#181818;stroke-width:0.5;" width="96" x="1225.5" y="7"/><text fill="#000000" font-family="sans-serif" font-size="14" lengthAdjust="spacing" textLength="76" x="1235.5" y="31.5332">dataObjects</text></g><!--entity p12--><g id="elem_p12"><rect fill="#F1F1F1" height="37.6094" rx="2.5" ry="2.5" style="stroke:#181818;stroke-width:0.5;" width="89" x="1357" y="7"/><text fill="#000000" font-family="sans-serif" font-size="14" lengthAdjust="spacing" textLength="69" x="1367" y="31.5332">dataObject</text></g><!--entity p13--><g id="elem_p13"><rect fill="#F1F1F1" height="37.6094" rx="2.5" ry="2.5" style="stroke:#181818;stroke-width:0.5;" width="139" x="1481" y="7"/><text fill="#000000" font-family="sans-serif" font-size="14" lengthAdjust="spacing" textLength="119" x="1491" y="31.5332">additionalElements</text></g><g id="elem_e"><rect fill="#F1F1F1" height="37.6094" style="stroke:#181818;stroke-width:0.5;" width="83" x="769" y="105"/><text fill="#000000" font-family="sans-serif" font-size="14" lengthAdjust="spacing" textLength="69" x="776" y="121.5332">description</text><line style="stroke:#181818;stroke-width:0.5;" x1="770" x2="851" y1="126.6094" y2="126.6094"/></g><!--link p1 to e--><g id="link_p1_e"><path codeLine="18" d="M40.5,45.25 C40.5,77.28 40.5,138 40.5,138 C40.5,138 593.52,138 753.83,138 " fill="none" id="p1-to-e" style="stroke:#181818;stroke-width:1.0;"/><line style="stroke:#181818;stroke-width:1.0;" x1="757.83" x2="768.83" y1="138" y2="138"/><ellipse cx="757.83" cy="138" fill="none" rx="4" ry="4" style="stroke:#181818;stroke-width:1.0;"/><line style="stroke:#181818;stroke-width:1.0;" x1="764.83" x2="764.83" y1="134" y2="142"/></g><!--link p2 to e--><g id="link_p2_e"><path codeLine="19" d="M141.5,45.13 C141.5,75.91 141.5,133 141.5,133 C141.5,133 607.74,133 753.9,133 " fill="none" id="p2-to-e" style="stroke:#181818;stroke-width:1.0;"/><line style="stroke:#181818;stroke-width:1.0;" x1="757.9" x2="768.9" y1="133" y2="133"/><ellipse cx="757.9" cy="133" fill="none" rx="4" ry="4" style="stroke:#181818;stroke-width:1.0;"/><line style="stroke:#181818;stroke-width:1.0;" x1="764.9" x2="764.9" y1="129" y2="137"/></g><!--link p3 to e--><g id="link_p3_e"><path codeLine="20" d="M242.5,45.47 C242.5,74.82 242.5,127 242.5,127 C242.5,127 622.56,127 753.73,127 " fill="none" id="p3-to-e" style="stroke:#181818;stroke-width:1.0;"/><line style="stroke:#181818;stroke-width:1.0;" x1="757.73" x2="768.73" y1="127" y2="127"/><ellipse cx="757.73" cy="127" fill="none" rx="4" ry="4" style="stroke:#181818;stroke-width:1.0;"/><line style="stroke:#181818;stroke-width:1.0;" x1="764.73" x2="764.73" y1="123" y2="131"/></g><!--link p4 to e--><g id="link_p4_e"><path codeLine="21" d="M371.5,45.43 C371.5,73.48 371.5,122 371.5,122 C371.5,122 644.22,122 753.8,122 " fill="none" id="p4-to-e" style="stroke:#181818;stroke-width:1.0;"/><line style="stroke:#181818;stroke-width:1.0;" x1="757.8" x2="768.8" y1="122" y2="122"/><ellipse cx="757.8" cy="122" fill="none" rx="4" ry="4" style="stroke:#181818;stroke-width:1.0;"/><line style="stroke:#181818;stroke-width:1.0;" x1="764.8" x2="764.8" y1="118" y2="126"/></g><!--link p5 to e--><g id="link_p5_e"><path codeLine="22" d="M527.5,45.09 C527.5,71.51 527.5,116 527.5,116 C527.5,116 675.02,116 753.74,116 " fill="none" id="p5-to-e" style="stroke:#181818;stroke-width:1.0;"/><line style="stroke:#181818;stroke-width:1.0;" x1="757.74" x2="768.74" y1="116" y2="116"/><ellipse cx="757.74" cy="116" fill="none" rx="4" ry="4" style="stroke:#181818;stroke-width:1.0;"/><line style="stroke:#181818;stroke-width:1.0;" x1="764.74" x2="764.74" y1="112" y2="120"/></g><!--link p6 to e--><g id="link_p6_e"><path codeLine="23" d="M675.5,45.29 C675.5,70.37 675.5,111 675.5,111 C675.5,111 714.23,111 753.89,111 " fill="none" id="p6-to-e" style="stroke:#181818;stroke-width:1.0;"/><line style="stroke:#181818;stroke-width:1.0;" x1="757.89" x2="768.89" y1="111" y2="111"/><ellipse cx="757.89" cy="111" fill="none" rx="4" ry="4" style="stroke:#181818;stroke-width:1.0;"/><line style="stroke:#181818;stroke-width:1.0;" x1="764.89" x2="764.89" y1="107" y2="115"/></g><!--link p7 to e--><g id="link_p7_e"><path codeLine="24" d="M810.5,45.36 C810.5,62.54 810.5,72.51 810.5,89.68 " fill="none" id="p7-to-e" style="stroke:#181818;stroke-width:1.0;"/><line style="stroke:#181818;stroke-width:1.0;" x1="810.5" x2="810.5" y1="93.68" y2="104.68"/><ellipse cx="810.5" cy="93.68" fill="none" rx="4" ry="4" style="stroke:#181818;stroke-width:1.0;"/><line style="stroke:#181818;stroke-width:1.0;" x1="814.5" x2="806.5" y1="100.68" y2="100.68"/></g><!--link p8 to e--><g id="link_p8_e"><path codeLine="25" d="M939.5,45.29 C939.5,70.37 939.5,111 939.5,111 C939.5,111 904.74,111 867.03,111 " fill="none" id="p8-to-e" style="stroke:#181818;stroke-width:1.0;"/><line style="stroke:#181818;stroke-width:1.0;" x1="863.03" x2="852.03" y1="111" y2="111"/><ellipse cx="863.03" cy="111" fill="none" rx="4" ry="4" style="stroke:#181818;stroke-width:1.0;"/><line style="stroke:#181818;stroke-width:1.0;" x1="856.03" x2="856.03" y1="115" y2="107"/></g><!--link p9 to e--><g id="link_p9_e"><path codeLine="26" d="M1060.5,45.09 C1060.5,71.51 1060.5,116 1060.5,116 C1060.5,116 938.15,116 867.06,116 " fill="none" id="p9-to-e" style="stroke:#181818;stroke-width:1.0;"/><line style="stroke:#181818;stroke-width:1.0;" x1="863.06" x2="852.06" y1="116" y2="116"/><ellipse cx="863.06" cy="116" fill="none" rx="4" ry="4" style="stroke:#181818;stroke-width:1.0;"/><line style="stroke:#181818;stroke-width:1.0;" x1="856.06" x2="856.06" y1="120" y2="112"/></g><!--link p10 to e--><g id="link_p10_e"><path codeLine="27" d="M1162.5,45.43 C1162.5,73.48 1162.5,122 1162.5,122 C1162.5,122 960.5,122 867.26,122 " fill="none" id="p10-to-e" style="stroke:#181818;stroke-width:1.0;"/><line style="stroke:#181818;stroke-width:1.0;" x1="863.26" x2="852.26" y1="122" y2="122"/><ellipse cx="863.26" cy="122" fill="none" rx="4" ry="4" style="stroke:#181818;stroke-width:1.0;"/><line style="stroke:#181818;stroke-width:1.0;" x1="856.26" x2="856.26" y1="126" y2="118"/></g><!--link p11 to e--><g id="link_p11_e"><path codeLine="28" d="M1273.5,45.47 C1273.5,74.82 1273.5,127 1273.5,127 C1273.5,127 981.38,127 867.4,127 " fill="none" id="p11-to-e" style="stroke:#181818;stroke-width:1.0;"/><line style="stroke:#181818;stroke-width:1.0;" x1="863.4" x2="852.4" y1="127" y2="127"/><ellipse cx="863.4" cy="127" fill="none" rx="4" ry="4" style="stroke:#181818;stroke-width:1.0;"/><line style="stroke:#181818;stroke-width:1.0;" x1="856.4" x2="856.4" y1="131" y2="123"/></g><!--link p12 to e--><g id="link_p12_e"><path codeLine="29" d="M1401.5,45.13 C1401.5,75.91 1401.5,133 1401.5,133 C1401.5,133 1001.58,133 867.06,133 " fill="none" id="p12-to-e" style="stroke:#181818;stroke-width:1.0;"/><line style="stroke:#181818;stroke-width:1.0;" x1="863.06" x2="852.06" y1="133" y2="133"/><ellipse cx="863.06" cy="133" fill="none" rx="4" ry="4" style="stroke:#181818;stroke-width:1.0;"/><line style="stroke:#181818;stroke-width:1.0;" x1="856.06" x2="856.06" y1="137" y2="129"/></g><!--link p13 to e--><g id="link_p13_e"><path codeLine="30" d="M1550.5,45.25 C1550.5,77.28 1550.5,138 1550.5,138 C1550.5,138 1023.33,138 867.14,138 " fill="none" id="p13-to-e" style="stroke:#181818;stroke-width:1.0;"/><line style="stroke:#181818;stroke-width:1.0;" x1="863.14" x2="852.14" y1="138" y2="138"/><ellipse cx="863.14" cy="138" fill="none" rx="4" ry="4" style="stroke:#181818;stroke-width:1.0;"/><line style="stroke:#181818;stroke-width:1.0;" x1="856.14" x2="856.14" y1="142" y2="134"/></g><!--SRC=[RP3BRW8n34Nt-Og8FH9XUEvBjztq1zmPGzrwaZH9LP3wyKqXE0F3xYZ7yPKlCBkVdeva3of-alKGeDTC5jF9etOXlJkb0hO9x85HJpf8435DD4JjpT2qpYOy5ZCV6LjCCpHxXlHCZ4-u9qk9dBqCBOP36LtexaUMDti8UJInUfJqci-wwFKueyhDQ7jrsw7x-iPmActCxejwUVl83x5eyrWNUzCOTDtv4E0TOv-xk-veb3j_oWimje6yd8lA6psTkjz_cWirGWkXfT1AQ2sq4TeAcLd5cc9gZBdc_040]--></g></svg>