<?xml version="1.0" encoding="us-ascii" standalone="no"?><svg xmlns="http://www.w3.org/2000/svg" xmlns:xlink="http://www.w3.org/1999/xlink" contentStyleType="text/css" height="246px" preserveAspectRatio="none" style="width:133px;height:246px;background:#FFFFFF;" version="1.1" viewBox="0 0 133 246" width="133px" zoomAndPan="magnify"><defs/><g><!--entity p1--><g id="elem_p1"><rect fill="#F1F1F1" height="37.6094" rx="2.5" ry="2.5" style="stroke:#181818;stroke-width:0.5;" width="120" x="7" y="7"/><text fill="#000000" font-family="sans-serif" font-size="14" lengthAdjust="spacing" textLength="100" x="17" y="31.5332">recordDefinition</text></g><!--entity c1--><g id="elem_c1"><rect fill="#F1F1F1" height="37.6094" rx="2.5" ry="2.5" style="stroke:#181818;stroke-width:0.5;" width="105" x="14.5" y="203"/><text fill="#000000" font-family="sans-serif" font-size="14" lengthAdjust="spacing" textLength="85" x="24.5" y="227.5332">fieldDefinition</text></g><g id="elem_e"><rect fill="#F1F1F1" height="37.6094" style="stroke:#181818;stroke-width:0.5;" width="106" x="14" y="105"/><text fill="#000000" font-family="sans-serif" font-size="14" lengthAdjust="spacing" textLength="92" x="21" y="121.5332">fieldDefinitions</text><line style="stroke:#181818;stroke-width:0.5;" x1="15" x2="119" y1="126.6094" y2="126.6094"/></g><!--link p1 to e--><g id="link_p1_e"><path codeLine="7" d="M67,45.36 C67,62.54 67,79.51 67,96.68 " fill="none" id="p1-to-e" style="stroke:#181818;stroke-width:1.0;"/><line style="stroke:#181818;stroke-width:1.0;" x1="71" x2="63" y1="100.68" y2="100.68"/><line style="stroke:#181818;stroke-width:1.0;" x1="71" x2="63" y1="97.68" y2="97.68"/><line style="stroke:#181818;stroke-width:1.0;" x1="67" x2="67" y1="96.68" y2="104.68"/></g><!--link e to c1--><g id="link_e_c1"><path codeLine="8" d="M67,143.36 C67,160.54 67,177.51 67,194.68 " fill="none" id="e-to-c1" style="stroke:#181818;stroke-width:1.0;"/><line style="stroke:#181818;stroke-width:1.0;" x1="67" x2="73" y1="194.68" y2="202.68"/><line style="stroke:#181818;stroke-width:1.0;" x1="67" x2="61" y1="194.68" y2="202.68"/><line style="stroke:#181818;stroke-width:1.0;" x1="67" x2="67" y1="194.68" y2="202.68"/><line style="stroke:#181818;stroke-width:1.0;" x1="71" x2="63" y1="192.68" y2="192.68"/></g><!--SRC=[POin3eCm301tly9Ypv0_z2Ck630OEqeYbQeydfIfAjj9TqUg_jfa5vkWh6A9CcseObpVYT5pdHqWSr_99cNi6deU7ZoAIHMt3gbWYh_9AAp_HH_1dqjhRhfSdY553E4u6l4NFcqv0G00]--></g></svg>