<?xml version="1.0" encoding="us-ascii" standalone="no"?><svg xmlns="http://www.w3.org/2000/svg" xmlns:xlink="http://www.w3.org/1999/xlink" contentStyleType="text/css" height="246px" preserveAspectRatio="none" style="width:128px;height:246px;background:#FFFFFF;" version="1.1" viewBox="0 0 128 246" width="128px" zoomAndPan="magnify"><defs/><g><!--entity p1--><g id="elem_p1"><rect fill="#F1F1F1" height="37.6094" rx="2.5" ry="2.5" style="stroke:#181818;stroke-width:0.5;" width="115" x="7" y="7"/><text fill="#000000" font-family="sans-serif" font-size="14" lengthAdjust="spacing" textLength="95" x="17" y="31.5332">structureTypes</text></g><!--entity c1--><g id="elem_c1"><rect fill="#F1F1F1" height="37.6094" rx="2.5" ry="2.5" style="stroke:#181818;stroke-width:0.5;" width="78" x="25.5" y="203"/><text fill="#000000" font-family="sans-serif" font-size="14" lengthAdjust="spacing" textLength="58" x="35.5" y="227.5332">fieldType</text></g><g id="elem_e"><rect fill="#F1F1F1" height="37.6094" style="stroke:#181818;stroke-width:0.5;" width="79" x="25" y="105"/><text fill="#000000" font-family="sans-serif" font-size="14" lengthAdjust="spacing" textLength="65" x="32" y="121.5332">fieldTypes</text><line style="stroke:#181818;stroke-width:0.5;" x1="26" x2="103" y1="126.6094" y2="126.6094"/></g><!--link p1 to e--><g id="link_p1_e"><path codeLine="7" d="M64.5,45.36 C64.5,62.54 64.5,79.51 64.5,96.68 " fill="none" id="p1-to-e" style="stroke:#181818;stroke-width:1.0;"/><line style="stroke:#181818;stroke-width:1.0;" x1="68.5" x2="60.5" y1="100.68" y2="100.68"/><line style="stroke:#181818;stroke-width:1.0;" x1="68.5" x2="60.5" y1="97.68" y2="97.68"/><line style="stroke:#181818;stroke-width:1.0;" x1="64.5" x2="64.5" y1="96.68" y2="104.68"/></g><!--link e to c1--><g id="link_e_c1"><path codeLine="8" d="M64.5,143.36 C64.5,160.54 64.5,177.51 64.5,194.68 " fill="none" id="e-to-c1" style="stroke:#181818;stroke-width:1.0;"/><line style="stroke:#181818;stroke-width:1.0;" x1="64.5" x2="70.5" y1="194.68" y2="202.68"/><line style="stroke:#181818;stroke-width:1.0;" x1="64.5" x2="58.5" y1="194.68" y2="202.68"/><line style="stroke:#181818;stroke-width:1.0;" x1="64.5" x2="64.5" y1="194.68" y2="202.68"/><line style="stroke:#181818;stroke-width:1.0;" x1="68.5" x2="60.5" y1="192.68" y2="192.68"/></g><!--SRC=[JSin3eCm38NXtQUms1bo5oxW1fUwDKda61LK3jy02zilVU-HQlxEiagQe7ua5JAQKIMnRuKncxyoW75qIfCoTjLjYRuO3yrhXrInXFlWAQpZWQV50FdnRdg3wyLG0lRzlhVY8tvj_0S0]--></g></svg>