<?xml version="1.0" encoding="us-ascii" standalone="no"?><svg xmlns="http://www.w3.org/2000/svg" xmlns:xlink="http://www.w3.org/1999/xlink" contentStyleType="text/css" height="273px" preserveAspectRatio="none" style="width:1209px;height:273px;background:#FFFFFF;" version="1.1" viewBox="0 0 1209 273" width="1209px" zoomAndPan="magnify"><defs/><g><!--entity p1--><g id="elem_p1"><rect fill="#F1F1F1" height="37.6094" rx="2.5" ry="2.5" style="stroke:#181818;stroke-width:0.5;" width="112" x="511.5" y="7"/><text fill="#000000" font-family="sans-serif" font-size="14" lengthAdjust="spacing" textLength="92" x="521.5" y="31.5332">fieldDefinitions</text></g><!--entity p2--><g id="elem_p2"><rect fill="#F1F1F1" height="37.6094" rx="2.5" ry="2.5" style="stroke:#181818;stroke-width:0.5;" width="79" x="659" y="7"/><text fill="#000000" font-family="sans-serif" font-size="14" lengthAdjust="spacing" textLength="59" x="669" y="31.5332">fieldParts</text></g><!--entity c1--><g id="elem_c1"><rect fill="#F1F1F1" height="37.6094" rx="2.5" ry="2.5" style="stroke:#181818;stroke-width:0.5;" width="89" x="7" y="230"/><text fill="#000000" font-family="sans-serif" font-size="14" lengthAdjust="spacing" textLength="69" x="17" y="254.5332">description</text></g><!--entity c2--><g id="elem_c2"><rect fill="#F1F1F1" height="37.6094" rx="2.5" ry="2.5" style="stroke:#181818;stroke-width:0.5;" width="84" x="131.5" y="230"/><text fill="#000000" font-family="sans-serif" font-size="14" lengthAdjust="spacing" textLength="64" x="141.5" y="254.5332">properties</text></g><!--entity c3--><g id="elem_c3"><rect fill="#F1F1F1" height="37.6094" rx="2.5" ry="2.5" style="stroke:#181818;stroke-width:0.5;" width="72" x="250.5" y="230"/><text fill="#000000" font-family="sans-serif" font-size="14" lengthAdjust="spacing" textLength="52" x="260.5" y="254.5332">startPos</text></g><!--entity c4--><g id="elem_c4"><rect fill="#F1F1F1" height="37.6094" rx="2.5" ry="2.5" style="stroke:#181818;stroke-width:0.5;" width="68" x="357.5" y="230"/><text fill="#000000" font-family="sans-serif" font-size="14" lengthAdjust="spacing" textLength="48" x="367.5" y="254.5332">endPos</text></g><!--entity c5--><g id="elem_c5"><rect fill="#F1F1F1" height="37.6094" rx="2.5" ry="2.5" style="stroke:#181818;stroke-width:0.5;" width="93" x="461" y="230"/><text fill="#000000" font-family="sans-serif" font-size="14" lengthAdjust="spacing" textLength="73" x="471" y="254.5332">fixedLength</text></g><!--entity c6--><g id="elem_c6"><rect fill="#F1F1F1" height="37.6094" rx="2.5" ry="2.5" style="stroke:#181818;stroke-width:0.5;" width="86" x="589.5" y="230"/><text fill="#000000" font-family="sans-serif" font-size="14" lengthAdjust="spacing" textLength="66" x="599.5" y="254.5332">minLength</text></g><!--entity c7--><g id="elem_c7"><rect fill="#F1F1F1" height="37.6094" rx="2.5" ry="2.5" style="stroke:#181818;stroke-width:0.5;" width="89" x="711" y="230"/><text fill="#000000" font-family="sans-serif" font-size="14" lengthAdjust="spacing" textLength="69" x="721" y="254.5332">maxLength</text></g><!--entity c8--><g id="elem_c8"><rect fill="#F1F1F1" height="37.6094" rx="2.5" ry="2.5" style="stroke:#181818;stroke-width:0.5;" width="63" x="835" y="230"/><text fill="#000000" font-family="sans-serif" font-size="14" lengthAdjust="spacing" textLength="43" x="845" y="254.5332">unique</text></g><!--entity c9--><g id="elem_c9"><rect fill="#F1F1F1" height="37.6094" rx="2.5" ry="2.5" style="stroke:#181818;stroke-width:0.5;" width="63" x="933" y="230"/><text fill="#000000" font-family="sans-serif" font-size="14" lengthAdjust="spacing" textLength="43" x="943" y="254.5332">notNull</text></g><!--entity c10--><g id="elem_c10"><rect fill="#F1F1F1" height="37.6094" rx="2.5" ry="2.5" style="stroke:#181818;stroke-width:0.5;" width="79" x="1031" y="230"/><text fill="#000000" font-family="sans-serif" font-size="14" lengthAdjust="spacing" textLength="59" x="1041" y="254.5332">fieldParts</text></g><!--entity c11--><g id="elem_c11"><rect fill="#F1F1F1" height="37.6094" rx="2.5" ry="2.5" style="stroke:#181818;stroke-width:0.5;" width="58" x="1145.5" y="230"/><text fill="#000000" font-family="sans-serif" font-size="14" lengthAdjust="spacing" textLength="38" x="1155.5" y="254.5332">codes</text></g><g id="elem_e"><rect fill="#F1F1F1" height="64.8281" style="stroke:#181818;stroke-width:0.5;" width="105" x="580" y="105"/><text fill="#000000" font-family="sans-serif" font-size="14" lengthAdjust="spacing" textLength="85" x="590" y="121.5332">fieldDefinition</text><line style="stroke:#181818;stroke-width:0.5;" x1="581" x2="684" y1="126.6094" y2="126.6094"/><text fill="#000000" font-family="sans-serif" font-size="14" lengthAdjust="spacing" textLength="35" x="586" y="145.1426">name</text><text fill="#000000" font-family="sans-serif" font-size="14" lengthAdjust="spacing" textLength="93" x="586" y="162.752">typeReference</text></g><!--link p1 to e--><g id="link_p1_e"><path codeLine="20" d="M601.75,45.17 C601.75,61.48 601.75,77.28 601.75,96.62 " fill="none" id="p1-to-e" style="stroke:#181818;stroke-width:1.0;"/><line style="stroke:#181818;stroke-width:1.0;" x1="601.75" x2="607.75" y1="96.62" y2="104.62"/><line style="stroke:#181818;stroke-width:1.0;" x1="601.75" x2="595.75" y1="96.62" y2="104.62"/><line style="stroke:#181818;stroke-width:1.0;" x1="601.75" x2="601.75" y1="96.62" y2="104.62"/><line style="stroke:#181818;stroke-width:1.0;" x1="605.75" x2="597.75" y1="94.62" y2="94.62"/></g><!--link p2 to e--><g id="link_p2_e"><path codeLine="21" d="M672,45.17 C672,61.48 672,77.28 672,96.62 " fill="none" id="p2-to-e" style="stroke:#181818;stroke-width:1.0;"/><line style="stroke:#181818;stroke-width:1.0;" x1="672" x2="678" y1="96.62" y2="104.62"/><line style="stroke:#181818;stroke-width:1.0;" x1="672" x2="666" y1="96.62" y2="104.62"/><line style="stroke:#181818;stroke-width:1.0;" x1="672" x2="672" y1="96.62" y2="104.62"/><line style="stroke:#181818;stroke-width:1.0;" x1="676" x2="668" y1="94.62" y2="94.62"/></g><!--link e to c1--><g id="link_e_c1"><path codeLine="22" d="M579.92,118 C436.9,118 51.5,118 51.5,118 C51.5,118 51.5,178.62 51.5,214.95 " fill="none" id="e-to-c1" style="stroke:#181818;stroke-width:1.0;"/><line style="stroke:#181818;stroke-width:1.0;" x1="51.5" x2="51.5" y1="218.95" y2="229.95"/><ellipse cx="51.5" cy="218.95" fill="none" rx="4" ry="4" style="stroke:#181818;stroke-width:1.0;"/><line style="stroke:#181818;stroke-width:1.0;" x1="55.5" x2="47.5" y1="225.95" y2="225.95"/></g><!--link e to c2--><g id="link_e_c2"><path codeLine="23" d="M579.85,131 C459.28,131 173.5,131 173.5,131 C173.5,131 173.5,181.34 173.5,214.78 " fill="none" id="e-to-c2" style="stroke:#181818;stroke-width:1.0;"/><line style="stroke:#181818;stroke-width:1.0;" x1="173.5" x2="173.5" y1="218.78" y2="229.78"/><ellipse cx="173.5" cy="218.78" fill="none" rx="4" ry="4" style="stroke:#181818;stroke-width:1.0;"/><line style="stroke:#181818;stroke-width:1.0;" x1="177.5" x2="169.5" y1="225.78" y2="225.78"/></g><!--link e to c3--><g id="link_e_c3"><path codeLine="24" d="M579.95,144 C483.16,144 286.5,144 286.5,144 C286.5,144 286.5,184.43 286.5,214.74 " fill="none" id="e-to-c3" style="stroke:#181818;stroke-width:1.0;"/><line style="stroke:#181818;stroke-width:1.0;" x1="286.5" x2="286.5" y1="218.74" y2="229.74"/><ellipse cx="286.5" cy="218.74" fill="none" rx="4" ry="4" style="stroke:#181818;stroke-width:1.0;"/><line style="stroke:#181818;stroke-width:1.0;" x1="290.5" x2="282.5" y1="225.74" y2="225.74"/></g><!--link e to c4--><g id="link_e_c4"><path codeLine="25" d="M579.91,157 C509,157 391.5,157 391.5,157 C391.5,157 391.5,187.99 391.5,214.94 " fill="none" id="e-to-c4" style="stroke:#181818;stroke-width:1.0;"/><line style="stroke:#181818;stroke-width:1.0;" x1="391.5" x2="391.5" y1="218.94" y2="229.94"/><ellipse cx="391.5" cy="218.94" fill="none" rx="4" ry="4" style="stroke:#181818;stroke-width:1.0;"/><line style="stroke:#181818;stroke-width:1.0;" x1="395.5" x2="387.5" y1="225.94" y2="225.94"/></g><!--link e to c5--><g id="link_e_c5"><path codeLine="26" d="M584.75,170.05 C584.75,202.96 584.75,249 584.75,249 C584.75,249 585.49,249 569.22,249 " fill="none" id="e-to-c5" style="stroke:#181818;stroke-width:1.0;"/><line style="stroke:#181818;stroke-width:1.0;" x1="565.22" x2="554.22" y1="249" y2="249"/><ellipse cx="565.22" cy="249" fill="none" rx="4" ry="4" style="stroke:#181818;stroke-width:1.0;"/><line style="stroke:#181818;stroke-width:1.0;" x1="558.22" x2="558.22" y1="253" y2="245"/></g><!--link e to c6--><g id="link_e_c6"><path codeLine="27" d="M632.5,170.05 C632.5,189.46 632.5,198.44 632.5,214.85 " fill="none" id="e-to-c6" style="stroke:#181818;stroke-width:1.0;"/><line style="stroke:#181818;stroke-width:1.0;" x1="632.5" x2="632.5" y1="218.85" y2="229.85"/><ellipse cx="632.5" cy="218.85" fill="none" rx="4" ry="4" style="stroke:#181818;stroke-width:1.0;"/><line style="stroke:#181818;stroke-width:1.0;" x1="636.5" x2="628.5" y1="225.85" y2="225.85"/></g><!--link e to c7--><g id="link_e_c7"><path codeLine="28" d="M680.25,170.05 C680.25,202.96 680.25,249 680.25,249 C680.25,249 679.65,249 695.86,249 " fill="none" id="e-to-c7" style="stroke:#181818;stroke-width:1.0;"/><line style="stroke:#181818;stroke-width:1.0;" x1="699.86" x2="710.86" y1="249" y2="249"/><ellipse cx="699.86" cy="249" fill="none" rx="4" ry="4" style="stroke:#181818;stroke-width:1.0;"/><line style="stroke:#181818;stroke-width:1.0;" x1="706.86" x2="706.86" y1="245" y2="253"/></g><!--link e to c8--><g id="link_e_c8"><path codeLine="29" d="M685.01,157 C754.01,157 866.5,157 866.5,157 C866.5,157 866.5,187.99 866.5,214.94 " fill="none" id="e-to-c8" style="stroke:#181818;stroke-width:1.0;"/><line style="stroke:#181818;stroke-width:1.0;" x1="866.5" x2="866.5" y1="218.94" y2="229.94"/><ellipse cx="866.5" cy="218.94" fill="none" rx="4" ry="4" style="stroke:#181818;stroke-width:1.0;"/><line style="stroke:#181818;stroke-width:1.0;" x1="870.5" x2="862.5" y1="225.94" y2="225.94"/></g><!--link e to c9--><g id="link_e_c9"><path codeLine="30" d="M685.11,144 C778.72,144 964.5,144 964.5,144 C964.5,144 964.5,184.43 964.5,214.74 " fill="none" id="e-to-c9" style="stroke:#181818;stroke-width:1.0;"/><line style="stroke:#181818;stroke-width:1.0;" x1="964.5" x2="964.5" y1="218.74" y2="229.74"/><ellipse cx="964.5" cy="218.74" fill="none" rx="4" ry="4" style="stroke:#181818;stroke-width:1.0;"/><line style="stroke:#181818;stroke-width:1.0;" x1="968.5" x2="960.5" y1="225.74" y2="225.74"/></g><!--link e to c10--><g id="link_e_c10"><path codeLine="31" d="M685.33,131 C801.83,131 1070.5,131 1070.5,131 C1070.5,131 1070.5,181.34 1070.5,214.78 " fill="none" id="e-to-c10" style="stroke:#181818;stroke-width:1.0;"/><line style="stroke:#181818;stroke-width:1.0;" x1="1070.5" x2="1070.5" y1="218.78" y2="229.78"/><ellipse cx="1070.5" cy="218.78" fill="none" rx="4" ry="4" style="stroke:#181818;stroke-width:1.0;"/><line style="stroke:#181818;stroke-width:1.0;" x1="1074.5" x2="1066.5" y1="225.78" y2="225.78"/></g><!--link e to c11--><g id="link_e_c11"><path codeLine="32" d="M685.46,118 C821.84,118 1174.5,118 1174.5,118 C1174.5,118 1174.5,178.62 1174.5,214.95 " fill="none" id="e-to-c11" style="stroke:#181818;stroke-width:1.0;"/><line style="stroke:#181818;stroke-width:1.0;" x1="1174.5" x2="1174.5" y1="218.95" y2="229.95"/><ellipse cx="1174.5" cy="218.95" fill="none" rx="4" ry="4" style="stroke:#181818;stroke-width:1.0;"/><line style="stroke:#181818;stroke-width:1.0;" x1="1178.5" x2="1170.5" y1="225.95" y2="225.95"/></g><!--SRC=[VT5BRiCW483XFQT0sKSAphlhBgigwWqeZ9rfyK01gwwQmzSECS6ArDqlVGoo1scC_MwnHsfO-4HoqikM6oI8FmwuzV5i6VEWegJ605_K24O_Gus44Is51PU1E_5mv2Hzl65LeeQWFBfnzgfgDkgyTU0ZGXfLiz4GXpjFzaRhae1qXityMthGBq1DF2VTbjeYbRQRcUnBsvVM4NvraE1G0jdusXcJvFZFKfHObQgiddvP26RVFmPwsFNLWG5_uYJR5EChlK4D7aW1Su8lbvVVuP2hfe8Xx6NSyrHLhdMkJQvjhbskVQv3hkFzvjKznHy0]--></g></svg>