<?xml version="1.0" encoding="us-ascii" standalone="no"?><svg xmlns="http://www.w3.org/2000/svg" xmlns:xlink="http://www.w3.org/1999/xlink" contentStyleType="text/css" height="255px" preserveAspectRatio="none" style="width:808px;height:255px;background:#FFFFFF;" version="1.1" viewBox="0 0 808 255" width="808px" zoomAndPan="magnify"><defs/><g><!--entity p1--><g id="elem_p1"><rect fill="#F1F1F1" height="37.6094" rx="2.5" ry="2.5" style="stroke:#181818;stroke-width:0.5;" width="85" x="371" y="7"/><text fill="#000000" font-family="sans-serif" font-size="14" lengthAdjust="spacing" textLength="65" x="381" y="31.5332">fieldTypes</text></g><!--entity c1--><g id="elem_c1"><rect fill="#F1F1F1" height="37.6094" rx="2.5" ry="2.5" style="stroke:#181818;stroke-width:0.5;" width="89" x="7" y="212"/><text fill="#000000" font-family="sans-serif" font-size="14" lengthAdjust="spacing" textLength="69" x="17" y="236.5332">description</text></g><!--entity c2--><g id="elem_c2"><rect fill="#F1F1F1" height="37.6094" rx="2.5" ry="2.5" style="stroke:#181818;stroke-width:0.5;" width="80" x="131.5" y="212"/><text fill="#000000" font-family="sans-serif" font-size="14" lengthAdjust="spacing" textLength="60" x="141.5" y="236.5332">dataType</text></g><!--entity c3--><g id="elem_c3"><rect fill="#F1F1F1" height="37.6094" rx="2.5" ry="2.5" style="stroke:#181818;stroke-width:0.5;" width="91" x="247" y="212"/><text fill="#000000" font-family="sans-serif" font-size="14" lengthAdjust="spacing" textLength="71" x="257" y="236.5332">fieldFormat</text></g><!--entity c4--><g id="elem_c4"><rect fill="#F1F1F1" height="37.6094" rx="2.5" ry="2.5" style="stroke:#181818;stroke-width:0.5;" width="81" x="373" y="212"/><text fill="#000000" font-family="sans-serif" font-size="14" lengthAdjust="spacing" textLength="61" x="383" y="236.5332">alignment</text></g><!--entity c5--><g id="elem_c5"><rect fill="#F1F1F1" height="37.6094" rx="2.5" ry="2.5" style="stroke:#181818;stroke-width:0.5;" width="75" x="489" y="212"/><text fill="#000000" font-family="sans-serif" font-size="14" lengthAdjust="spacing" textLength="55" x="499" y="236.5332">padChar</text></g><!--entity c6--><g id="elem_c6"><rect fill="#F1F1F1" height="37.6094" rx="2.5" ry="2.5" style="stroke:#181818;stroke-width:0.5;" width="82" x="599.5" y="212"/><text fill="#000000" font-family="sans-serif" font-size="14" lengthAdjust="spacing" textLength="62" x="609.5" y="236.5332">packType</text></g><!--entity c7--><g id="elem_c7"><rect fill="#F1F1F1" height="37.6094" rx="2.5" ry="2.5" style="stroke:#181818;stroke-width:0.5;" width="85" x="717" y="212"/><text fill="#000000" font-family="sans-serif" font-size="14" lengthAdjust="spacing" textLength="65" x="727" y="236.5332">nullValues</text></g><g id="elem_e"><rect fill="#F1F1F1" height="47.2188" style="stroke:#181818;stroke-width:0.5;" width="72" x="377.5" y="105"/><text fill="#000000" font-family="sans-serif" font-size="14" lengthAdjust="spacing" textLength="58" x="384.5" y="121.5332">fieldType</text><line style="stroke:#181818;stroke-width:0.5;" x1="378.5" x2="448.5" y1="126.6094" y2="126.6094"/><text fill="#000000" font-family="sans-serif" font-size="14" lengthAdjust="spacing" textLength="35" x="383.5" y="145.1426">name</text></g><!--link p1 to e--><g id="link_p1_e"><path codeLine="14" d="M413.5,45.28 C413.5,62.21 413.5,78.9 413.5,96.99 " fill="none" id="p1-to-e" style="stroke:#181818;stroke-width:1.0;"/><line style="stroke:#181818;stroke-width:1.0;" x1="413.5" x2="419.5" y1="96.99" y2="104.99"/><line style="stroke:#181818;stroke-width:1.0;" x1="413.5" x2="407.5" y1="96.99" y2="104.99"/><line style="stroke:#181818;stroke-width:1.0;" x1="413.5" x2="413.5" y1="96.99" y2="104.99"/><line style="stroke:#181818;stroke-width:1.0;" x1="417.5" x2="409.5" y1="94.99" y2="94.99"/></g><!--link e to c1--><g id="link_e_c1"><path codeLine="15" d="M377.47,117 C285.9,117 51.5,117 51.5,117 C51.5,117 51.5,164.47 51.5,196.92 " fill="none" id="e-to-c1" style="stroke:#181818;stroke-width:1.0;"/><line style="stroke:#181818;stroke-width:1.0;" x1="51.5" x2="51.5" y1="200.92" y2="211.92"/><ellipse cx="51.5" cy="200.92" fill="none" rx="4" ry="4" style="stroke:#181818;stroke-width:1.0;"/><line style="stroke:#181818;stroke-width:1.0;" x1="55.5" x2="47.5" y1="207.92" y2="207.92"/></g><!--link e to c2--><g id="link_e_c2"><path codeLine="16" d="M377.27,129 C309.76,129 171.5,129 171.5,129 C171.5,129 171.5,174.27 171.5,203.81 " fill="none" id="e-to-c2" style="stroke:#181818;stroke-width:1.0;"/><line style="stroke:#181818;stroke-width:1.0;" x1="175.5" x2="167.5" y1="207.81" y2="207.81"/><line style="stroke:#181818;stroke-width:1.0;" x1="175.5" x2="167.5" y1="204.81" y2="204.81"/><line style="stroke:#181818;stroke-width:1.0;" x1="171.5" x2="171.5" y1="203.81" y2="211.81"/></g><!--link e to c3--><g id="link_e_c3"><path codeLine="17" d="M377.2,141 C341.55,141 292.5,141 292.5,141 C292.5,141 292.5,170.49 292.5,196.91 " fill="none" id="e-to-c3" style="stroke:#181818;stroke-width:1.0;"/><line style="stroke:#181818;stroke-width:1.0;" x1="292.5" x2="292.5" y1="200.91" y2="211.91"/><ellipse cx="292.5" cy="200.91" fill="none" rx="4" ry="4" style="stroke:#181818;stroke-width:1.0;"/><line style="stroke:#181818;stroke-width:1.0;" x1="296.5" x2="288.5" y1="207.91" y2="207.91"/></g><!--link e to c4--><g id="link_e_c4"><path codeLine="18" d="M413.5,152.02 C413.5,170.1 413.5,179.78 413.5,196.71 " fill="none" id="e-to-c4" style="stroke:#181818;stroke-width:1.0;"/><line style="stroke:#181818;stroke-width:1.0;" x1="413.5" x2="413.5" y1="200.71" y2="211.71"/><ellipse cx="413.5" cy="200.71" fill="none" rx="4" ry="4" style="stroke:#181818;stroke-width:1.0;"/><line style="stroke:#181818;stroke-width:1.0;" x1="417.5" x2="409.5" y1="207.71" y2="207.71"/></g><!--link e to c5--><g id="link_e_c5"><path codeLine="19" d="M449.56,141 C482.63,141 526.5,141 526.5,141 C526.5,141 526.5,170.49 526.5,196.91 " fill="none" id="e-to-c5" style="stroke:#181818;stroke-width:1.0;"/><line style="stroke:#181818;stroke-width:1.0;" x1="526.5" x2="526.5" y1="200.91" y2="211.91"/><ellipse cx="526.5" cy="200.91" fill="none" rx="4" ry="4" style="stroke:#181818;stroke-width:1.0;"/><line style="stroke:#181818;stroke-width:1.0;" x1="530.5" x2="522.5" y1="207.91" y2="207.91"/></g><!--link e to c6--><g id="link_e_c6"><path codeLine="20" d="M449.72,129 C513.81,129 640.5,129 640.5,129 C640.5,129 640.5,167.27 640.5,196.81 " fill="none" id="e-to-c6" style="stroke:#181818;stroke-width:1.0;"/><line style="stroke:#181818;stroke-width:1.0;" x1="640.5" x2="640.5" y1="200.81" y2="211.81"/><ellipse cx="640.5" cy="200.81" fill="none" rx="4" ry="4" style="stroke:#181818;stroke-width:1.0;"/><line style="stroke:#181818;stroke-width:1.0;" x1="644.5" x2="636.5" y1="207.81" y2="207.81"/></g><!--link e to c7--><g id="link_e_c7"><path codeLine="21" d="M449.55,117 C538.17,117 759.5,117 759.5,117 C759.5,117 759.5,164.47 759.5,196.92 " fill="none" id="e-to-c7" style="stroke:#181818;stroke-width:1.0;"/><line style="stroke:#181818;stroke-width:1.0;" x1="759.5" x2="759.5" y1="200.92" y2="211.92"/><ellipse cx="759.5" cy="200.92" fill="none" rx="4" ry="4" style="stroke:#181818;stroke-width:1.0;"/><line style="stroke:#181818;stroke-width:1.0;" x1="763.5" x2="755.5" y1="207.92" y2="207.92"/></g><!--SRC=[PS_F3e8m30Rm-vvYySu1HKYyclW4ndiT5QPTjumHDVBmoXznnDkN_j8s7n3Pkz4FpPLeRfeTU32ID6DuEfJMXzeAuL45u8fGhYuQgJn-h5b9QAHBOoonKLwxe2qFgfOA0VhDaTP_Lm_M6mYZRc85qXKRvCcos1oK-nhyADkbgDllNHuJjqGde7OgeGfXpzSFH_K6G85o9naC2fVA9EbUmoX9RDTtwrFNzLM-iysSiZbjvvJFgNW3]--></g></svg>