<?xml version="1.0" encoding="us-ascii" standalone="no"?><svg xmlns="http://www.w3.org/2000/svg" xmlns:xlink="http://www.w3.org/1999/xlink" contentStyleType="text/css" height="246px" preserveAspectRatio="none" style="width:431px;height:246px;background:#FFFFFF;" version="1.1" viewBox="0 0 431 246" width="431px" zoomAndPan="magnify"><defs/><g><!--entity p1--><g id="elem_p1"><rect fill="#F1F1F1" height="37.6094" rx="2.5" ry="2.5" style="stroke:#181818;stroke-width:0.5;" width="120" x="7" y="7"/><text fill="#000000" font-family="sans-serif" font-size="14" lengthAdjust="spacing" textLength="100" x="17" y="31.5332">repeatingGroup</text></g><!--entity p2--><g id="elem_p2"><rect fill="#F1F1F1" height="37.6094" rx="2.5" ry="2.5" style="stroke:#181818;stroke-width:0.5;" width="42" x="162" y="7"/><text fill="#000000" font-family="sans-serif" font-size="14" lengthAdjust="spacing" textLength="22" x="172" y="31.5332">key</text></g><!--entity p3--><g id="elem_p3"><rect fill="#F1F1F1" height="37.6094" rx="2.5" ry="2.5" style="stroke:#181818;stroke-width:0.5;" width="186" x="239" y="7"/><text fill="#000000" font-family="sans-serif" font-size="14" lengthAdjust="spacing" textLength="166" x="249" y="31.5332">recordDefinitionReference</text></g><!--entity c1--><g id="elem_c1"><rect fill="#F1F1F1" height="37.6094" rx="2.5" ry="2.5" style="stroke:#181818;stroke-width:0.5;" width="171" x="97.5" y="203"/><text fill="#000000" font-family="sans-serif" font-size="14" lengthAdjust="spacing" textLength="151" x="107.5" y="227.5332">fieldDefinitionReference</text></g><g id="elem_e"><rect fill="#F1F1F1" height="37.6094" style="stroke:#181818;stroke-width:0.5;" width="172" x="97" y="105"/><text fill="#000000" font-family="sans-serif" font-size="14" lengthAdjust="spacing" textLength="158" x="104" y="121.5332">fieldDefinitionReferences</text><line style="stroke:#181818;stroke-width:0.5;" x1="98" x2="268" y1="126.6094" y2="126.6094"/></g><!--link p1 to e--><g id="link_p1_e"><path codeLine="9" d="M112,45.36 C112,62.54 112,79.51 112,96.68 " fill="none" id="p1-to-e" style="stroke:#181818;stroke-width:1.0;"/><line style="stroke:#181818;stroke-width:1.0;" x1="116" x2="108" y1="100.68" y2="100.68"/><line style="stroke:#181818;stroke-width:1.0;" x1="116" x2="108" y1="97.68" y2="97.68"/><line style="stroke:#181818;stroke-width:1.0;" x1="112" x2="112" y1="96.68" y2="104.68"/></g><!--link p2 to e--><g id="link_p2_e"><path codeLine="10" d="M183,45.36 C183,62.54 183,79.51 183,96.68 " fill="none" id="p2-to-e" style="stroke:#181818;stroke-width:1.0;"/><line style="stroke:#181818;stroke-width:1.0;" x1="187" x2="179" y1="100.68" y2="100.68"/><line style="stroke:#181818;stroke-width:1.0;" x1="187" x2="179" y1="97.68" y2="97.68"/><line style="stroke:#181818;stroke-width:1.0;" x1="183" x2="183" y1="96.68" y2="104.68"/></g><!--link p3 to e--><g id="link_p3_e"><path codeLine="11" d="M254,45.36 C254,62.54 254,72.51 254,89.68 " fill="none" id="p3-to-e" style="stroke:#181818;stroke-width:1.0;"/><line style="stroke:#181818;stroke-width:1.0;" x1="254" x2="254" y1="93.68" y2="104.68"/><ellipse cx="254" cy="93.68" fill="none" rx="4" ry="4" style="stroke:#181818;stroke-width:1.0;"/><line style="stroke:#181818;stroke-width:1.0;" x1="258" x2="250" y1="100.68" y2="100.68"/></g><!--link e to c1--><g id="link_e_c1"><path codeLine="12" d="M183,143.36 C183,160.54 183,177.51 183,194.68 " fill="none" id="e-to-c1" style="stroke:#181818;stroke-width:1.0;"/><line style="stroke:#181818;stroke-width:1.0;" x1="183" x2="189" y1="194.68" y2="202.68"/><line style="stroke:#181818;stroke-width:1.0;" x1="183" x2="177" y1="194.68" y2="202.68"/><line style="stroke:#181818;stroke-width:1.0;" x1="183" x2="183" y1="194.68" y2="202.68"/><line style="stroke:#181818;stroke-width:1.0;" x1="187" x2="179" y1="192.68" y2="192.68"/></g><!--SRC=[TSn13e8m48NXVK_Hi6S1NC74lJUezO4ZPQOPQeJ8uIsI65om-_FopRWGv3NGHDoPiIUEJjrW0p7I7655qrsCKVZak0kmXIB2fSpFAizOM3VQMEr1ZtbRw_ypBtexeIMcHC8Nj52mnsQRlMq9uP3woiZraV6n6xyG9bQsB9TbhVfNJIvP2-lqply-]--></g></svg>