<?xml version="1.0" encoding="us-ascii" standalone="no"?><svg xmlns="http://www.w3.org/2000/svg" xmlns:xlink="http://www.w3.org/1999/xlink" contentStyleType="text/css" height="255px" preserveAspectRatio="none" style="width:149px;height:255px;background:#FFFFFF;" version="1.1" viewBox="0 0 149 255" width="149px" zoomAndPan="magnify"><defs/><g><!--entity p1--><g id="elem_p1"><rect fill="#F1F1F1" height="37.6094" rx="2.5" ry="2.5" style="stroke:#181818;stroke-width:0.5;" width="127" x="11" y="7"/><text fill="#000000" font-family="sans-serif" font-size="14" lengthAdjust="spacing" textLength="107" x="21" y="31.5332">recordProcesses</text></g><!--entity c1--><g id="elem_c1"><rect fill="#F1F1F1" height="37.6094" rx="2.5" ry="2.5" style="stroke:#181818;stroke-width:0.5;" width="85" x="32" y="212"/><text fill="#000000" font-family="sans-serif" font-size="14" lengthAdjust="spacing" textLength="65" x="42" y="236.5332">processes</text></g><g id="elem_e"><rect fill="#F1F1F1" height="47.2188" style="stroke:#181818;stroke-width:0.5;" width="135" x="7" y="105"/><text fill="#000000" font-family="sans-serif" font-size="14" lengthAdjust="spacing" textLength="92" x="28.5" y="121.5332">fieldProcesses</text><line style="stroke:#181818;stroke-width:0.5;" x1="8" x2="141" y1="126.6094" y2="126.6094"/><text fill="#000000" font-family="sans-serif" font-size="14" lengthAdjust="spacing" textLength="123" x="13" y="145.1426">definitionReference</text></g><!--link p1 to e--><g id="link_p1_e"><path codeLine="8" d="M74.5,45.28 C74.5,62.21 74.5,68.9 74.5,86.99 " fill="none" id="p1-to-e" style="stroke:#181818;stroke-width:1.0;"/><line style="stroke:#181818;stroke-width:1.0;" x1="74.5" x2="80.5" y1="96.99" y2="104.99"/><line style="stroke:#181818;stroke-width:1.0;" x1="74.5" x2="68.5" y1="96.99" y2="104.99"/><line style="stroke:#181818;stroke-width:1.0;" x1="74.5" x2="74.5" y1="96.99" y2="104.99"/><ellipse cx="74.5" cy="90.99" fill="none" rx="4" ry="4" style="stroke:#181818;stroke-width:1.0;"/></g><!--link e to c1--><g id="link_e_c1"><path codeLine="9" d="M74.5,152.02 C74.5,170.1 74.5,186.78 74.5,203.71 " fill="none" id="e-to-c1" style="stroke:#181818;stroke-width:1.0;"/><line style="stroke:#181818;stroke-width:1.0;" x1="78.5" x2="70.5" y1="207.71" y2="207.71"/><line style="stroke:#181818;stroke-width:1.0;" x1="78.5" x2="70.5" y1="204.71" y2="204.71"/><line style="stroke:#181818;stroke-width:1.0;" x1="74.5" x2="74.5" y1="203.71" y2="211.71"/></g><!--SRC=[NOn13W8X40Jlyue9TmvSVONn1yWswoWxGu14ZVjuYIVrrabLTIp5xfiyH5VgDz4QMzouY68yAzZQk1XHGnfHrm9sSrfRZiqIUaTt73lNy6tK7vO2sVawARiiA7yb27pW1LbKXfYUaD6W2LG3Us-lZ-7zli-ZDm00]--></g></svg>