<?xml version="1.0" encoding="us-ascii" standalone="no"?><svg xmlns="http://www.w3.org/2000/svg" xmlns:xlink="http://www.w3.org/1999/xlink" contentStyleType="text/css" height="255px" preserveAspectRatio="none" style="width:118px;height:255px;background:#FFFFFF;" version="1.1" viewBox="0 0 118 255" width="118px" zoomAndPan="magnify"><defs/><g><!--entity p1--><g id="elem_p1"><rect fill="#F1F1F1" height="37.6094" rx="2.5" ry="2.5" style="stroke:#181818;stroke-width:0.5;" width="105" x="7" y="7"/><text fill="#000000" font-family="sans-serif" font-size="14" lengthAdjust="spacing" textLength="85" x="17" y="31.5332">fieldDefinition</text></g><!--entity c1--><g id="elem_c1"><rect fill="#F1F1F1" height="37.6094" rx="2.5" ry="2.5" style="stroke:#181818;stroke-width:0.5;" width="105" x="7" y="212"/><text fill="#000000" font-family="sans-serif" font-size="14" lengthAdjust="spacing" textLength="85" x="17" y="236.5332">fieldDefinition</text></g><g id="elem_e"><rect fill="#F1F1F1" height="47.2188" style="stroke:#181818;stroke-width:0.5;" width="73" x="23" y="105"/><text fill="#000000" font-family="sans-serif" font-size="14" lengthAdjust="spacing" textLength="59" x="30" y="121.5332">fieldParts</text><line style="stroke:#181818;stroke-width:0.5;" x1="24" x2="95" y1="126.6094" y2="126.6094"/><text fill="#000000" font-family="sans-serif" font-size="14" lengthAdjust="spacing" textLength="35" x="29" y="145.1426">name</text></g><!--link p1 to e--><g id="link_p1_e"><path codeLine="8" d="M59.5,45.28 C59.5,62.21 59.5,71.9 59.5,89.99 " fill="none" id="p1-to-e" style="stroke:#181818;stroke-width:1.0;"/><line style="stroke:#181818;stroke-width:1.0;" x1="59.5" x2="59.5" y1="93.99" y2="104.99"/><ellipse cx="59.5" cy="93.99" fill="none" rx="4" ry="4" style="stroke:#181818;stroke-width:1.0;"/><line style="stroke:#181818;stroke-width:1.0;" x1="63.5" x2="55.5" y1="100.99" y2="100.99"/></g><!--link e to c1--><g id="link_e_c1"><path codeLine="9" d="M59.5,152.02 C59.5,170.1 59.5,186.78 59.5,203.71 " fill="none" id="e-to-c1" style="stroke:#181818;stroke-width:1.0;"/><line style="stroke:#181818;stroke-width:1.0;" x1="59.5" x2="65.5" y1="203.71" y2="211.71"/><line style="stroke:#181818;stroke-width:1.0;" x1="59.5" x2="53.5" y1="203.71" y2="211.71"/><line style="stroke:#181818;stroke-width:1.0;" x1="59.5" x2="59.5" y1="203.71" y2="211.71"/><line style="stroke:#181818;stroke-width:1.0;" x1="63.5" x2="55.5" y1="201.71" y2="201.71"/></g><!--SRC=[XOix3i8m341tdyBgdY4hCmVW2gQuhLl7ZX9BWEZXgIfsrlSXLNyMUOdDq3UnIeqAgXZ7kp9wYyK16ez1DYlZC0dhuygJc8Iu3KWTQ_vNZ1dylXxDJz-eHJyD0-C5ZGf3pPYIxoTAQVySrnS0]--></g></svg>