<?xml version="1.0" encoding="us-ascii" standalone="no"?><svg xmlns="http://www.w3.org/2000/svg" xmlns:xlink="http://www.w3.org/1999/xlink" contentStyleType="text/css" height="148px" preserveAspectRatio="none" style="width:273px;height:148px;background:#FFFFFF;" version="1.1" viewBox="0 0 273 148" width="273px" zoomAndPan="magnify"><defs/><g><!--entity p1--><g id="elem_p1"><rect fill="#F1F1F1" height="37.6094" rx="2.5" ry="2.5" style="stroke:#181818;stroke-width:0.5;" width="120" x="7" y="7"/><text fill="#000000" font-family="sans-serif" font-size="14" lengthAdjust="spacing" textLength="100" x="17" y="31.5332">recordDefinition</text></g><!--entity p2--><g id="elem_p2"><rect fill="#F1F1F1" height="37.6094" rx="2.5" ry="2.5" style="stroke:#181818;stroke-width:0.5;" width="105" x="162.5" y="7"/><text fill="#000000" font-family="sans-serif" font-size="14" lengthAdjust="spacing" textLength="85" x="172.5" y="31.5332">fieldDefinition</text></g><g id="elem_e"><rect fill="#F1F1F1" height="37.6094" style="stroke:#181818;stroke-width:0.5;" width="87" x="97.5" y="105"/><text fill="#000000" font-family="sans-serif" font-size="14" lengthAdjust="spacing" textLength="73" x="104.5" y="121.5332">fixedLength</text><line style="stroke:#181818;stroke-width:0.5;" x1="98.5" x2="183.5" y1="126.6094" y2="126.6094"/></g><!--link p1 to e--><g id="link_p1_e"><path codeLine="7" d="M112.25,45.36 C112.25,62.54 112.25,72.51 112.25,89.68 " fill="none" id="p1-to-e" style="stroke:#181818;stroke-width:1.0;"/><line style="stroke:#181818;stroke-width:1.0;" x1="112.25" x2="112.25" y1="93.68" y2="104.68"/><ellipse cx="112.25" cy="93.68" fill="none" rx="4" ry="4" style="stroke:#181818;stroke-width:1.0;"/><line style="stroke:#181818;stroke-width:1.0;" x1="116.25" x2="108.25" y1="100.68" y2="100.68"/></g><!--link p2 to e--><g id="link_p2_e"><path codeLine="8" d="M173.5,45.36 C173.5,62.54 173.5,72.51 173.5,89.68 " fill="none" id="p2-to-e" style="stroke:#181818;stroke-width:1.0;"/><line style="stroke:#181818;stroke-width:1.0;" x1="173.5" x2="173.5" y1="93.68" y2="104.68"/><ellipse cx="173.5" cy="93.68" fill="none" rx="4" ry="4" style="stroke:#181818;stroke-width:1.0;"/><line style="stroke:#181818;stroke-width:1.0;" x1="177.5" x2="169.5" y1="100.68" y2="100.68"/></g><!--SRC=[PSf12eD0343HVKuHtBlGCtJPIwGrZgan6SQ02ZryjRWGt3tudrHzcMGLIp2FOfaAJQXY75jcz1A30nH-1rbIncgdb-x1lPY4k5L8C-RcklJ2UZjQyDTdVuwySlTaIp7y4qDkiAxzUwWzzGC0]--></g></svg>