<?xml version="1.0" encoding="us-ascii" standalone="no"?><svg xmlns="http://www.w3.org/2000/svg" xmlns:xlink="http://www.w3.org/1999/xlink" contentStyleType="text/css" height="246px" preserveAspectRatio="none" style="width:137px;height:246px;background:#FFFFFF;" version="1.1" viewBox="0 0 137 246" width="137px" zoomAndPan="magnify"><defs/><g><!--entity p1--><g id="elem_p1"><rect fill="#F1F1F1" height="37.6094" rx="2.5" ry="2.5" style="stroke:#181818;stroke-width:0.5;" width="94" x="22" y="7"/><text fill="#000000" font-family="sans-serif" font-size="14" lengthAdjust="spacing" textLength="74" x="32" y="31.5332">flatFileType</text></g><!--entity c1--><g id="elem_c1"><rect fill="#F1F1F1" height="37.6094" rx="2.5" ry="2.5" style="stroke:#181818;stroke-width:0.5;" width="124" x="7" y="203"/><text fill="#000000" font-family="sans-serif" font-size="14" lengthAdjust="spacing" textLength="104" x="17" y="227.5332">recordSeparator</text></g><g id="elem_e"><rect fill="#F1F1F1" height="37.6094" style="stroke:#181818;stroke-width:0.5;" width="111" x="13.5" y="105"/><text fill="#000000" font-family="sans-serif" font-size="14" lengthAdjust="spacing" textLength="97" x="20.5" y="121.5332">fixedFileFormat</text><line style="stroke:#181818;stroke-width:0.5;" x1="14.5" x2="123.5" y1="126.6094" y2="126.6094"/></g><!--link p1 to e--><g id="link_p1_e"><path codeLine="7" d="M69,45.36 C69,62.54 69,79.51 69,96.68 " fill="none" id="p1-to-e" style="stroke:#181818;stroke-width:1.0;"/><line style="stroke:#181818;stroke-width:1.0;" x1="73" x2="65" y1="100.68" y2="100.68"/><line style="stroke:#181818;stroke-width:1.0;" x1="73" x2="65" y1="97.68" y2="97.68"/><line style="stroke:#181818;stroke-width:1.0;" x1="69" x2="69" y1="96.68" y2="104.68"/></g><!--link e to c1--><g id="link_e_c1"><path codeLine="8" d="M69,143.36 C69,160.54 69,170.51 69,187.68 " fill="none" id="e-to-c1" style="stroke:#181818;stroke-width:1.0;"/><line style="stroke:#181818;stroke-width:1.0;" x1="69" x2="69" y1="191.68" y2="202.68"/><ellipse cx="69" cy="191.68" fill="none" rx="4" ry="4" style="stroke:#181818;stroke-width:1.0;"/><line style="stroke:#181818;stroke-width:1.0;" x1="73" x2="65" y1="198.68" y2="198.68"/></g><!--SRC=[JOn13eCm30JlUON5dKC-mGVQ3xZWKhTE71bBfL8UZ-7KsqYpioYYty8xrpLj7wuD3Gi8L_9V8r3pbwPaD3lMLGY6fw1FB7GFFG1kqFA_3bHRRdJ-kDgrc7FInpisKVDEovbFQWNzqfHQXd7iFOW2j4Tn0000]--></g></svg>