<?xml version="1.0" encoding="us-ascii" standalone="no"?><svg xmlns="http://www.w3.org/2000/svg" xmlns:xlink="http://www.w3.org/1999/xlink" contentStyleType="text/css" height="273px" preserveAspectRatio="none" style="width:149px;height:273px;background:#FFFFFF;" version="1.1" viewBox="0 0 149 273" width="149px" zoomAndPan="magnify"><defs/><g><!--entity p1--><g id="elem_p1"><rect fill="#F1F1F1" height="37.6094" rx="2.5" ry="2.5" style="stroke:#181818;stroke-width:0.5;" width="69" x="40" y="7"/><text fill="#000000" font-family="sans-serif" font-size="14" lengthAdjust="spacing" textLength="49" x="50" y="31.5332">flatFiles</text></g><!--entity c1--><g id="elem_c1"><rect fill="#F1F1F1" height="37.6094" rx="2.5" ry="2.5" style="stroke:#181818;stroke-width:0.5;" width="84" x="32.5" y="230"/><text fill="#000000" font-family="sans-serif" font-size="14" lengthAdjust="spacing" textLength="64" x="42.5" y="254.5332">properties</text></g><g id="elem_e"><rect fill="#F1F1F1" height="64.8281" style="stroke:#181818;stroke-width:0.5;" width="135" x="7" y="105"/><text fill="#000000" font-family="sans-serif" font-size="14" lengthAdjust="spacing" textLength="42" x="53.5" y="121.5332">flatFile</text><line style="stroke:#181818;stroke-width:0.5;" x1="8" x2="141" y1="126.6094" y2="126.6094"/><text fill="#000000" font-family="sans-serif" font-size="14" lengthAdjust="spacing" textLength="35" x="13" y="145.1426">name</text><text fill="#000000" font-family="sans-serif" font-size="14" lengthAdjust="spacing" textLength="123" x="13" y="162.752">definitionReference</text></g><!--link p1 to e--><g id="link_p1_e"><path codeLine="9" d="M74.5,45.17 C74.5,61.48 74.5,77.28 74.5,96.62 " fill="none" id="p1-to-e" style="stroke:#181818;stroke-width:1.0;"/><line style="stroke:#181818;stroke-width:1.0;" x1="74.5" x2="80.5" y1="96.62" y2="104.62"/><line style="stroke:#181818;stroke-width:1.0;" x1="74.5" x2="68.5" y1="96.62" y2="104.62"/><line style="stroke:#181818;stroke-width:1.0;" x1="74.5" x2="74.5" y1="96.62" y2="104.62"/><line style="stroke:#181818;stroke-width:1.0;" x1="78.5" x2="70.5" y1="94.62" y2="94.62"/></g><!--link e to c1--><g id="link_e_c1"><path codeLine="10" d="M74.5,170.05 C74.5,189.46 74.5,198.44 74.5,214.85 " fill="none" id="e-to-c1" style="stroke:#181818;stroke-width:1.0;"/><line style="stroke:#181818;stroke-width:1.0;" x1="74.5" x2="74.5" y1="218.85" y2="229.85"/><ellipse cx="74.5" cy="218.85" fill="none" rx="4" ry="4" style="stroke:#181818;stroke-width:1.0;"/><line style="stroke:#181818;stroke-width:1.0;" x1="78.5" x2="70.5" y1="225.85" y2="225.85"/></g><!--SRC=[JOmn3i8m40Hxl-AKteLR7i03-C5Xrk70lhDiIu38unC59EXMExFBETkZo5DqTlqkMhbneIoAyQeWQ-DgpZN4mJfdq9GoZwDaz8cuKmt_h3QhQ4E-C0Pdvzk6VwkzXmCTIBbymWL9L8QOdf3Ge16k1l9-UU-gzxPiNoi0]--></g></svg>