<?xml version="1.0" encoding="us-ascii" standalone="no"?><svg xmlns="http://www.w3.org/2000/svg" xmlns:xlink="http://www.w3.org/1999/xlink" contentStyleType="text/css" height="273px" preserveAspectRatio="none" style="width:729px;height:273px;background:#FFFFFF;" version="1.1" viewBox="0 0 729 273" width="729px" zoomAndPan="magnify"><defs/><g><!--entity p1--><g id="elem_p1"><rect fill="#F1F1F1" height="37.6094" rx="2.5" ry="2.5" style="stroke:#181818;stroke-width:0.5;" width="128" x="221.5" y="7"/><text fill="#000000" font-family="sans-serif" font-size="14" lengthAdjust="spacing" textLength="108" x="231.5" y="31.5332">flatFileDefinitions</text></g><!--entity c1--><g id="elem_c1"><rect fill="#F1F1F1" height="37.6094" rx="2.5" ry="2.5" style="stroke:#181818;stroke-width:0.5;" width="89" x="7" y="230"/><text fill="#000000" font-family="sans-serif" font-size="14" lengthAdjust="spacing" textLength="69" x="17" y="254.5332">description</text></g><!--entity c2--><g id="elem_c2"><rect fill="#F1F1F1" height="37.6094" rx="2.5" ry="2.5" style="stroke:#181818;stroke-width:0.5;" width="84" x="131.5" y="230"/><text fill="#000000" font-family="sans-serif" font-size="14" lengthAdjust="spacing" textLength="64" x="141.5" y="254.5332">properties</text></g><!--entity c3--><g id="elem_c3"><rect fill="#F1F1F1" height="37.6094" rx="2.5" ry="2.5" style="stroke:#181818;stroke-width:0.5;" width="70" x="250.5" y="230"/><text fill="#000000" font-family="sans-serif" font-size="14" lengthAdjust="spacing" textLength="50" x="260.5" y="254.5332">external</text></g><!--entity c4--><g id="elem_c4"><rect fill="#F1F1F1" height="37.6094" rx="2.5" ry="2.5" style="stroke:#181818;stroke-width:0.5;" width="205" x="356" y="230"/><text fill="#000000" font-family="sans-serif" font-size="14" lengthAdjust="spacing" textLength="185" x="366" y="254.5332">recordDefinitionFieldIdentifier</text></g><!--entity c5--><g id="elem_c5"><rect fill="#F1F1F1" height="37.6094" rx="2.5" ry="2.5" style="stroke:#181818;stroke-width:0.5;" width="127" x="596" y="230"/><text fill="#000000" font-family="sans-serif" font-size="14" lengthAdjust="spacing" textLength="107" x="606" y="254.5332">recordDefinitions</text></g><g id="elem_e"><rect fill="#F1F1F1" height="64.8281" style="stroke:#181818;stroke-width:0.5;" width="115" x="228" y="105"/><text fill="#000000" font-family="sans-serif" font-size="14" lengthAdjust="spacing" textLength="101" x="235" y="121.5332">flatFileDefinition</text><line style="stroke:#181818;stroke-width:0.5;" x1="229" x2="342" y1="126.6094" y2="126.6094"/><text fill="#000000" font-family="sans-serif" font-size="14" lengthAdjust="spacing" textLength="35" x="234" y="145.1426">name</text><text fill="#000000" font-family="sans-serif" font-size="14" lengthAdjust="spacing" textLength="93" x="234" y="162.752">typeReference</text></g><!--link p1 to e--><g id="link_p1_e"><path codeLine="13" d="M285.5,45.17 C285.5,61.48 285.5,77.28 285.5,96.62 " fill="none" id="p1-to-e" style="stroke:#181818;stroke-width:1.0;"/><line style="stroke:#181818;stroke-width:1.0;" x1="285.5" x2="291.5" y1="96.62" y2="104.62"/><line style="stroke:#181818;stroke-width:1.0;" x1="285.5" x2="279.5" y1="96.62" y2="104.62"/><line style="stroke:#181818;stroke-width:1.0;" x1="285.5" x2="285.5" y1="96.62" y2="104.62"/><line style="stroke:#181818;stroke-width:1.0;" x1="289.5" x2="281.5" y1="94.62" y2="94.62"/></g><!--link e to c1--><g id="link_e_c1"><path codeLine="14" d="M227.96,138 C158.67,138 51.5,138 51.5,138 C51.5,138 51.5,183.18 51.5,214.92 " fill="none" id="e-to-c1" style="stroke:#181818;stroke-width:1.0;"/><line style="stroke:#181818;stroke-width:1.0;" x1="51.5" x2="51.5" y1="218.92" y2="229.92"/><ellipse cx="51.5" cy="218.92" fill="none" rx="4" ry="4" style="stroke:#181818;stroke-width:1.0;"/><line style="stroke:#181818;stroke-width:1.0;" x1="55.5" x2="47.5" y1="225.92" y2="225.92"/></g><!--link e to c2--><g id="link_e_c2"><path codeLine="15" d="M239.25,170.05 C239.25,202.96 239.25,249 239.25,249 C239.25,249 243.4,249 230.51,249 " fill="none" id="e-to-c2" style="stroke:#181818;stroke-width:1.0;"/><line style="stroke:#181818;stroke-width:1.0;" x1="226.51" x2="215.51" y1="249" y2="249"/><ellipse cx="226.51" cy="249" fill="none" rx="4" ry="4" style="stroke:#181818;stroke-width:1.0;"/><line style="stroke:#181818;stroke-width:1.0;" x1="219.51" x2="219.51" y1="253" y2="245"/></g><!--link e to c3--><g id="link_e_c3"><path codeLine="16" d="M285.5,170.05 C285.5,189.46 285.5,198.44 285.5,214.85 " fill="none" id="e-to-c3" style="stroke:#181818;stroke-width:1.0;"/><line style="stroke:#181818;stroke-width:1.0;" x1="285.5" x2="285.5" y1="218.85" y2="229.85"/><ellipse cx="285.5" cy="218.85" fill="none" rx="4" ry="4" style="stroke:#181818;stroke-width:1.0;"/><line style="stroke:#181818;stroke-width:1.0;" x1="289.5" x2="281.5" y1="225.85" y2="225.85"/></g><!--link e to c4--><g id="link_e_c4"><path codeLine="17" d="M331.75,170.05 C331.75,202.96 331.75,249 331.75,249 C331.75,249 326.64,249 340.89,249 " fill="none" id="e-to-c4" style="stroke:#181818;stroke-width:1.0;"/><line style="stroke:#181818;stroke-width:1.0;" x1="344.89" x2="355.89" y1="249" y2="249"/><ellipse cx="344.89" cy="249" fill="none" rx="4" ry="4" style="stroke:#181818;stroke-width:1.0;"/><line style="stroke:#181818;stroke-width:1.0;" x1="351.89" x2="351.89" y1="245" y2="253"/></g><!--link e to c5--><g id="link_e_c5"><path codeLine="18" d="M343.12,138 C448.03,138 659.5,138 659.5,138 C659.5,138 659.5,190.18 659.5,221.92 " fill="none" id="e-to-c5" style="stroke:#181818;stroke-width:1.0;"/><line style="stroke:#181818;stroke-width:1.0;" x1="663.5" x2="655.5" y1="225.92" y2="225.92"/><line style="stroke:#181818;stroke-width:1.0;" x1="663.5" x2="655.5" y1="222.92" y2="222.92"/><line style="stroke:#181818;stroke-width:1.0;" x1="659.5" x2="659.5" y1="221.92" y2="229.92"/></g><!--SRC=[VP3D2i8m48JlUOhWlOTgU_4iWbVV8ARJkffkmZPWnJwy_T5QGRnzyCqmx1hd_AscbhXIpPKu636rTiI8zm3j9PwzKW8R3LSEUbKw4_Vai4D9J94yDojj6XtIPQf0OuN2e4ThlsmG7o2HC5NjUYdHHWWRDwdDKlNefVWixmckE1JWI2L1faRsh_4Qp9K_NVhKhtF611JqLhEf9nX-SKG90LkeaEeawHvZA4byDrptflLCcvcoaRgUyYS0]--></g></svg>