<?xml version="1.0" encoding="us-ascii" standalone="no"?><svg xmlns="http://www.w3.org/2000/svg" xmlns:xlink="http://www.w3.org/1999/xlink" contentStyleType="text/css" height="255px" preserveAspectRatio="none" style="width:206px;height:255px;background:#FFFFFF;" version="1.1" viewBox="0 0 206 255" width="206px" zoomAndPan="magnify"><defs/><g><!--entity p1--><g id="elem_p1"><rect fill="#F1F1F1" height="37.6094" rx="2.5" ry="2.5" style="stroke:#181818;stroke-width:0.5;" width="88" x="59.5" y="7"/><text fill="#000000" font-family="sans-serif" font-size="14" lengthAdjust="spacing" textLength="68" x="69.5" y="31.5332">foreignKey</text></g><!--entity c1--><g id="elem_c1"><rect fill="#F1F1F1" height="37.6094" rx="2.5" ry="2.5" style="stroke:#181818;stroke-width:0.5;" width="193" x="7" y="212"/><text fill="#000000" font-family="sans-serif" font-size="14" lengthAdjust="spacing" textLength="173" x="17" y="236.5332">recordDefinitionReferences</text></g><g id="elem_e"><rect fill="#F1F1F1" height="47.2188" style="stroke:#181818;stroke-width:0.5;" width="181" x="13" y="105"/><text fill="#000000" font-family="sans-serif" font-size="14" lengthAdjust="spacing" textLength="167" x="20" y="121.5332">flatFileDefinitionReference</text><line style="stroke:#181818;stroke-width:0.5;" x1="14" x2="193" y1="126.6094" y2="126.6094"/><text fill="#000000" font-family="sans-serif" font-size="14" lengthAdjust="spacing" textLength="35" x="19" y="145.1426">name</text></g><!--link p1 to e--><g id="link_p1_e"><path codeLine="8" d="M103.5,45.28 C103.5,62.21 103.5,78.9 103.5,96.99 " fill="none" id="p1-to-e" style="stroke:#181818;stroke-width:1.0;"/><line style="stroke:#181818;stroke-width:1.0;" x1="107.5" x2="99.5" y1="100.99" y2="100.99"/><line style="stroke:#181818;stroke-width:1.0;" x1="107.5" x2="99.5" y1="97.99" y2="97.99"/><line style="stroke:#181818;stroke-width:1.0;" x1="103.5" x2="103.5" y1="96.99" y2="104.99"/></g><!--link e to c1--><g id="link_e_c1"><path codeLine="9" d="M103.5,152.02 C103.5,170.1 103.5,179.78 103.5,196.71 " fill="none" id="e-to-c1" style="stroke:#181818;stroke-width:1.0;"/><line style="stroke:#181818;stroke-width:1.0;" x1="103.5" x2="103.5" y1="200.71" y2="211.71"/><ellipse cx="103.5" cy="200.71" fill="none" rx="4" ry="4" style="stroke:#181818;stroke-width:1.0;"/><line style="stroke:#181818;stroke-width:1.0;" x1="107.5" x2="99.5" y1="207.71" y2="207.71"/></g><!--SRC=[RSon3i8m30JGFLzXTS_GbHcniF479boA8RMZ919KoiStwiJ0ThfxEax9FgjyHHTNtwAP2w-KHD6s3BBIdkPSGMYiIm9DqGfaqIksYRXIdd_74QqypeYYqiJqXeW23QW73hEp-slmSPEuNIJXZpqe7EX4oYjSdidxte_AU-lZPWS0]--></g></svg>