<?xml version="1.0" encoding="us-ascii" standalone="no"?><svg xmlns="http://www.w3.org/2000/svg" xmlns:xlink="http://www.w3.org/1999/xlink" contentStyleType="text/css" height="246px" preserveAspectRatio="none" style="width:135px;height:246px;background:#FFFFFF;" version="1.1" viewBox="0 0 135 246" width="135px" zoomAndPan="magnify"><defs/><g><!--entity p1--><g id="elem_p1"><rect fill="#F1F1F1" height="37.6094" rx="2.5" ry="2.5" style="stroke:#181818;stroke-width:0.5;" width="69" x="33.5" y="7"/><text fill="#000000" font-family="sans-serif" font-size="14" lengthAdjust="spacing" textLength="49" x="43.5" y="31.5332">flatFiles</text></g><!--entity c1--><g id="elem_c1"><rect fill="#F1F1F1" height="37.6094" rx="2.5" ry="2.5" style="stroke:#181818;stroke-width:0.5;" width="121" x="7.5" y="203"/><text fill="#000000" font-family="sans-serif" font-size="14" lengthAdjust="spacing" textLength="101" x="17.5" y="227.5332">flatFileDefinition</text></g><g id="elem_e"><rect fill="#F1F1F1" height="37.6094" style="stroke:#181818;stroke-width:0.5;" width="122" x="7" y="105"/><text fill="#000000" font-family="sans-serif" font-size="14" lengthAdjust="spacing" textLength="108" x="14" y="121.5332">flatFileDefinitions</text><line style="stroke:#181818;stroke-width:0.5;" x1="8" x2="128" y1="126.6094" y2="126.6094"/></g><!--link p1 to e--><g id="link_p1_e"><path codeLine="7" d="M68,45.36 C68,62.54 68,79.51 68,96.68 " fill="none" id="p1-to-e" style="stroke:#181818;stroke-width:1.0;"/><line style="stroke:#181818;stroke-width:1.0;" x1="72" x2="64" y1="100.68" y2="100.68"/><line style="stroke:#181818;stroke-width:1.0;" x1="72" x2="64" y1="97.68" y2="97.68"/><line style="stroke:#181818;stroke-width:1.0;" x1="68" x2="68" y1="96.68" y2="104.68"/></g><!--link e to c1--><g id="link_e_c1"><path codeLine="8" d="M68,143.36 C68,160.54 68,177.51 68,194.68 " fill="none" id="e-to-c1" style="stroke:#181818;stroke-width:1.0;"/><line style="stroke:#181818;stroke-width:1.0;" x1="68" x2="74" y1="194.68" y2="202.68"/><line style="stroke:#181818;stroke-width:1.0;" x1="68" x2="62" y1="194.68" y2="202.68"/><line style="stroke:#181818;stroke-width:1.0;" x1="68" x2="68" y1="194.68" y2="202.68"/><line style="stroke:#181818;stroke-width:1.0;" x1="72" x2="64" y1="192.68" y2="192.68"/></g><!--SRC=[ROmn3eD030HxlyAYfxW_HFc7GGOSZ7swiqGYU7mkeQKRQMUML7tVv2qsGrt5CXNQKCKuFfdHIomEK7WCibaPkqafdg9SEwIAETrj3vx49CJjBuq9V7WrxSwuVXXomhu_pqRyWwDLNm00]--></g></svg>