<?xml version="1.0" encoding="us-ascii" standalone="no"?><svg xmlns="http://www.w3.org/2000/svg" xmlns:xlink="http://www.w3.org/1999/xlink" contentStyleType="text/css" height="246px" preserveAspectRatio="none" style="width:774px;height:246px;background:#FFFFFF;" version="1.1" viewBox="0 0 774 246" width="774px" zoomAndPan="magnify"><defs/><g><!--entity p1--><g id="elem_p1"><rect fill="#F1F1F1" height="37.6094" rx="2.5" ry="2.5" style="stroke:#181818;stroke-width:0.5;" width="67" x="354.5" y="7"/><text fill="#000000" font-family="sans-serif" font-size="14" lengthAdjust="spacing" textLength="47" x="364.5" y="31.5332">dataset</text></g><!--entity c1--><g id="elem_c1"><rect fill="#F1F1F1" height="37.6094" rx="2.5" ry="2.5" style="stroke:#181818;stroke-width:0.5;" width="62" x="7" y="203"/><text fill="#000000" font-family="sans-serif" font-size="14" lengthAdjust="spacing" textLength="42" x="17" y="227.5332">flatFile</text></g><!--entity c2--><g id="elem_c2"><rect fill="#F1F1F1" height="37.6094" rx="2.5" ry="2.5" style="stroke:#181818;stroke-width:0.5;" width="128" x="104" y="203"/><text fill="#000000" font-family="sans-serif" font-size="14" lengthAdjust="spacing" textLength="108" x="114" y="227.5332">flatFileDefinitions</text></g><!--entity c3--><g id="elem_c3"><rect fill="#F1F1F1" height="37.6094" rx="2.5" ry="2.5" style="stroke:#181818;stroke-width:0.5;" width="115" x="267.5" y="203"/><text fill="#000000" font-family="sans-serif" font-size="14" lengthAdjust="spacing" textLength="95" x="277.5" y="227.5332">structureTypes</text></g><!--entity c4--><g id="elem_c4"><rect fill="#F1F1F1" height="37.6094" rx="2.5" ry="2.5" style="stroke:#181818;stroke-width:0.5;" width="67" x="417.5" y="203"/><text fill="#000000" font-family="sans-serif" font-size="14" lengthAdjust="spacing" textLength="47" x="427.5" y="227.5332">queries</text></g><!--entity c5--><g id="elem_c5"><rect fill="#F1F1F1" height="37.6094" rx="2.5" ry="2.5" style="stroke:#181818;stroke-width:0.5;" width="85" x="519.5" y="203"/><text fill="#000000" font-family="sans-serif" font-size="14" lengthAdjust="spacing" textLength="65" x="529.5" y="227.5332">processes</text></g><!--entity c6--><g id="elem_c6"><rect fill="#F1F1F1" height="37.6094" rx="2.5" ry="2.5" style="stroke:#181818;stroke-width:0.5;" width="128" x="640" y="203"/><text fill="#000000" font-family="sans-serif" font-size="14" lengthAdjust="spacing" textLength="108" x="650" y="227.5332">flatFileProcesses</text></g><g id="elem_e"><rect fill="#F1F1F1" height="37.6094" style="stroke:#181818;stroke-width:0.5;" width="63" x="356.5" y="105"/><text fill="#000000" font-family="sans-serif" font-size="14" lengthAdjust="spacing" textLength="49" x="363.5" y="121.5332">flatFiles</text><line style="stroke:#181818;stroke-width:0.5;" x1="357.5" x2="418.5" y1="126.6094" y2="126.6094"/></g><!--link p1 to e--><g id="link_p1_e"><path codeLine="12" d="M388,45.36 C388,62.54 388,72.51 388,89.68 " fill="none" id="p1-to-e" style="stroke:#181818;stroke-width:1.0;"/><line style="stroke:#181818;stroke-width:1.0;" x1="388" x2="388" y1="93.68" y2="104.68"/><ellipse cx="388" cy="93.68" fill="none" rx="4" ry="4" style="stroke:#181818;stroke-width:1.0;"/><line style="stroke:#181818;stroke-width:1.0;" x1="392" x2="384" y1="100.68" y2="100.68"/></g><!--link e to c1--><g id="link_e_c1"><path codeLine="13" d="M356.32,118 C270.17,118 38,118 38,118 C38,118 38,164.9 38,194.92 " fill="none" id="e-to-c1" style="stroke:#181818;stroke-width:1.0;"/><line style="stroke:#181818;stroke-width:1.0;" x1="38" x2="44" y1="194.92" y2="202.92"/><line style="stroke:#181818;stroke-width:1.0;" x1="38" x2="32" y1="194.92" y2="202.92"/><line style="stroke:#181818;stroke-width:1.0;" x1="38" x2="38" y1="194.92" y2="202.92"/><line style="stroke:#181818;stroke-width:1.0;" x1="42" x2="34" y1="192.92" y2="192.92"/></g><!--link e to c2--><g id="link_e_c2"><path codeLine="14" d="M356.48,131 C295.65,131 168,131 168,131 C168,131 168,167.99 168,194.7 " fill="none" id="e-to-c2" style="stroke:#181818;stroke-width:1.0;"/><line style="stroke:#181818;stroke-width:1.0;" x1="172" x2="164" y1="198.7" y2="198.7"/><line style="stroke:#181818;stroke-width:1.0;" x1="172" x2="164" y1="195.7" y2="195.7"/><line style="stroke:#181818;stroke-width:1.0;" x1="168" x2="168" y1="194.7" y2="202.7"/></g><!--link e to c3--><g id="link_e_c3"><path codeLine="15" d="M369.5,143.36 C369.5,160.54 369.5,177.51 369.5,194.68 " fill="none" id="e-to-c3" style="stroke:#181818;stroke-width:1.0;"/><line style="stroke:#181818;stroke-width:1.0;" x1="373.5" x2="365.5" y1="198.68" y2="198.68"/><line style="stroke:#181818;stroke-width:1.0;" x1="373.5" x2="365.5" y1="195.68" y2="195.68"/><line style="stroke:#181818;stroke-width:1.0;" x1="369.5" x2="369.5" y1="194.68" y2="202.68"/></g><!--link e to c4--><g id="link_e_c4"><path codeLine="16" d="M400,143.36 C400,171.92 400,222 400,222 C400,222 392.78,222 402.27,222 " fill="none" id="e-to-c4" style="stroke:#181818;stroke-width:1.0;"/><line style="stroke:#181818;stroke-width:1.0;" x1="406.27" x2="417.27" y1="222" y2="222"/><ellipse cx="406.27" cy="222" fill="none" rx="4" ry="4" style="stroke:#181818;stroke-width:1.0;"/><line style="stroke:#181818;stroke-width:1.0;" x1="413.27" x2="413.27" y1="218" y2="226"/></g><!--link e to c5--><g id="link_e_c5"><path codeLine="17" d="M419.51,131 C469.65,131 562,131 562,131 C562,131 562,160.99 562,187.7 " fill="none" id="e-to-c5" style="stroke:#181818;stroke-width:1.0;"/><line style="stroke:#181818;stroke-width:1.0;" x1="562" x2="562" y1="191.7" y2="202.7"/><ellipse cx="562" cy="191.7" fill="none" rx="4" ry="4" style="stroke:#181818;stroke-width:1.0;"/><line style="stroke:#181818;stroke-width:1.0;" x1="566" x2="558" y1="198.7" y2="198.7"/></g><!--link e to c6--><g id="link_e_c6"><path codeLine="18" d="M419.75,118 C499.88,118 704,118 704,118 C704,118 704,154.9 704,184.92 " fill="none" id="e-to-c6" style="stroke:#181818;stroke-width:1.0;"/><line style="stroke:#181818;stroke-width:1.0;" x1="704" x2="710" y1="194.92" y2="202.92"/><line style="stroke:#181818;stroke-width:1.0;" x1="704" x2="698" y1="194.92" y2="202.92"/><line style="stroke:#181818;stroke-width:1.0;" x1="704" x2="704" y1="194.92" y2="202.92"/><ellipse cx="704" cy="188.92" fill="none" rx="4" ry="4" style="stroke:#181818;stroke-width:1.0;"/></g><!--SRC=[RO_13e8m343l-ug5EmT4-0BZsOC_K6V1wjZcLg96Fju1BcB2xINlDMr1Q_lew4cc5U56ne67Jceoo2-7qdg-M24yAWRJQfJP6HW2SYOXI5SiJQE1zwHnKcfLxR0XGqpMXBdQBAl0lbVSUpp6rT-WN0Rt7ZqbirqQvwt249AhrfOV_fjQsDCrLhzW5YXS8VFS3f4mml0Udvbe60zEL4uKitX9ecgcE55_0000]--></g></svg>