<?xml version="1.0" encoding="us-ascii" standalone="no"?><svg xmlns="http://www.w3.org/2000/svg" xmlns:xlink="http://www.w3.org/1999/xlink" contentStyleType="text/css" height="255px" preserveAspectRatio="none" style="width:260px;height:255px;background:#FFFFFF;" version="1.1" viewBox="0 0 260 255" width="260px" zoomAndPan="magnify"><defs/><g><!--entity p1--><g id="elem_p1"><rect fill="#F1F1F1" height="37.6094" rx="2.5" ry="2.5" style="stroke:#181818;stroke-width:0.5;" width="69" x="85" y="7"/><text fill="#000000" font-family="sans-serif" font-size="14" lengthAdjust="spacing" textLength="49" x="95" y="31.5332">flatFiles</text></g><!--entity c1--><g id="elem_c1"><rect fill="#F1F1F1" height="37.6094" rx="2.5" ry="2.5" style="stroke:#181818;stroke-width:0.5;" width="85" x="7" y="212"/><text fill="#000000" font-family="sans-serif" font-size="14" lengthAdjust="spacing" textLength="65" x="17" y="236.5332">processes</text></g><!--entity c2--><g id="elem_c2"><rect fill="#F1F1F1" height="37.6094" rx="2.5" ry="2.5" style="stroke:#181818;stroke-width:0.5;" width="127" x="127" y="212"/><text fill="#000000" font-family="sans-serif" font-size="14" lengthAdjust="spacing" textLength="107" x="137" y="236.5332">recordProcesses</text></g><g id="elem_e"><rect fill="#F1F1F1" height="47.2188" style="stroke:#181818;stroke-width:0.5;" width="122" x="58.5" y="105"/><text fill="#000000" font-family="sans-serif" font-size="14" lengthAdjust="spacing" textLength="108" x="65.5" y="121.5332">flatFileProcesses</text><line style="stroke:#181818;stroke-width:0.5;" x1="59.5" x2="179.5" y1="126.6094" y2="126.6094"/><text fill="#000000" font-family="sans-serif" font-size="14" lengthAdjust="spacing" textLength="108" x="64.5" y="145.1426">flatFileReference</text></g><!--link p1 to e--><g id="link_p1_e"><path codeLine="9" d="M119.5,45.28 C119.5,62.21 119.5,68.9 119.5,86.99 " fill="none" id="p1-to-e" style="stroke:#181818;stroke-width:1.0;"/><line style="stroke:#181818;stroke-width:1.0;" x1="119.5" x2="125.5" y1="96.99" y2="104.99"/><line style="stroke:#181818;stroke-width:1.0;" x1="119.5" x2="113.5" y1="96.99" y2="104.99"/><line style="stroke:#181818;stroke-width:1.0;" x1="119.5" x2="119.5" y1="96.99" y2="104.99"/><ellipse cx="119.5" cy="90.99" fill="none" rx="4" ry="4" style="stroke:#181818;stroke-width:1.0;"/></g><!--link e to c1--><g id="link_e_c1"><path codeLine="10" d="M75.25,152.02 C75.25,170.1 75.25,179.78 75.25,196.71 " fill="none" id="e-to-c1" style="stroke:#181818;stroke-width:1.0;"/><line style="stroke:#181818;stroke-width:1.0;" x1="75.25" x2="75.25" y1="200.71" y2="211.71"/><ellipse cx="75.25" cy="200.71" fill="none" rx="4" ry="4" style="stroke:#181818;stroke-width:1.0;"/><line style="stroke:#181818;stroke-width:1.0;" x1="79.25" x2="71.25" y1="207.71" y2="207.71"/></g><!--link e to c2--><g id="link_e_c2"><path codeLine="11" d="M153.75,152.02 C153.75,170.1 153.75,176.78 153.75,193.71 " fill="none" id="e-to-c2" style="stroke:#181818;stroke-width:1.0;"/><line style="stroke:#181818;stroke-width:1.0;" x1="153.75" x2="159.75" y1="203.71" y2="211.71"/><line style="stroke:#181818;stroke-width:1.0;" x1="153.75" x2="147.75" y1="203.71" y2="211.71"/><line style="stroke:#181818;stroke-width:1.0;" x1="153.75" x2="153.75" y1="203.71" y2="211.71"/><ellipse cx="153.75" cy="197.71" fill="none" rx="4" ry="4" style="stroke:#181818;stroke-width:1.0;"/></g><!--SRC=[LOqx3i8m44JxFSKgVOgav03KY1iOCmc6ZTTQMm84XyVy1Ev6yvvcd8YUbt09SQPy2Z4vSmjBY2ZN15Oh1oKo-EBYBE1k4bVMGP0xTfdJyC-IgKVE7-ORLgFQVjCQ8-dkM9tVR2k0m2l-iYqc6A87fO7xNcylNiFz-OLtvSS7]--></g></svg>