<?xml version="1.0" encoding="us-ascii" standalone="no"?><svg xmlns="http://www.w3.org/2000/svg" xmlns:xlink="http://www.w3.org/1999/xlink" contentStyleType="text/css" height="246px" preserveAspectRatio="none" style="width:334px;height:246px;background:#FFFFFF;" version="1.1" viewBox="0 0 334 246" width="334px" zoomAndPan="magnify"><defs/><g><!--entity p1--><g id="elem_p1"><rect fill="#F1F1F1" height="37.6094" rx="2.5" ry="2.5" style="stroke:#181818;stroke-width:0.5;" width="42" x="168.5" y="7"/><text fill="#000000" font-family="sans-serif" font-size="14" lengthAdjust="spacing" textLength="22" x="178.5" y="31.5332">key</text></g><!--entity c1--><g id="elem_c1"><rect fill="#F1F1F1" height="37.6094" rx="2.5" ry="2.5" style="stroke:#181818;stroke-width:0.5;" width="187" x="7" y="203"/><text fill="#000000" font-family="sans-serif" font-size="14" lengthAdjust="spacing" textLength="167" x="17" y="227.5332">flatFileDefinitionReference</text></g><!--entity c2--><g id="elem_c2"><rect fill="#F1F1F1" height="37.6094" rx="2.5" ry="2.5" style="stroke:#181818;stroke-width:0.5;" width="99" x="229" y="203"/><text fill="#000000" font-family="sans-serif" font-size="14" lengthAdjust="spacing" textLength="79" x="239" y="227.5332">relationType</text></g><g id="elem_e"><rect fill="#F1F1F1" height="37.6094" style="stroke:#181818;stroke-width:0.5;" width="82" x="148.5" y="105"/><text fill="#000000" font-family="sans-serif" font-size="14" lengthAdjust="spacing" textLength="68" x="155.5" y="121.5332">foreignKey</text><line style="stroke:#181818;stroke-width:0.5;" x1="149.5" x2="229.5" y1="126.6094" y2="126.6094"/></g><!--link p1 to e--><g id="link_p1_e"><path codeLine="8" d="M189.5,45.36 C189.5,62.54 189.5,79.51 189.5,96.68 " fill="none" id="p1-to-e" style="stroke:#181818;stroke-width:1.0;"/><line style="stroke:#181818;stroke-width:1.0;" x1="193.5" x2="185.5" y1="100.68" y2="100.68"/><line style="stroke:#181818;stroke-width:1.0;" x1="193.5" x2="185.5" y1="97.68" y2="97.68"/><line style="stroke:#181818;stroke-width:1.0;" x1="189.5" x2="189.5" y1="96.68" y2="104.68"/></g><!--link e to c1--><g id="link_e_c1"><path codeLine="9" d="M171.25,143.36 C171.25,160.54 171.25,177.51 171.25,194.68 " fill="none" id="e-to-c1" style="stroke:#181818;stroke-width:1.0;"/><line style="stroke:#181818;stroke-width:1.0;" x1="175.25" x2="167.25" y1="198.68" y2="198.68"/><line style="stroke:#181818;stroke-width:1.0;" x1="175.25" x2="167.25" y1="195.68" y2="195.68"/><line style="stroke:#181818;stroke-width:1.0;" x1="171.25" x2="171.25" y1="194.68" y2="202.68"/></g><!--link e to c2--><g id="link_e_c2"><path codeLine="10" d="M211.5,143.36 C211.5,171.92 211.5,222 211.5,222 C211.5,222 210.89,222 220.75,222 " fill="none" id="e-to-c2" style="stroke:#181818;stroke-width:1.0;"/><line style="stroke:#181818;stroke-width:1.0;" x1="224.75" x2="224.75" y1="218" y2="226"/><line style="stroke:#181818;stroke-width:1.0;" x1="221.75" x2="221.75" y1="218" y2="226"/><line style="stroke:#181818;stroke-width:1.0;" x1="220.75" x2="228.75" y1="222" y2="222"/></g><!--SRC=[LOt12i8m44Jl-OhGUm_jDuWNR-8Fn329QxUx8GreeH_lOXNqzfXvp0HcVSpq9CbkcKXAg67sJ8As5dYjxQRELSGM93DyDs7jV5Xy6NxJnA4TYN508g56AcSaL4Z4suv_TeNfvbpiOgz7fzUx2RQa5PJbzBc1AuFl-sqpmWwszQNn1G00]--></g></svg>