<?xml version="1.0" encoding="us-ascii" standalone="no"?><svg xmlns="http://www.w3.org/2000/svg" xmlns:xlink="http://www.w3.org/1999/xlink" contentStyleType="text/css" height="246px" preserveAspectRatio="none" style="width:133px;height:246px;background:#FFFFFF;" version="1.1" viewBox="0 0 133 246" width="133px" zoomAndPan="magnify"><defs/><g><!--entity p1--><g id="elem_p1"><rect fill="#F1F1F1" height="37.6094" rx="2.5" ry="2.5" style="stroke:#181818;stroke-width:0.5;" width="120" x="7" y="7"/><text fill="#000000" font-family="sans-serif" font-size="14" lengthAdjust="spacing" textLength="100" x="17" y="31.5332">recordDefinition</text></g><!--entity c1--><g id="elem_c1"><rect fill="#F1F1F1" height="37.6094" rx="2.5" ry="2.5" style="stroke:#181818;stroke-width:0.5;" width="42" x="46" y="203"/><text fill="#000000" font-family="sans-serif" font-size="14" lengthAdjust="spacing" textLength="22" x="56" y="227.5332">key</text></g><g id="elem_e"><rect fill="#F1F1F1" height="37.6094" style="stroke:#181818;stroke-width:0.5;" width="43" x="45.5" y="105"/><text fill="#000000" font-family="sans-serif" font-size="14" lengthAdjust="spacing" textLength="29" x="52.5" y="121.5332">keys</text><line style="stroke:#181818;stroke-width:0.5;" x1="46.5" x2="87.5" y1="126.6094" y2="126.6094"/></g><!--link p1 to e--><g id="link_p1_e"><path codeLine="7" d="M67,45.36 C67,62.54 67,72.51 67,89.68 " fill="none" id="p1-to-e" style="stroke:#181818;stroke-width:1.0;"/><line style="stroke:#181818;stroke-width:1.0;" x1="67" x2="67" y1="93.68" y2="104.68"/><ellipse cx="67" cy="93.68" fill="none" rx="4" ry="4" style="stroke:#181818;stroke-width:1.0;"/><line style="stroke:#181818;stroke-width:1.0;" x1="71" x2="63" y1="100.68" y2="100.68"/></g><!--link e to c1--><g id="link_e_c1"><path codeLine="8" d="M67,143.36 C67,160.54 67,177.51 67,194.68 " fill="none" id="e-to-c1" style="stroke:#181818;stroke-width:1.0;"/><line style="stroke:#181818;stroke-width:1.0;" x1="67" x2="73" y1="194.68" y2="202.68"/><line style="stroke:#181818;stroke-width:1.0;" x1="67" x2="61" y1="194.68" y2="202.68"/><line style="stroke:#181818;stroke-width:1.0;" x1="67" x2="67" y1="194.68" y2="202.68"/><line style="stroke:#181818;stroke-width:1.0;" x1="71" x2="63" y1="192.68" y2="192.68"/></g><!--SRC=[JSen3iCW343HtQUmiZDmXrx4JLtgXDW8a1BK7BuMKxUlfqyvstd89PgWxQA5AXsOHRcFmcYrVmoWyjf9KsPSFAs-7lmMbIwc2rB34l-NdSVKDO8zD_T9RHf3YHY2tLxiSNzz-m40]--></g></svg>