<?xml version="1.0" encoding="us-ascii" standalone="no"?><svg xmlns="http://www.w3.org/2000/svg" xmlns:xlink="http://www.w3.org/1999/xlink" contentStyleType="text/css" height="246px" preserveAspectRatio="none" style="width:92px;height:246px;background:#FFFFFF;" version="1.1" viewBox="0 0 92 246" width="92px" zoomAndPan="magnify"><defs/><g><!--entity p1--><g id="elem_p1"><rect fill="#F1F1F1" height="37.6094" rx="2.5" ry="2.5" style="stroke:#181818;stroke-width:0.5;" width="78" x="7.5" y="7"/><text fill="#000000" font-family="sans-serif" font-size="14" lengthAdjust="spacing" textLength="58" x="17.5" y="31.5332">fieldType</text></g><!--entity c1--><g id="elem_c1"><rect fill="#F1F1F1" height="37.6094" rx="2.5" ry="2.5" style="stroke:#181818;stroke-width:0.5;" width="78" x="7.5" y="203"/><text fill="#000000" font-family="sans-serif" font-size="14" lengthAdjust="spacing" textLength="58" x="17.5" y="227.5332">nullValue</text></g><g id="elem_e"><rect fill="#F1F1F1" height="37.6094" style="stroke:#181818;stroke-width:0.5;" width="79" x="7" y="105"/><text fill="#000000" font-family="sans-serif" font-size="14" lengthAdjust="spacing" textLength="65" x="14" y="121.5332">nullValues</text><line style="stroke:#181818;stroke-width:0.5;" x1="8" x2="85" y1="126.6094" y2="126.6094"/></g><!--link p1 to e--><g id="link_p1_e"><path codeLine="7" d="M46.5,45.36 C46.5,62.54 46.5,72.51 46.5,89.68 " fill="none" id="p1-to-e" style="stroke:#181818;stroke-width:1.0;"/><line style="stroke:#181818;stroke-width:1.0;" x1="46.5" x2="46.5" y1="93.68" y2="104.68"/><ellipse cx="46.5" cy="93.68" fill="none" rx="4" ry="4" style="stroke:#181818;stroke-width:1.0;"/><line style="stroke:#181818;stroke-width:1.0;" x1="50.5" x2="42.5" y1="100.68" y2="100.68"/></g><!--link e to c1--><g id="link_e_c1"><path codeLine="8" d="M46.5,143.36 C46.5,160.54 46.5,177.51 46.5,194.68 " fill="none" id="e-to-c1" style="stroke:#181818;stroke-width:1.0;"/><line style="stroke:#181818;stroke-width:1.0;" x1="46.5" x2="52.5" y1="194.68" y2="202.68"/><line style="stroke:#181818;stroke-width:1.0;" x1="46.5" x2="40.5" y1="194.68" y2="202.68"/><line style="stroke:#181818;stroke-width:1.0;" x1="46.5" x2="46.5" y1="194.68" y2="202.68"/><line style="stroke:#181818;stroke-width:1.0;" x1="50.5" x2="42.5" y1="192.68" y2="192.68"/></g><!--SRC=[JSen3eCm343HtQUms1bobuhTfIwuDNQK145L3e_LBcnVUfzKVLja5vkWliKo5LfGnRXzCgENDZj0uR6HJShOFONrSGlha2hcT3LRLGVIzMzZ0h-_GYzGVyAG4_Qz7r4SSNnZFW40]--></g></svg>