<?xml version="1.0" encoding="us-ascii" standalone="no"?><svg xmlns="http://www.w3.org/2000/svg" xmlns:xlink="http://www.w3.org/1999/xlink" contentStyleType="text/css" height="246px" preserveAspectRatio="none" style="width:99px;height:246px;background:#FFFFFF;" version="1.1" viewBox="0 0 99 246" width="99px" zoomAndPan="magnify"><defs/><g><!--entity p1--><g id="elem_p1"><rect fill="#F1F1F1" height="37.6094" rx="2.5" ry="2.5" style="stroke:#181818;stroke-width:0.5;" width="70" x="15" y="7"/><text fill="#000000" font-family="sans-serif" font-size="14" lengthAdjust="spacing" textLength="50" x="25" y="31.5332">process</text></g><!--entity c1--><g id="elem_c1"><rect fill="#F1F1F1" height="37.6094" rx="2.5" ry="2.5" style="stroke:#181818;stroke-width:0.5;" width="85" x="7.5" y="203"/><text fill="#000000" font-family="sans-serif" font-size="14" lengthAdjust="spacing" textLength="65" x="17.5" y="227.5332">parameter</text></g><g id="elem_e"><rect fill="#F1F1F1" height="37.6094" style="stroke:#181818;stroke-width:0.5;" width="86" x="7" y="105"/><text fill="#000000" font-family="sans-serif" font-size="14" lengthAdjust="spacing" textLength="72" x="14" y="121.5332">parameters</text><line style="stroke:#181818;stroke-width:0.5;" x1="8" x2="92" y1="126.6094" y2="126.6094"/></g><!--link p1 to e--><g id="link_p1_e"><path codeLine="7" d="M50,45.36 C50,62.54 50,72.51 50,89.68 " fill="none" id="p1-to-e" style="stroke:#181818;stroke-width:1.0;"/><line style="stroke:#181818;stroke-width:1.0;" x1="50" x2="50" y1="93.68" y2="104.68"/><ellipse cx="50" cy="93.68" fill="none" rx="4" ry="4" style="stroke:#181818;stroke-width:1.0;"/><line style="stroke:#181818;stroke-width:1.0;" x1="54" x2="46" y1="100.68" y2="100.68"/></g><!--link e to c1--><g id="link_e_c1"><path codeLine="8" d="M50,143.36 C50,160.54 50,177.51 50,194.68 " fill="none" id="e-to-c1" style="stroke:#181818;stroke-width:1.0;"/><line style="stroke:#181818;stroke-width:1.0;" x1="50" x2="56" y1="194.68" y2="202.68"/><line style="stroke:#181818;stroke-width:1.0;" x1="50" x2="44" y1="194.68" y2="202.68"/><line style="stroke:#181818;stroke-width:1.0;" x1="50" x2="50" y1="194.68" y2="202.68"/><line style="stroke:#181818;stroke-width:1.0;" x1="54" x2="46" y1="192.68" y2="192.68"/></g><!--SRC=[LSj13eCm34JHlKzXiMUH8vbebAODiUL4QX4SlYbiw6waDrzAqVUQFxacQgzSJLnMBhcYRmPMxmybSiGkDHNmPAuHhKqiZItyoIz5XvyM0-do77g3gm9Pu7dMOooCSUpZ_0K0]--></g></svg>