<?xml version="1.0" encoding="us-ascii" standalone="no"?><svg xmlns="http://www.w3.org/2000/svg" xmlns:xlink="http://www.w3.org/1999/xlink" contentStyleType="text/css" height="255px" preserveAspectRatio="none" style="width:105px;height:255px;background:#FFFFFF;" version="1.1" viewBox="0 0 105 255" width="105px" zoomAndPan="magnify"><defs/><g><!--entity p1--><g id="elem_p1"><rect fill="#F1F1F1" height="37.6094" rx="2.5" ry="2.5" style="stroke:#181818;stroke-width:0.5;" width="85" x="10.5" y="7"/><text fill="#000000" font-family="sans-serif" font-size="14" lengthAdjust="spacing" textLength="65" x="20.5" y="31.5332">processes</text></g><!--entity c1--><g id="elem_c1"><rect fill="#F1F1F1" height="37.6094" rx="2.5" ry="2.5" style="stroke:#181818;stroke-width:0.5;" width="92" x="7" y="212"/><text fill="#000000" font-family="sans-serif" font-size="14" lengthAdjust="spacing" textLength="72" x="17" y="236.5332">parameters</text></g><g id="elem_e"><rect fill="#F1F1F1" height="47.2188" style="stroke:#181818;stroke-width:0.5;" width="64" x="21" y="105"/><text fill="#000000" font-family="sans-serif" font-size="14" lengthAdjust="spacing" textLength="50" x="28" y="121.5332">process</text><line style="stroke:#181818;stroke-width:0.5;" x1="22" x2="84" y1="126.6094" y2="126.6094"/><text fill="#000000" font-family="sans-serif" font-size="14" lengthAdjust="spacing" textLength="35" x="27" y="145.1426">name</text></g><!--link p1 to e--><g id="link_p1_e"><path codeLine="8" d="M53,45.28 C53,62.21 53,78.9 53,96.99 " fill="none" id="p1-to-e" style="stroke:#181818;stroke-width:1.0;"/><line style="stroke:#181818;stroke-width:1.0;" x1="53" x2="59" y1="96.99" y2="104.99"/><line style="stroke:#181818;stroke-width:1.0;" x1="53" x2="47" y1="96.99" y2="104.99"/><line style="stroke:#181818;stroke-width:1.0;" x1="53" x2="53" y1="96.99" y2="104.99"/><line style="stroke:#181818;stroke-width:1.0;" x1="57" x2="49" y1="94.99" y2="94.99"/></g><!--link e to c1--><g id="link_e_c1"><path codeLine="9" d="M53,152.02 C53,170.1 53,179.78 53,196.71 " fill="none" id="e-to-c1" style="stroke:#181818;stroke-width:1.0;"/><line style="stroke:#181818;stroke-width:1.0;" x1="53" x2="53" y1="200.71" y2="211.71"/><ellipse cx="53" cy="200.71" fill="none" rx="4" ry="4" style="stroke:#181818;stroke-width:1.0;"/><line style="stroke:#181818;stroke-width:1.0;" x1="57" x2="49" y1="207.71" y2="207.71"/></g><!--SRC=[LOjB2W8n38RtEKMOVHVTUfjOViPg9ob9GSKvl7K4mUttaDRiljL7rPNYLhMBoyQjAiQpWyt7nOWSPOYk3Rnqju88nC8ItFEV-ymOyAyicUnydVft7HW4Fh7EadhcbFRNWLAoVIvl]--></g></svg>