<?xml version="1.0" encoding="us-ascii" standalone="no"?><svg xmlns="http://www.w3.org/2000/svg" xmlns:xlink="http://www.w3.org/1999/xlink" contentStyleType="text/css" height="246px" preserveAspectRatio="none" style="width:1354px;height:246px;background:#FFFFFF;" version="1.1" viewBox="0 0 1354 246" width="1354px" zoomAndPan="magnify"><defs/><g><!--entity p1--><g id="elem_p1"><rect fill="#F1F1F1" height="37.6094" rx="2.5" ry="2.5" style="stroke:#181818;stroke-width:0.5;" width="65" x="7" y="7"/><text fill="#000000" font-family="sans-serif" font-size="14" lengthAdjust="spacing" textLength="45" x="17" y="31.5332">context</text></g><!--entity p2--><g id="elem_p2"><rect fill="#F1F1F1" height="37.6094" rx="2.5" ry="2.5" style="stroke:#181818;stroke-width:0.5;" width="67" x="107" y="7"/><text fill="#000000" font-family="sans-serif" font-size="14" lengthAdjust="spacing" textLength="47" x="117" y="31.5332">content</text></g><!--entity p3--><g id="elem_p3"><rect fill="#F1F1F1" height="37.6094" rx="2.5" ry="2.5" style="stroke:#181818;stroke-width:0.5;" width="69" x="209" y="7"/><text fill="#000000" font-family="sans-serif" font-size="14" lengthAdjust="spacing" textLength="49" x="219" y="31.5332">flatFiles</text></g><!--entity p4--><g id="elem_p4"><rect fill="#F1F1F1" height="37.6094" rx="2.5" ry="2.5" style="stroke:#181818;stroke-width:0.5;" width="128" x="313.5" y="7"/><text fill="#000000" font-family="sans-serif" font-size="14" lengthAdjust="spacing" textLength="108" x="323.5" y="31.5332">flatFileProcesses</text></g><!--entity p5--><g id="elem_p5"><rect fill="#F1F1F1" height="37.6094" rx="2.5" ry="2.5" style="stroke:#181818;stroke-width:0.5;" width="127" x="477" y="7"/><text fill="#000000" font-family="sans-serif" font-size="14" lengthAdjust="spacing" textLength="107" x="487" y="31.5332">recordProcesses</text></g><!--entity p6--><g id="elem_p6"><rect fill="#F1F1F1" height="37.6094" rx="2.5" ry="2.5" style="stroke:#181818;stroke-width:0.5;" width="112" x="639.5" y="7"/><text fill="#000000" font-family="sans-serif" font-size="14" lengthAdjust="spacing" textLength="92" x="649.5" y="31.5332">fieldProcesses</text></g><!--entity p7--><g id="elem_p7"><rect fill="#F1F1F1" height="37.6094" rx="2.5" ry="2.5" style="stroke:#181818;stroke-width:0.5;" width="96" x="786.5" y="7"/><text fill="#000000" font-family="sans-serif" font-size="14" lengthAdjust="spacing" textLength="76" x="796.5" y="31.5332">dataObjects</text></g><!--entity p8--><g id="elem_p8"><rect fill="#F1F1F1" height="37.6094" rx="2.5" ry="2.5" style="stroke:#181818;stroke-width:0.5;" width="89" x="918" y="7"/><text fill="#000000" font-family="sans-serif" font-size="14" lengthAdjust="spacing" textLength="69" x="928" y="31.5332">dataObject</text></g><!--entity p9--><g id="elem_p9"><rect fill="#F1F1F1" height="37.6094" rx="2.5" ry="2.5" style="stroke:#181818;stroke-width:0.5;" width="139" x="1042" y="7"/><text fill="#000000" font-family="sans-serif" font-size="14" lengthAdjust="spacing" textLength="119" x="1052" y="31.5332">additionalElements</text></g><!--entity p10--><g id="elem_p10"><rect fill="#F1F1F1" height="37.6094" rx="2.5" ry="2.5" style="stroke:#181818;stroke-width:0.5;" width="132" x="1216.5" y="7"/><text fill="#000000" font-family="sans-serif" font-size="14" lengthAdjust="spacing" textLength="112" x="1226.5" y="31.5332">additionalElement</text></g><!--entity c1--><g id="elem_c1"><rect fill="#F1F1F1" height="37.6094" rx="2.5" ry="2.5" style="stroke:#181818;stroke-width:0.5;" width="70" x="582.5" y="203"/><text fill="#000000" font-family="sans-serif" font-size="14" lengthAdjust="spacing" textLength="50" x="592.5" y="227.5332">process</text></g><g id="elem_e"><rect fill="#F1F1F1" height="37.6094" style="stroke:#181818;stroke-width:0.5;" width="79" x="578" y="105"/><text fill="#000000" font-family="sans-serif" font-size="14" lengthAdjust="spacing" textLength="65" x="585" y="121.5332">processes</text><line style="stroke:#181818;stroke-width:0.5;" x1="579" x2="656" y1="126.6094" y2="126.6094"/></g><!--link p1 to e--><g id="link_p1_e"><path codeLine="16" d="M39.5,45.16 C39.5,76.68 39.5,136 39.5,136 C39.5,136 432.19,136 562.77,136 " fill="none" id="p1-to-e" style="stroke:#181818;stroke-width:1.0;"/><line style="stroke:#181818;stroke-width:1.0;" x1="566.77" x2="577.77" y1="136" y2="136"/><ellipse cx="566.77" cy="136" fill="none" rx="4" ry="4" style="stroke:#181818;stroke-width:1.0;"/><line style="stroke:#181818;stroke-width:1.0;" x1="573.77" x2="573.77" y1="132" y2="140"/></g><!--link p2 to e--><g id="link_p2_e"><path codeLine="17" d="M140.5,45.19 C140.5,74.73 140.5,128 140.5,128 C140.5,128 448.01,128 562.65,128 " fill="none" id="p2-to-e" style="stroke:#181818;stroke-width:1.0;"/><line style="stroke:#181818;stroke-width:1.0;" x1="566.65" x2="577.65" y1="128" y2="128"/><ellipse cx="566.65" cy="128" fill="none" rx="4" ry="4" style="stroke:#181818;stroke-width:1.0;"/><line style="stroke:#181818;stroke-width:1.0;" x1="573.65" x2="573.65" y1="124" y2="132"/></g><!--link p3 to e--><g id="link_p3_e"><path codeLine="18" d="M243.5,45.22 C243.5,72.98 243.5,121 243.5,121 C243.5,121 466.58,121 562.83,121 " fill="none" id="p3-to-e" style="stroke:#181818;stroke-width:1.0;"/><line style="stroke:#181818;stroke-width:1.0;" x1="566.83" x2="577.83" y1="121" y2="121"/><ellipse cx="566.83" cy="121" fill="none" rx="4" ry="4" style="stroke:#181818;stroke-width:1.0;"/><line style="stroke:#181818;stroke-width:1.0;" x1="573.83" x2="573.83" y1="117" y2="125"/></g><!--link p4 to e--><g id="link_p4_e"><path codeLine="19" d="M377.5,45.31 C377.5,70.94 377.5,113 377.5,113 C377.5,113 494.7,113 562.87,113 " fill="none" id="p4-to-e" style="stroke:#181818;stroke-width:1.0;"/><line style="stroke:#181818;stroke-width:1.0;" x1="566.87" x2="577.87" y1="113" y2="113"/><ellipse cx="566.87" cy="113" fill="none" rx="4" ry="4" style="stroke:#181818;stroke-width:1.0;"/><line style="stroke:#181818;stroke-width:1.0;" x1="573.87" x2="573.87" y1="109" y2="117"/></g><!--link p5 to e--><g id="link_p5_e"><path codeLine="20" d="M591,45.36 C591,62.54 591,72.51 591,89.68 " fill="none" id="p5-to-e" style="stroke:#181818;stroke-width:1.0;"/><line style="stroke:#181818;stroke-width:1.0;" x1="591" x2="591" y1="93.68" y2="104.68"/><ellipse cx="591" cy="93.68" fill="none" rx="4" ry="4" style="stroke:#181818;stroke-width:1.0;"/><line style="stroke:#181818;stroke-width:1.0;" x1="595" x2="587" y1="100.68" y2="100.68"/></g><!--link p6 to e--><g id="link_p6_e"><path codeLine="21" d="M648.25,45.36 C648.25,62.54 648.25,79.51 648.25,96.68 " fill="none" id="p6-to-e" style="stroke:#181818;stroke-width:1.0;"/><line style="stroke:#181818;stroke-width:1.0;" x1="652.25" x2="644.25" y1="100.68" y2="100.68"/><line style="stroke:#181818;stroke-width:1.0;" x1="652.25" x2="644.25" y1="97.68" y2="97.68"/><line style="stroke:#181818;stroke-width:1.0;" x1="648.25" x2="648.25" y1="96.68" y2="104.68"/></g><!--link p7 to e--><g id="link_p7_e"><path codeLine="22" d="M834.5,45.31 C834.5,70.94 834.5,113 834.5,113 C834.5,113 734.64,113 672.05,113 " fill="none" id="p7-to-e" style="stroke:#181818;stroke-width:1.0;"/><line style="stroke:#181818;stroke-width:1.0;" x1="668.05" x2="657.05" y1="113" y2="113"/><ellipse cx="668.05" cy="113" fill="none" rx="4" ry="4" style="stroke:#181818;stroke-width:1.0;"/><line style="stroke:#181818;stroke-width:1.0;" x1="661.05" x2="661.05" y1="117" y2="109"/></g><!--link p8 to e--><g id="link_p8_e"><path codeLine="23" d="M962.5,45.22 C962.5,72.98 962.5,121 962.5,121 C962.5,121 762.7,121 672.08,121 " fill="none" id="p8-to-e" style="stroke:#181818;stroke-width:1.0;"/><line style="stroke:#181818;stroke-width:1.0;" x1="668.08" x2="657.08" y1="121" y2="121"/><ellipse cx="668.08" cy="121" fill="none" rx="4" ry="4" style="stroke:#181818;stroke-width:1.0;"/><line style="stroke:#181818;stroke-width:1.0;" x1="661.08" x2="661.08" y1="125" y2="117"/></g><!--link p9 to e--><g id="link_p9_e"><path codeLine="24" d="M1111.5,45.19 C1111.5,74.73 1111.5,128 1111.5,128 C1111.5,128 789.32,128 672.09,128 " fill="none" id="p9-to-e" style="stroke:#181818;stroke-width:1.0;"/><line style="stroke:#181818;stroke-width:1.0;" x1="668.09" x2="657.09" y1="128" y2="128"/><ellipse cx="668.09" cy="128" fill="none" rx="4" ry="4" style="stroke:#181818;stroke-width:1.0;"/><line style="stroke:#181818;stroke-width:1.0;" x1="661.09" x2="661.09" y1="132" y2="124"/></g><!--link p10 to e--><g id="link_p10_e"><path codeLine="25" d="M1282.5,45.16 C1282.5,76.68 1282.5,136 1282.5,136 C1282.5,136 815.27,136 672.11,136 " fill="none" id="p10-to-e" style="stroke:#181818;stroke-width:1.0;"/><line style="stroke:#181818;stroke-width:1.0;" x1="668.11" x2="657.11" y1="136" y2="136"/><ellipse cx="668.11" cy="136" fill="none" rx="4" ry="4" style="stroke:#181818;stroke-width:1.0;"/><line style="stroke:#181818;stroke-width:1.0;" x1="661.11" x2="661.11" y1="140" y2="132"/></g><!--link e to c1--><g id="link_e_c1"><path codeLine="26" d="M617.5,143.36 C617.5,160.54 617.5,177.51 617.5,194.68 " fill="none" id="e-to-c1" style="stroke:#181818;stroke-width:1.0;"/><line style="stroke:#181818;stroke-width:1.0;" x1="617.5" x2="623.5" y1="194.68" y2="202.68"/><line style="stroke:#181818;stroke-width:1.0;" x1="617.5" x2="611.5" y1="194.68" y2="202.68"/><line style="stroke:#181818;stroke-width:1.0;" x1="617.5" x2="617.5" y1="194.68" y2="202.68"/><line style="stroke:#181818;stroke-width:1.0;" x1="621.5" x2="613.5" y1="192.68" y2="192.68"/></g><!--SRC=[VP3B3i8W44NtV0LnRsArlZv0j_eBOpigEcK8a5YZ7o-sIF0HToTpBiC58E9Bergb3yATbJPWeP6aDFghGSdM7ra8YvK7VI2KWugrnzOF93XfYY-ZenddPa_WruhGzMxoosqjL-ZSArFccO1iwu_4z6sBGleCpF903HuskrCOH3l_RNkvo2NKjVAADT2Ai0alZ1kMVqFnWqPvoFG5ErKLWhiRqpZsHc4AEHpo_KdZH9D4PQ9febcWUqVpD5iaMYOgHY_4vubRgF40]--></g></svg>