<?xml version="1.0" encoding="us-ascii" standalone="no"?><svg xmlns="http://www.w3.org/2000/svg" xmlns:xlink="http://www.w3.org/1999/xlink" contentStyleType="text/css" height="246px" preserveAspectRatio="none" style="width:927px;height:246px;background:#FFFFFF;" version="1.1" viewBox="0 0 927 246" width="927px" zoomAndPan="magnify"><defs/><g><!--entity p1--><g id="elem_p1"><rect fill="#F1F1F1" height="37.6094" rx="2.5" ry="2.5" style="stroke:#181818;stroke-width:0.5;" width="62" x="7" y="7"/><text fill="#000000" font-family="sans-serif" font-size="14" lengthAdjust="spacing" textLength="42" x="17" y="31.5332">flatFile</text></g><!--entity p2--><g id="elem_p2"><rect fill="#F1F1F1" height="37.6094" rx="2.5" ry="2.5" style="stroke:#181818;stroke-width:0.5;" width="121" x="104.5" y="7"/><text fill="#000000" font-family="sans-serif" font-size="14" lengthAdjust="spacing" textLength="101" x="114.5" y="31.5332">flatFileDefinition</text></g><!--entity p3--><g id="elem_p3"><rect fill="#F1F1F1" height="37.6094" rx="2.5" ry="2.5" style="stroke:#181818;stroke-width:0.5;" width="120" x="261" y="7"/><text fill="#000000" font-family="sans-serif" font-size="14" lengthAdjust="spacing" textLength="100" x="271" y="31.5332">recordDefinition</text></g><!--entity p4--><g id="elem_p4"><rect fill="#F1F1F1" height="37.6094" rx="2.5" ry="2.5" style="stroke:#181818;stroke-width:0.5;" width="105" x="416.5" y="7"/><text fill="#000000" font-family="sans-serif" font-size="14" lengthAdjust="spacing" textLength="85" x="426.5" y="31.5332">fieldDefinition</text></g><!--entity p5--><g id="elem_p5"><rect fill="#F1F1F1" height="37.6094" rx="2.5" ry="2.5" style="stroke:#181818;stroke-width:0.5;" width="89" x="556.5" y="7"/><text fill="#000000" font-family="sans-serif" font-size="14" lengthAdjust="spacing" textLength="69" x="566.5" y="31.5332">dataObject</text></g><!--entity p6--><g id="elem_p6"><rect fill="#F1F1F1" height="37.6094" rx="2.5" ry="2.5" style="stroke:#181818;stroke-width:0.5;" width="132" x="681" y="7"/><text fill="#000000" font-family="sans-serif" font-size="14" lengthAdjust="spacing" textLength="112" x="691" y="31.5332">additionalElement</text></g><!--entity p7--><g id="elem_p7"><rect fill="#F1F1F1" height="37.6094" rx="2.5" ry="2.5" style="stroke:#181818;stroke-width:0.5;" width="73" x="848.5" y="7"/><text fill="#000000" font-family="sans-serif" font-size="14" lengthAdjust="spacing" textLength="53" x="858.5" y="31.5332">property</text></g><!--entity c1--><g id="elem_c1"><rect fill="#F1F1F1" height="37.6094" rx="2.5" ry="2.5" style="stroke:#181818;stroke-width:0.5;" width="73" x="432.5" y="203"/><text fill="#000000" font-family="sans-serif" font-size="14" lengthAdjust="spacing" textLength="53" x="442.5" y="227.5332">property</text></g><g id="elem_e"><rect fill="#F1F1F1" height="37.6094" style="stroke:#181818;stroke-width:0.5;" width="78" x="430" y="105"/><text fill="#000000" font-family="sans-serif" font-size="14" lengthAdjust="spacing" textLength="64" x="437" y="121.5332">properties</text><line style="stroke:#181818;stroke-width:0.5;" x1="431" x2="507" y1="126.6094" y2="126.6094"/></g><!--link p1 to e--><g id="link_p1_e"><path codeLine="13" d="M38,45.06 C38,76.06 38,134 38,134 C38,134 308.9,134 414.99,134 " fill="none" id="p1-to-e" style="stroke:#181818;stroke-width:1.0;"/><line style="stroke:#181818;stroke-width:1.0;" x1="418.99" x2="429.99" y1="134" y2="134"/><ellipse cx="418.99" cy="134" fill="none" rx="4" ry="4" style="stroke:#181818;stroke-width:1.0;"/><line style="stroke:#181818;stroke-width:1.0;" x1="425.99" x2="425.99" y1="130" y2="138"/></g><!--link p2 to e--><g id="link_p2_e"><path codeLine="14" d="M165,45.36 C165,73.92 165,124 165,124 C165,124 332.77,124 414.88,124 " fill="none" id="p2-to-e" style="stroke:#181818;stroke-width:1.0;"/><line style="stroke:#181818;stroke-width:1.0;" x1="418.88" x2="429.88" y1="124" y2="124"/><ellipse cx="418.88" cy="124" fill="none" rx="4" ry="4" style="stroke:#181818;stroke-width:1.0;"/><line style="stroke:#181818;stroke-width:1.0;" x1="425.88" x2="425.88" y1="120" y2="128"/></g><!--link p3 to e--><g id="link_p3_e"><path codeLine="15" d="M321,45.31 C321,71.49 321,115 321,115 C321,115 370.88,115 414.73,115 " fill="none" id="p3-to-e" style="stroke:#181818;stroke-width:1.0;"/><line style="stroke:#181818;stroke-width:1.0;" x1="418.73" x2="429.73" y1="115" y2="115"/><ellipse cx="418.73" cy="115" fill="none" rx="4" ry="4" style="stroke:#181818;stroke-width:1.0;"/><line style="stroke:#181818;stroke-width:1.0;" x1="425.73" x2="425.73" y1="111" y2="119"/></g><!--link p4 to e--><g id="link_p4_e"><path codeLine="16" d="M469,45.36 C469,62.54 469,72.51 469,89.68 " fill="none" id="p4-to-e" style="stroke:#181818;stroke-width:1.0;"/><line style="stroke:#181818;stroke-width:1.0;" x1="469" x2="469" y1="93.68" y2="104.68"/><ellipse cx="469" cy="93.68" fill="none" rx="4" ry="4" style="stroke:#181818;stroke-width:1.0;"/><line style="stroke:#181818;stroke-width:1.0;" x1="473" x2="465" y1="100.68" y2="100.68"/></g><!--link p5 to e--><g id="link_p5_e"><path codeLine="17" d="M601,45.31 C601,71.49 601,115 601,115 C601,115 562.16,115 523.25,115 " fill="none" id="p5-to-e" style="stroke:#181818;stroke-width:1.0;"/><line style="stroke:#181818;stroke-width:1.0;" x1="519.25" x2="508.25" y1="115" y2="115"/><ellipse cx="519.25" cy="115" fill="none" rx="4" ry="4" style="stroke:#181818;stroke-width:1.0;"/><line style="stroke:#181818;stroke-width:1.0;" x1="512.25" x2="512.25" y1="119" y2="111"/></g><!--link p6 to e--><g id="link_p6_e"><path codeLine="18" d="M747,45.36 C747,73.92 747,124 747,124 C747,124 599.87,124 523.24,124 " fill="none" id="p6-to-e" style="stroke:#181818;stroke-width:1.0;"/><line style="stroke:#181818;stroke-width:1.0;" x1="519.24" x2="508.24" y1="124" y2="124"/><ellipse cx="519.24" cy="124" fill="none" rx="4" ry="4" style="stroke:#181818;stroke-width:1.0;"/><line style="stroke:#181818;stroke-width:1.0;" x1="512.24" x2="512.24" y1="128" y2="120"/></g><!--link p7 to e--><g id="link_p7_e"><path codeLine="19" d="M885,45.06 C885,76.06 885,134 885,134 C885,134 626.69,134 523.14,134 " fill="none" id="p7-to-e" style="stroke:#181818;stroke-width:1.0;"/><line style="stroke:#181818;stroke-width:1.0;" x1="519.14" x2="508.14" y1="134" y2="134"/><ellipse cx="519.14" cy="134" fill="none" rx="4" ry="4" style="stroke:#181818;stroke-width:1.0;"/><line style="stroke:#181818;stroke-width:1.0;" x1="512.14" x2="512.14" y1="138" y2="130"/></g><!--link e to c1--><g id="link_e_c1"><path codeLine="20" d="M469,143.36 C469,160.54 469,177.51 469,194.68 " fill="none" id="e-to-c1" style="stroke:#181818;stroke-width:1.0;"/><line style="stroke:#181818;stroke-width:1.0;" x1="469" x2="475" y1="194.68" y2="202.68"/><line style="stroke:#181818;stroke-width:1.0;" x1="469" x2="463" y1="194.68" y2="202.68"/><line style="stroke:#181818;stroke-width:1.0;" x1="469" x2="469" y1="194.68" y2="202.68"/><line style="stroke:#181818;stroke-width:1.0;" x1="473" x2="465" y1="192.68" y2="192.68"/></g><!--SRC=[TOrB4e8m343tFKM7FGl-5r2tdY52m6XeEwKpoiZXHT1E_UtUvBqamAmlFLr9TM8uap9WePTC2jreK6hhZbe8YxK3rJ7Ag6LmEsAC90pI9B_K1bjIv4YhDKh3Q4PjcyyaUxj3o5z57XODEDWVJlDWbKKeeMcMFU0jOu_gsPHXOwmsQDsugkglgXEXbpz-JZWi1eL9P1phwK6ffynJxgdmL7ggNeGpJBVvqHq0]--></g></svg>