<?xml version="1.0" encoding="us-ascii" standalone="no"?><svg xmlns="http://www.w3.org/2000/svg" xmlns:xlink="http://www.w3.org/1999/xlink" contentStyleType="text/css" height="290px" preserveAspectRatio="none" style="width:186px;height:290px;background:#FFFFFF;" version="1.1" viewBox="0 0 186 290" width="186px" zoomAndPan="magnify"><defs/><g><!--entity p1--><g id="elem_p1"><rect fill="#F1F1F1" height="37.6094" rx="2.5" ry="2.5" style="stroke:#181818;stroke-width:0.5;" width="84" x="44" y="7"/><text fill="#000000" font-family="sans-serif" font-size="14" lengthAdjust="spacing" textLength="64" x="54" y="31.5332">properties</text></g><!--entity c1--><g id="elem_c1"><rect fill="#F1F1F1" height="37.6094" rx="2.5" ry="2.5" style="stroke:#181818;stroke-width:0.5;" width="54" x="7" y="247"/><text fill="#000000" font-family="sans-serif" font-size="14" lengthAdjust="spacing" textLength="34" x="17" y="271.5332">value</text></g><!--entity c2--><g id="elem_c2"><rect fill="#F1F1F1" height="37.6094" rx="2.5" ry="2.5" style="stroke:#181818;stroke-width:0.5;" width="84" x="96" y="247"/><text fill="#000000" font-family="sans-serif" font-size="14" lengthAdjust="spacing" textLength="64" x="106" y="271.5332">properties</text></g><g id="elem_e"><rect fill="#F1F1F1" height="82.4375" style="stroke:#181818;stroke-width:0.5;" width="72" x="50" y="105"/><text fill="#000000" font-family="sans-serif" font-size="14" lengthAdjust="spacing" textLength="53" x="59.5" y="121.5332">property</text><line style="stroke:#181818;stroke-width:0.5;" x1="51" x2="121" y1="126.6094" y2="126.6094"/><text fill="#000000" font-family="sans-serif" font-size="14" lengthAdjust="spacing" textLength="35" x="56" y="145.1426">name</text><text fill="#000000" font-family="sans-serif" font-size="14" lengthAdjust="spacing" textLength="60" x="56" y="162.752">dataType</text><text fill="#000000" font-family="sans-serif" font-size="14" lengthAdjust="spacing" textLength="40" x="56" y="180.3613">format</text></g><!--link p1 to e--><g id="link_p1_e"><path codeLine="11" d="M86,45.01 C86,61.07 86,76.64 86,96.96 " fill="none" id="p1-to-e" style="stroke:#181818;stroke-width:1.0;"/><line style="stroke:#181818;stroke-width:1.0;" x1="86" x2="92" y1="96.96" y2="104.96"/><line style="stroke:#181818;stroke-width:1.0;" x1="86" x2="80" y1="96.96" y2="104.96"/><line style="stroke:#181818;stroke-width:1.0;" x1="86" x2="86" y1="96.96" y2="104.96"/><line style="stroke:#181818;stroke-width:1.0;" x1="90" x2="82" y1="94.96" y2="94.96"/></g><!--link e to c1--><g id="link_e_c1"><path codeLine="12" d="M55.5,187.3 C55.5,207.5 55.5,215.85 55.5,231.83 " fill="none" id="e-to-c1" style="stroke:#181818;stroke-width:1.0;"/><line style="stroke:#181818;stroke-width:1.0;" x1="55.5" x2="55.5" y1="235.83" y2="246.83"/><ellipse cx="55.5" cy="235.83" fill="none" rx="4" ry="4" style="stroke:#181818;stroke-width:1.0;"/><line style="stroke:#181818;stroke-width:1.0;" x1="59.5" x2="51.5" y1="242.83" y2="242.83"/></g><!--link e to c2--><g id="link_e_c2"><path codeLine="13" d="M109,187.3 C109,207.5 109,215.85 109,231.83 " fill="none" id="e-to-c2" style="stroke:#181818;stroke-width:1.0;"/><line style="stroke:#181818;stroke-width:1.0;" x1="109" x2="109" y1="235.83" y2="246.83"/><ellipse cx="109" cy="235.83" fill="none" rx="4" ry="4" style="stroke:#181818;stroke-width:1.0;"/><line style="stroke:#181818;stroke-width:1.0;" x1="113" x2="105" y1="242.83" y2="242.83"/></g><!--SRC=[VOux3W8n34HxdyBQFaMsv1nSm0Ip19BOIindnHwU9GX4HJSpRomFfIIt7E-nJD3EiIXLofXYOPkLKQeT1Q1oC2fJOXoqYdAro6r0QgZ-5rufNRZdmVyv2YF8xhJYBvbxpi2umKBvBVPaj5rNT7EGcib0FJgtF7hLELbUZpvgV080]--></g></svg>