<?xml version="1.0" encoding="us-ascii" standalone="no"?><svg xmlns="http://www.w3.org/2000/svg" xmlns:xlink="http://www.w3.org/1999/xlink" contentStyleType="text/css" height="255px" preserveAspectRatio="none" style="width:219px;height:255px;background:#FFFFFF;" version="1.1" viewBox="0 0 219 255" width="219px" zoomAndPan="magnify"><defs/><g><!--entity p1--><g id="elem_p1"><rect fill="#F1F1F1" height="37.6094" rx="2.5" ry="2.5" style="stroke:#181818;stroke-width:0.5;" width="67" x="78" y="7"/><text fill="#000000" font-family="sans-serif" font-size="14" lengthAdjust="spacing" textLength="47" x="88" y="31.5332">queries</text></g><!--entity c1--><g id="elem_c1"><rect fill="#F1F1F1" height="37.6094" rx="2.5" ry="2.5" style="stroke:#181818;stroke-width:0.5;" width="89" x="7" y="212"/><text fill="#000000" font-family="sans-serif" font-size="14" lengthAdjust="spacing" textLength="69" x="17" y="236.5332">description</text></g><!--entity c2--><g id="elem_c2"><rect fill="#F1F1F1" height="37.6094" rx="2.5" ry="2.5" style="stroke:#181818;stroke-width:0.5;" width="82" x="131.5" y="212"/><text fill="#000000" font-family="sans-serif" font-size="14" lengthAdjust="spacing" textLength="62" x="141.5" y="236.5332">statement</text></g><g id="elem_e"><rect fill="#F1F1F1" height="47.2188" style="stroke:#181818;stroke-width:0.5;" width="50" x="86.5" y="105"/><text fill="#000000" font-family="sans-serif" font-size="14" lengthAdjust="spacing" textLength="36" x="93.5" y="121.5332">query</text><line style="stroke:#181818;stroke-width:0.5;" x1="87.5" x2="135.5" y1="126.6094" y2="126.6094"/><text fill="#000000" font-family="sans-serif" font-size="14" lengthAdjust="spacing" textLength="35" x="92.5" y="145.1426">name</text></g><!--link p1 to e--><g id="link_p1_e"><path codeLine="9" d="M111.5,45.28 C111.5,62.21 111.5,78.9 111.5,96.99 " fill="none" id="p1-to-e" style="stroke:#181818;stroke-width:1.0;"/><line style="stroke:#181818;stroke-width:1.0;" x1="111.5" x2="117.5" y1="96.99" y2="104.99"/><line style="stroke:#181818;stroke-width:1.0;" x1="111.5" x2="105.5" y1="96.99" y2="104.99"/><line style="stroke:#181818;stroke-width:1.0;" x1="111.5" x2="111.5" y1="96.99" y2="104.99"/><line style="stroke:#181818;stroke-width:1.0;" x1="115.5" x2="107.5" y1="94.99" y2="94.99"/></g><!--link e to c1--><g id="link_e_c1"><path codeLine="10" d="M91.25,152.02 C91.25,170.1 91.25,179.78 91.25,196.71 " fill="none" id="e-to-c1" style="stroke:#181818;stroke-width:1.0;"/><line style="stroke:#181818;stroke-width:1.0;" x1="91.25" x2="91.25" y1="200.71" y2="211.71"/><ellipse cx="91.25" cy="200.71" fill="none" rx="4" ry="4" style="stroke:#181818;stroke-width:1.0;"/><line style="stroke:#181818;stroke-width:1.0;" x1="95.25" x2="87.25" y1="207.71" y2="207.71"/></g><!--link e to c2--><g id="link_e_c2"><path codeLine="11" d="M136.68,129 C139.14,129 140.75,129 140.75,129 C140.75,129 140.75,174.27 140.75,203.81 " fill="none" id="e-to-c2" style="stroke:#181818;stroke-width:1.0;"/><line style="stroke:#181818;stroke-width:1.0;" x1="144.75" x2="136.75" y1="207.81" y2="207.81"/><line style="stroke:#181818;stroke-width:1.0;" x1="144.75" x2="136.75" y1="204.81" y2="204.81"/><line style="stroke:#181818;stroke-width:1.0;" x1="140.75" x2="140.75" y1="203.81" y2="211.81"/></g><!--SRC=[LSmn3i8m38NXtQUmkcTeHsvZWbKCYHqI8wZeuMdJ1RQd_vCUfMIlB6_H6TfTj52bZ4cKVIcCLlrg09MZayw9SNWykGgt0QbX6N_bmYrMAIwcNUEVDYVdpEg7JM3dswR7uT8Z0-C9bJ936J64zTDJ2BRkP_jQjpLz0G00]--></g></svg>