<?xml version="1.0" encoding="us-ascii" standalone="no"?><svg xmlns="http://www.w3.org/2000/svg" xmlns:xlink="http://www.w3.org/1999/xlink" contentStyleType="text/css" height="246px" preserveAspectRatio="none" style="width:82px;height:246px;background:#FFFFFF;" version="1.1" viewBox="0 0 82 246" width="82px" zoomAndPan="magnify"><defs/><g><!--entity p1--><g id="elem_p1"><rect fill="#F1F1F1" height="37.6094" rx="2.5" ry="2.5" style="stroke:#181818;stroke-width:0.5;" width="69" x="7" y="7"/><text fill="#000000" font-family="sans-serif" font-size="14" lengthAdjust="spacing" textLength="49" x="17" y="31.5332">flatFiles</text></g><!--entity c1--><g id="elem_c1"><rect fill="#F1F1F1" height="37.6094" rx="2.5" ry="2.5" style="stroke:#181818;stroke-width:0.5;" width="56" x="13.5" y="203"/><text fill="#000000" font-family="sans-serif" font-size="14" lengthAdjust="spacing" textLength="36" x="23.5" y="227.5332">query</text></g><g id="elem_e"><rect fill="#F1F1F1" height="37.6094" style="stroke:#181818;stroke-width:0.5;" width="61" x="11" y="105"/><text fill="#000000" font-family="sans-serif" font-size="14" lengthAdjust="spacing" textLength="47" x="18" y="121.5332">queries</text><line style="stroke:#181818;stroke-width:0.5;" x1="12" x2="71" y1="126.6094" y2="126.6094"/></g><!--link p1 to e--><g id="link_p1_e"><path codeLine="7" d="M41.5,45.36 C41.5,62.54 41.5,72.51 41.5,89.68 " fill="none" id="p1-to-e" style="stroke:#181818;stroke-width:1.0;"/><line style="stroke:#181818;stroke-width:1.0;" x1="41.5" x2="41.5" y1="93.68" y2="104.68"/><ellipse cx="41.5" cy="93.68" fill="none" rx="4" ry="4" style="stroke:#181818;stroke-width:1.0;"/><line style="stroke:#181818;stroke-width:1.0;" x1="45.5" x2="37.5" y1="100.68" y2="100.68"/></g><!--link e to c1--><g id="link_e_c1"><path codeLine="8" d="M41.5,143.36 C41.5,160.54 41.5,177.51 41.5,194.68 " fill="none" id="e-to-c1" style="stroke:#181818;stroke-width:1.0;"/><line style="stroke:#181818;stroke-width:1.0;" x1="41.5" x2="47.5" y1="194.68" y2="202.68"/><line style="stroke:#181818;stroke-width:1.0;" x1="41.5" x2="35.5" y1="194.68" y2="202.68"/><line style="stroke:#181818;stroke-width:1.0;" x1="41.5" x2="41.5" y1="194.68" y2="202.68"/><line style="stroke:#181818;stroke-width:1.0;" x1="45.5" x2="37.5" y1="192.68" y2="192.68"/></g><!--SRC=[JOen3eCm301tly9Ypv1Fy0ytSbE3YTCaLK7mUABIWUrqTwHgtqLMIH7gB2bJeGLL4hSjCrffBmCe71gbg8p3KwcDebm7f8hPtzlxmsNx-U317bClbvJ_pf0zEcT79-vmxFqy0G00]--></g></svg>