<?xml version="1.0" encoding="us-ascii" standalone="no"?><svg xmlns="http://www.w3.org/2000/svg" xmlns:xlink="http://www.w3.org/1999/xlink" contentStyleType="text/css" height="255px" preserveAspectRatio="none" style="width:245px;height:255px;background:#FFFFFF;" version="1.1" viewBox="0 0 245 255" width="245px" zoomAndPan="magnify"><defs/><g><!--entity p1--><g id="elem_p1"><rect fill="#F1F1F1" height="37.6094" rx="2.5" ry="2.5" style="stroke:#181818;stroke-width:0.5;" width="128" x="52.5" y="7"/><text fill="#000000" font-family="sans-serif" font-size="14" lengthAdjust="spacing" textLength="108" x="62.5" y="31.5332">flatFileProcesses</text></g><!--entity c1--><g id="elem_c1"><rect fill="#F1F1F1" height="37.6094" rx="2.5" ry="2.5" style="stroke:#181818;stroke-width:0.5;" width="85" x="7" y="212"/><text fill="#000000" font-family="sans-serif" font-size="14" lengthAdjust="spacing" textLength="65" x="17" y="236.5332">processes</text></g><!--entity c2--><g id="elem_c2"><rect fill="#F1F1F1" height="37.6094" rx="2.5" ry="2.5" style="stroke:#181818;stroke-width:0.5;" width="112" x="127.5" y="212"/><text fill="#000000" font-family="sans-serif" font-size="14" lengthAdjust="spacing" textLength="92" x="137.5" y="236.5332">fieldProcesses</text></g><g id="elem_e"><rect fill="#F1F1F1" height="47.2188" style="stroke:#181818;stroke-width:0.5;" width="135" x="49" y="105"/><text fill="#000000" font-family="sans-serif" font-size="14" lengthAdjust="spacing" textLength="107" x="63" y="121.5332">recordProcesses</text><line style="stroke:#181818;stroke-width:0.5;" x1="50" x2="183" y1="126.6094" y2="126.6094"/><text fill="#000000" font-family="sans-serif" font-size="14" lengthAdjust="spacing" textLength="123" x="55" y="145.1426">definitionReference</text></g><!--link p1 to e--><g id="link_p1_e"><path codeLine="9" d="M116.5,45.28 C116.5,62.21 116.5,68.9 116.5,86.99 " fill="none" id="p1-to-e" style="stroke:#181818;stroke-width:1.0;"/><line style="stroke:#181818;stroke-width:1.0;" x1="116.5" x2="122.5" y1="96.99" y2="104.99"/><line style="stroke:#181818;stroke-width:1.0;" x1="116.5" x2="110.5" y1="96.99" y2="104.99"/><line style="stroke:#181818;stroke-width:1.0;" x1="116.5" x2="116.5" y1="96.99" y2="104.99"/><ellipse cx="116.5" cy="90.99" fill="none" rx="4" ry="4" style="stroke:#181818;stroke-width:1.0;"/></g><!--link e to c1--><g id="link_e_c1"><path codeLine="10" d="M70.5,152.02 C70.5,170.1 70.5,179.78 70.5,196.71 " fill="none" id="e-to-c1" style="stroke:#181818;stroke-width:1.0;"/><line style="stroke:#181818;stroke-width:1.0;" x1="70.5" x2="70.5" y1="200.71" y2="211.71"/><ellipse cx="70.5" cy="200.71" fill="none" rx="4" ry="4" style="stroke:#181818;stroke-width:1.0;"/><line style="stroke:#181818;stroke-width:1.0;" x1="74.5" x2="66.5" y1="207.71" y2="207.71"/></g><!--link e to c2--><g id="link_e_c2"><path codeLine="11" d="M155.75,152.02 C155.75,170.1 155.75,176.78 155.75,193.71 " fill="none" id="e-to-c2" style="stroke:#181818;stroke-width:1.0;"/><line style="stroke:#181818;stroke-width:1.0;" x1="155.75" x2="161.75" y1="203.71" y2="211.71"/><line style="stroke:#181818;stroke-width:1.0;" x1="155.75" x2="149.75" y1="203.71" y2="211.71"/><line style="stroke:#181818;stroke-width:1.0;" x1="155.75" x2="155.75" y1="203.71" y2="211.71"/><ellipse cx="155.75" cy="197.71" fill="none" rx="4" ry="4" style="stroke:#181818;stroke-width:1.0;"/></g><!--SRC=[NOqn3i8m40Hxl-AKFaLIyW1gn0-Cimu7bplBjWGHF1u33Q5RxSnglOZT5hwppgvSMPFFVY5XHLqJo78zctCPeNgT1TH5yNNFWaEsW59GElA5ql3hf0qB6nOPCct7ONHskZI5kYPQ_iDme1rDYAnSsVI8Y0mDS6cWlhV7nsZX-Rx2jmhZ2m00]--></g></svg>