<?xml version="1.0" encoding="us-ascii" standalone="no"?><svg xmlns="http://www.w3.org/2000/svg" xmlns:xlink="http://www.w3.org/1999/xlink" contentStyleType="text/css" height="273px" preserveAspectRatio="none" style="width:1224px;height:273px;background:#FFFFFF;" version="1.1" viewBox="0 0 1224 273" width="1224px" zoomAndPan="magnify"><defs/><g><!--entity p1--><g id="elem_p1"><rect fill="#F1F1F1" height="37.6094" rx="2.5" ry="2.5" style="stroke:#181818;stroke-width:0.5;" width="127" x="580" y="7"/><text fill="#000000" font-family="sans-serif" font-size="14" lengthAdjust="spacing" textLength="107" x="590" y="31.5332">recordDefinitions</text></g><!--entity c1--><g id="elem_c1"><rect fill="#F1F1F1" height="37.6094" rx="2.5" ry="2.5" style="stroke:#181818;stroke-width:0.5;" width="89" x="7" y="230"/><text fill="#000000" font-family="sans-serif" font-size="14" lengthAdjust="spacing" textLength="69" x="17" y="254.5332">description</text></g><!--entity c2--><g id="elem_c2"><rect fill="#F1F1F1" height="37.6094" rx="2.5" ry="2.5" style="stroke:#181818;stroke-width:0.5;" width="84" x="131.5" y="230"/><text fill="#000000" font-family="sans-serif" font-size="14" lengthAdjust="spacing" textLength="64" x="141.5" y="254.5332">properties</text></g><!--entity c3--><g id="elem_c3"><rect fill="#F1F1F1" height="37.6094" rx="2.5" ry="2.5" style="stroke:#181818;stroke-width:0.5;" width="187" x="251" y="230"/><text fill="#000000" font-family="sans-serif" font-size="14" lengthAdjust="spacing" textLength="167" x="261" y="254.5332">recordDefinitionFieldValue</text></g><!--entity c4--><g id="elem_c4"><rect fill="#F1F1F1" height="37.6094" rx="2.5" ry="2.5" style="stroke:#181818;stroke-width:0.5;" width="88" x="473.5" y="230"/><text fill="#000000" font-family="sans-serif" font-size="14" lengthAdjust="spacing" textLength="68" x="483.5" y="254.5332">incomplete</text></g><!--entity c5--><g id="elem_c5"><rect fill="#F1F1F1" height="37.6094" rx="2.5" ry="2.5" style="stroke:#181818;stroke-width:0.5;" width="93" x="597" y="230"/><text fill="#000000" font-family="sans-serif" font-size="14" lengthAdjust="spacing" textLength="73" x="607" y="254.5332">fixedLength</text></g><!--entity c6--><g id="elem_c6"><rect fill="#F1F1F1" height="37.6094" rx="2.5" ry="2.5" style="stroke:#181818;stroke-width:0.5;" width="127" x="725" y="230"/><text fill="#000000" font-family="sans-serif" font-size="14" lengthAdjust="spacing" textLength="107" x="735" y="254.5332">repeatingGroups</text></g><!--entity c7--><g id="elem_c7"><rect fill="#F1F1F1" height="37.6094" rx="2.5" ry="2.5" style="stroke:#181818;stroke-width:0.5;" width="49" x="887" y="230"/><text fill="#000000" font-family="sans-serif" font-size="14" lengthAdjust="spacing" textLength="29" x="897" y="254.5332">keys</text></g><!--entity c8--><g id="elem_c8"><rect fill="#F1F1F1" height="37.6094" rx="2.5" ry="2.5" style="stroke:#181818;stroke-width:0.5;" width="112" x="971.5" y="230"/><text fill="#000000" font-family="sans-serif" font-size="14" lengthAdjust="spacing" textLength="92" x="981.5" y="254.5332">fieldDefinitions</text></g><!--entity c9--><g id="elem_c9"><rect fill="#F1F1F1" height="37.6094" rx="2.5" ry="2.5" style="stroke:#181818;stroke-width:0.5;" width="99" x="1119" y="230"/><text fill="#000000" font-family="sans-serif" font-size="14" lengthAdjust="spacing" textLength="79" x="1129" y="254.5332">headerLevel</text></g><g id="elem_e"><rect fill="#F1F1F1" height="64.8281" style="stroke:#181818;stroke-width:0.5;" width="114" x="586.5" y="105"/><text fill="#000000" font-family="sans-serif" font-size="14" lengthAdjust="spacing" textLength="100" x="593.5" y="121.5332">recordDefinition</text><line style="stroke:#181818;stroke-width:0.5;" x1="587.5" x2="699.5" y1="126.6094" y2="126.6094"/><text fill="#000000" font-family="sans-serif" font-size="14" lengthAdjust="spacing" textLength="35" x="592.5" y="145.1426">name</text><text fill="#000000" font-family="sans-serif" font-size="14" lengthAdjust="spacing" textLength="93" x="592.5" y="162.752">typeReference</text></g><!--link p1 to e--><g id="link_p1_e"><path codeLine="17" d="M643.5,45.17 C643.5,61.48 643.5,77.28 643.5,96.62 " fill="none" id="p1-to-e" style="stroke:#181818;stroke-width:1.0;"/><line style="stroke:#181818;stroke-width:1.0;" x1="643.5" x2="649.5" y1="96.62" y2="104.62"/><line style="stroke:#181818;stroke-width:1.0;" x1="643.5" x2="637.5" y1="96.62" y2="104.62"/><line style="stroke:#181818;stroke-width:1.0;" x1="643.5" x2="643.5" y1="96.62" y2="104.62"/><line style="stroke:#181818;stroke-width:1.0;" x1="647.5" x2="639.5" y1="94.62" y2="94.62"/></g><!--link e to c1--><g id="link_e_c1"><path codeLine="18" d="M586.47,122 C438.1,122 51.5,122 51.5,122 C51.5,122 51.5,179.56 51.5,214.99 " fill="none" id="e-to-c1" style="stroke:#181818;stroke-width:1.0;"/><line style="stroke:#181818;stroke-width:1.0;" x1="51.5" x2="51.5" y1="218.99" y2="229.99"/><ellipse cx="51.5" cy="218.99" fill="none" rx="4" ry="4" style="stroke:#181818;stroke-width:1.0;"/><line style="stroke:#181818;stroke-width:1.0;" x1="55.5" x2="47.5" y1="225.99" y2="225.99"/></g><!--link e to c2--><g id="link_e_c2"><path codeLine="19" d="M586.34,138 C461.08,138 173.5,138 173.5,138 C173.5,138 173.5,183.18 173.5,214.92 " fill="none" id="e-to-c2" style="stroke:#181818;stroke-width:1.0;"/><line style="stroke:#181818;stroke-width:1.0;" x1="173.5" x2="173.5" y1="218.92" y2="229.92"/><ellipse cx="173.5" cy="218.92" fill="none" rx="4" ry="4" style="stroke:#181818;stroke-width:1.0;"/><line style="stroke:#181818;stroke-width:1.0;" x1="177.5" x2="169.5" y1="225.92" y2="225.92"/></g><!--link e to c3--><g id="link_e_c3"><path codeLine="20" d="M586.2,154 C499.38,154 344.5,154 344.5,154 C344.5,154 344.5,187.02 344.5,214.78 " fill="none" id="e-to-c3" style="stroke:#181818;stroke-width:1.0;"/><line style="stroke:#181818;stroke-width:1.0;" x1="344.5" x2="344.5" y1="218.78" y2="229.78"/><ellipse cx="344.5" cy="218.78" fill="none" rx="4" ry="4" style="stroke:#181818;stroke-width:1.0;"/><line style="stroke:#181818;stroke-width:1.0;" x1="348.5" x2="340.5" y1="225.78" y2="225.78"/></g><!--link e to c4--><g id="link_e_c4"><path codeLine="21" d="M591.75,170.05 C591.75,202.96 591.75,249 591.75,249 C591.75,249 592.54,249 576.55,249 " fill="none" id="e-to-c4" style="stroke:#181818;stroke-width:1.0;"/><line style="stroke:#181818;stroke-width:1.0;" x1="572.55" x2="561.55" y1="249" y2="249"/><ellipse cx="572.55" cy="249" fill="none" rx="4" ry="4" style="stroke:#181818;stroke-width:1.0;"/><line style="stroke:#181818;stroke-width:1.0;" x1="565.55" x2="565.55" y1="253" y2="245"/></g><!--link e to c5--><g id="link_e_c5"><path codeLine="22" d="M643.5,170.05 C643.5,189.46 643.5,198.44 643.5,214.85 " fill="none" id="e-to-c5" style="stroke:#181818;stroke-width:1.0;"/><line style="stroke:#181818;stroke-width:1.0;" x1="643.5" x2="643.5" y1="218.85" y2="229.85"/><ellipse cx="643.5" cy="218.85" fill="none" rx="4" ry="4" style="stroke:#181818;stroke-width:1.0;"/><line style="stroke:#181818;stroke-width:1.0;" x1="647.5" x2="639.5" y1="225.85" y2="225.85"/></g><!--link e to c6--><g id="link_e_c6"><path codeLine="23" d="M695.25,170.05 C695.25,202.96 695.25,249 695.25,249 C695.25,249 693.36,249 709.75,249 " fill="none" id="e-to-c6" style="stroke:#181818;stroke-width:1.0;"/><line style="stroke:#181818;stroke-width:1.0;" x1="713.75" x2="724.75" y1="249" y2="249"/><ellipse cx="713.75" cy="249" fill="none" rx="4" ry="4" style="stroke:#181818;stroke-width:1.0;"/><line style="stroke:#181818;stroke-width:1.0;" x1="720.75" x2="720.75" y1="245" y2="253"/></g><!--link e to c7--><g id="link_e_c7"><path codeLine="24" d="M700.66,154 C779.37,154 911.5,154 911.5,154 C911.5,154 911.5,187.02 911.5,214.78 " fill="none" id="e-to-c7" style="stroke:#181818;stroke-width:1.0;"/><line style="stroke:#181818;stroke-width:1.0;" x1="911.5" x2="911.5" y1="218.78" y2="229.78"/><ellipse cx="911.5" cy="218.78" fill="none" rx="4" ry="4" style="stroke:#181818;stroke-width:1.0;"/><line style="stroke:#181818;stroke-width:1.0;" x1="915.5" x2="907.5" y1="225.78" y2="225.78"/></g><!--link e to c8--><g id="link_e_c8"><path codeLine="25" d="M700.57,138 C807.54,138 1027.5,138 1027.5,138 C1027.5,138 1027.5,190.18 1027.5,221.92 " fill="none" id="e-to-c8" style="stroke:#181818;stroke-width:1.0;"/><line style="stroke:#181818;stroke-width:1.0;" x1="1031.5" x2="1023.5" y1="225.92" y2="225.92"/><line style="stroke:#181818;stroke-width:1.0;" x1="1031.5" x2="1023.5" y1="222.92" y2="222.92"/><line style="stroke:#181818;stroke-width:1.0;" x1="1027.5" x2="1027.5" y1="221.92" y2="229.92"/></g><!--link e to c9--><g id="link_e_c9"><path codeLine="26" d="M700.68,122 C836.75,122 1168.5,122 1168.5,122 C1168.5,122 1168.5,179.56 1168.5,214.99 " fill="none" id="e-to-c9" style="stroke:#181818;stroke-width:1.0;"/><line style="stroke:#181818;stroke-width:1.0;" x1="1168.5" x2="1168.5" y1="218.99" y2="229.99"/><ellipse cx="1168.5" cy="218.99" fill="none" rx="4" ry="4" style="stroke:#181818;stroke-width:1.0;"/><line style="stroke:#181818;stroke-width:1.0;" x1="1172.5" x2="1164.5" y1="225.99" y2="225.99"/></g><!--SRC=[VP0zRyCW48PtVWNAxY7VJUUgNJ9ro4xXjNqD1eH9awZ-yRMDWt0hTNjqpyjnTq9hUsteHgPYxPcC4ruqN9D1k3jmwqDj6VEGGPXAWozwj5wze2H3WQnf5roqt2tpZ48hFRb1ZrREhFFMmGT2V2fN_xL_9MXr4lg265xdOJBIDauZJ7AJov9kK4UOAjJHRkV_E8ZGR_tcxSLDa-pon1dtgRoVj-q7-hs-VCeZDOI2F-8BEje3in-VlV-xtkZ1m9-v4Ks4uV3lAE5X99XRygBeliTGKTXkEEQ3LedMYJQ9jebsYVOZTTqmyQDs-040]--></g></svg>