<?xml version="1.0" encoding="us-ascii" standalone="no"?><svg xmlns="http://www.w3.org/2000/svg" xmlns:xlink="http://www.w3.org/1999/xlink" contentStyleType="text/css" height="255px" preserveAspectRatio="none" style="width:207px;height:255px;background:#FFFFFF;" version="1.1" viewBox="0 0 207 255" width="207px" zoomAndPan="magnify"><defs/><g><!--entity p1--><g id="elem_p1"><rect fill="#F1F1F1" height="37.6094" rx="2.5" ry="2.5" style="stroke:#181818;stroke-width:0.5;" width="100" x="58.5" y="7"/><text fill="#000000" font-family="sans-serif" font-size="14" lengthAdjust="spacing" textLength="80" x="68.5" y="31.5332">recordTypes</text></g><!--entity c1--><g id="elem_c1"><rect fill="#F1F1F1" height="37.6094" rx="2.5" ry="2.5" style="stroke:#181818;stroke-width:0.5;" width="89" x="7" y="212"/><text fill="#000000" font-family="sans-serif" font-size="14" lengthAdjust="spacing" textLength="69" x="17" y="236.5332">description</text></g><!--entity c2--><g id="elem_c2"><rect fill="#F1F1F1" height="37.6094" rx="2.5" ry="2.5" style="stroke:#181818;stroke-width:0.5;" width="70" x="131.5" y="212"/><text fill="#000000" font-family="sans-serif" font-size="14" lengthAdjust="spacing" textLength="50" x="141.5" y="236.5332">trimmed</text></g><g id="elem_e"><rect fill="#F1F1F1" height="47.2188" style="stroke:#181818;stroke-width:0.5;" width="87" x="65" y="105"/><text fill="#000000" font-family="sans-serif" font-size="14" lengthAdjust="spacing" textLength="73" x="72" y="121.5332">recordType</text><line style="stroke:#181818;stroke-width:0.5;" x1="66" x2="151" y1="126.6094" y2="126.6094"/><text fill="#000000" font-family="sans-serif" font-size="14" lengthAdjust="spacing" textLength="35" x="71" y="145.1426">name</text></g><!--link p1 to e--><g id="link_p1_e"><path codeLine="9" d="M108.5,45.28 C108.5,62.21 108.5,78.9 108.5,96.99 " fill="none" id="p1-to-e" style="stroke:#181818;stroke-width:1.0;"/><line style="stroke:#181818;stroke-width:1.0;" x1="108.5" x2="114.5" y1="96.99" y2="104.99"/><line style="stroke:#181818;stroke-width:1.0;" x1="108.5" x2="102.5" y1="96.99" y2="104.99"/><line style="stroke:#181818;stroke-width:1.0;" x1="108.5" x2="108.5" y1="96.99" y2="104.99"/><line style="stroke:#181818;stroke-width:1.0;" x1="112.5" x2="104.5" y1="94.99" y2="94.99"/></g><!--link e to c1--><g id="link_e_c1"><path codeLine="10" d="M80.5,152.02 C80.5,170.1 80.5,179.78 80.5,196.71 " fill="none" id="e-to-c1" style="stroke:#181818;stroke-width:1.0;"/><line style="stroke:#181818;stroke-width:1.0;" x1="80.5" x2="80.5" y1="200.71" y2="211.71"/><ellipse cx="80.5" cy="200.71" fill="none" rx="4" ry="4" style="stroke:#181818;stroke-width:1.0;"/><line style="stroke:#181818;stroke-width:1.0;" x1="84.5" x2="76.5" y1="207.71" y2="207.71"/></g><!--link e to c2--><g id="link_e_c2"><path codeLine="11" d="M141.75,152.02 C141.75,170.1 141.75,179.78 141.75,196.71 " fill="none" id="e-to-c2" style="stroke:#181818;stroke-width:1.0;"/><line style="stroke:#181818;stroke-width:1.0;" x1="141.75" x2="141.75" y1="200.71" y2="211.71"/><ellipse cx="141.75" cy="200.71" fill="none" rx="4" ry="4" style="stroke:#181818;stroke-width:1.0;"/><line style="stroke:#181818;stroke-width:1.0;" x1="145.75" x2="137.75" y1="207.71" y2="207.71"/></g><!--SRC=[LSmn3i8m38NXFQUmkcTeHyx11KnY5KDYHquaGFJm3K58PVlrFkbXIlh8_6HPNRsp53JCa5YelGg1MhkgSqQXeQo9OEgf5iyTwmHOeSn7ZLI3SMciCZJyQJFEcU9N5gUNMxVZvH1o12SGpEJA3Dvlxp5vhzldxrVB3W00]--></g></svg>