<?xml version="1.0" encoding="us-ascii" standalone="no"?><svg xmlns="http://www.w3.org/2000/svg" xmlns:xlink="http://www.w3.org/1999/xlink" contentStyleType="text/css" height="148px" preserveAspectRatio="none" style="width:286px;height:148px;background:#FFFFFF;" version="1.1" viewBox="0 0 286 148" width="286px" zoomAndPan="magnify"><defs/><g><!--entity p1--><g id="elem_p1"><rect fill="#F1F1F1" height="37.6094" rx="2.5" ry="2.5" style="stroke:#181818;stroke-width:0.5;" width="117" x="7" y="7"/><text fill="#000000" font-family="sans-serif" font-size="14" lengthAdjust="spacing" textLength="97" x="17" y="31.5332">fixedFileFormat</text></g><!--entity p2--><g id="elem_p2"><rect fill="#F1F1F1" height="37.6094" rx="2.5" ry="2.5" style="stroke:#181818;stroke-width:0.5;" width="121" x="159" y="7"/><text fill="#000000" font-family="sans-serif" font-size="14" lengthAdjust="spacing" textLength="101" x="169" y="31.5332">delimFileFormat</text></g><g id="elem_e"><rect fill="#F1F1F1" height="37.6094" style="stroke:#181818;stroke-width:0.5;" width="118" x="83.5" y="105"/><text fill="#000000" font-family="sans-serif" font-size="14" lengthAdjust="spacing" textLength="104" x="90.5" y="121.5332">recordSeparator</text><line style="stroke:#181818;stroke-width:0.5;" x1="84.5" x2="200.5" y1="126.6094" y2="126.6094"/></g><!--link p1 to e--><g id="link_p1_e"><path codeLine="7" d="M103.75,45.36 C103.75,62.54 103.75,72.51 103.75,89.68 " fill="none" id="p1-to-e" style="stroke:#181818;stroke-width:1.0;"/><line style="stroke:#181818;stroke-width:1.0;" x1="103.75" x2="103.75" y1="93.68" y2="104.68"/><ellipse cx="103.75" cy="93.68" fill="none" rx="4" ry="4" style="stroke:#181818;stroke-width:1.0;"/><line style="stroke:#181818;stroke-width:1.0;" x1="107.75" x2="99.75" y1="100.68" y2="100.68"/></g><!--link p2 to e--><g id="link_p2_e"><path codeLine="8" d="M180.25,45.36 C180.25,62.54 180.25,79.51 180.25,96.68 " fill="none" id="p2-to-e" style="stroke:#181818;stroke-width:1.0;"/><line style="stroke:#181818;stroke-width:1.0;" x1="184.25" x2="176.25" y1="100.68" y2="100.68"/><line style="stroke:#181818;stroke-width:1.0;" x1="184.25" x2="176.25" y1="97.68" y2="97.68"/><line style="stroke:#181818;stroke-width:1.0;" x1="180.25" x2="180.25" y1="96.68" y2="104.68"/></g><!--SRC=[NSqn3i8m38NXtQUmidTe3z4BS093J34uSUHQeaWzV5CcnFPBxvCUgTgxo2PrWVKbjP5JGPNAyMcCvl4m0ETRK5sKCTrbupoBycnUA1BIYcty5PbLoh-OmAxFRZ1rQPulV3w5-NTcQ2CEW-rdJRtsNWS0]--></g></svg>