<?xml version="1.0" encoding="us-ascii" standalone="no"?><svg xmlns="http://www.w3.org/2000/svg" xmlns:xlink="http://www.w3.org/1999/xlink" contentStyleType="text/css" height="255px" preserveAspectRatio="none" style="width:180px;height:255px;background:#FFFFFF;" version="1.1" viewBox="0 0 180 255" width="180px" zoomAndPan="magnify"><defs/><g><!--entity p1--><g id="elem_p1"><rect fill="#F1F1F1" height="37.6094" rx="2.5" ry="2.5" style="stroke:#181818;stroke-width:0.5;" width="67" x="56" y="7"/><text fill="#000000" font-family="sans-serif" font-size="14" lengthAdjust="spacing" textLength="47" x="66" y="31.5332">dataset</text></g><!--entity c1--><g id="elem_c1"><rect fill="#F1F1F1" height="37.6094" rx="2.5" ry="2.5" style="stroke:#181818;stroke-width:0.5;" width="65" x="7" y="212"/><text fill="#000000" font-family="sans-serif" font-size="14" lengthAdjust="spacing" textLength="45" x="17" y="236.5332">context</text></g><!--entity c2--><g id="elem_c2"><rect fill="#F1F1F1" height="37.6094" rx="2.5" ry="2.5" style="stroke:#181818;stroke-width:0.5;" width="67" x="107" y="212"/><text fill="#000000" font-family="sans-serif" font-size="14" lengthAdjust="spacing" textLength="47" x="117" y="236.5332">content</text></g><g id="elem_e"><rect fill="#F1F1F1" height="47.2188" style="stroke:#181818;stroke-width:0.5;" width="75" x="52" y="105"/><text fill="#000000" font-family="sans-serif" font-size="14" lengthAdjust="spacing" textLength="61" x="59" y="121.5332">reference</text><line style="stroke:#181818;stroke-width:0.5;" x1="53" x2="126" y1="126.6094" y2="126.6094"/><text fill="#000000" font-family="sans-serif" font-size="14" lengthAdjust="spacing" textLength="35" x="58" y="145.1426">name</text></g><!--link p1 to e--><g id="link_p1_e"><path codeLine="9" d="M89.5,45.28 C89.5,62.21 89.5,71.9 89.5,89.99 " fill="none" id="p1-to-e" style="stroke:#181818;stroke-width:1.0;"/><line style="stroke:#181818;stroke-width:1.0;" x1="89.5" x2="89.5" y1="93.99" y2="104.99"/><ellipse cx="89.5" cy="93.99" fill="none" rx="4" ry="4" style="stroke:#181818;stroke-width:1.0;"/><line style="stroke:#181818;stroke-width:1.0;" x1="93.5" x2="85.5" y1="100.99" y2="100.99"/></g><!--link e to c1--><g id="link_e_c1"><path codeLine="10" d="M62,152.02 C62,170.1 62,179.78 62,196.71 " fill="none" id="e-to-c1" style="stroke:#181818;stroke-width:1.0;"/><line style="stroke:#181818;stroke-width:1.0;" x1="62" x2="62" y1="200.71" y2="211.71"/><ellipse cx="62" cy="200.71" fill="none" rx="4" ry="4" style="stroke:#181818;stroke-width:1.0;"/><line style="stroke:#181818;stroke-width:1.0;" x1="66" x2="58" y1="207.71" y2="207.71"/></g><!--link e to c2--><g id="link_e_c2"><path codeLine="11" d="M117,152.02 C117,170.1 117,179.78 117,196.71 " fill="none" id="e-to-c2" style="stroke:#181818;stroke-width:1.0;"/><line style="stroke:#181818;stroke-width:1.0;" x1="117" x2="117" y1="200.71" y2="211.71"/><ellipse cx="117" cy="200.71" fill="none" rx="4" ry="4" style="stroke:#181818;stroke-width:1.0;"/><line style="stroke:#181818;stroke-width:1.0;" x1="121" x2="113" y1="207.71" y2="207.71"/></g><!--SRC=[PSp12W8n38JXUvuYzBw7tQDl4-kuLjkaj05NyE5TgeBWxMS-6CdPxYLjILVgjwHLcXJEIU6F2hRc5oDgY2wwPd0uYKk71vRETVwLQEhOtXB_HJ-oa1slkt5eEAD18mQ0m0TMAQ0wypJPSqmZzhjlBIy0]--></g></svg>