<?xml version="1.0" encoding="us-ascii" standalone="no"?><svg xmlns="http://www.w3.org/2000/svg" xmlns:xlink="http://www.w3.org/1999/xlink" contentStyleType="text/css" height="246px" preserveAspectRatio="none" style="width:134px;height:246px;background:#FFFFFF;" version="1.1" viewBox="0 0 134 246" width="134px" zoomAndPan="magnify"><defs/><g><!--entity p1--><g id="elem_p1"><rect fill="#F1F1F1" height="37.6094" rx="2.5" ry="2.5" style="stroke:#181818;stroke-width:0.5;" width="120" x="7.5" y="7"/><text fill="#000000" font-family="sans-serif" font-size="14" lengthAdjust="spacing" textLength="100" x="17.5" y="31.5332">recordDefinition</text></g><!--entity c1--><g id="elem_c1"><rect fill="#F1F1F1" height="37.6094" rx="2.5" ry="2.5" style="stroke:#181818;stroke-width:0.5;" width="120" x="7.5" y="203"/><text fill="#000000" font-family="sans-serif" font-size="14" lengthAdjust="spacing" textLength="100" x="17.5" y="227.5332">repeatingGroup</text></g><g id="elem_e"><rect fill="#F1F1F1" height="37.6094" style="stroke:#181818;stroke-width:0.5;" width="121" x="7" y="105"/><text fill="#000000" font-family="sans-serif" font-size="14" lengthAdjust="spacing" textLength="107" x="14" y="121.5332">repeatingGroups</text><line style="stroke:#181818;stroke-width:0.5;" x1="8" x2="127" y1="126.6094" y2="126.6094"/></g><!--link p1 to e--><g id="link_p1_e"><path codeLine="7" d="M67.5,45.36 C67.5,62.54 67.5,72.51 67.5,89.68 " fill="none" id="p1-to-e" style="stroke:#181818;stroke-width:1.0;"/><line style="stroke:#181818;stroke-width:1.0;" x1="67.5" x2="67.5" y1="93.68" y2="104.68"/><ellipse cx="67.5" cy="93.68" fill="none" rx="4" ry="4" style="stroke:#181818;stroke-width:1.0;"/><line style="stroke:#181818;stroke-width:1.0;" x1="71.5" x2="63.5" y1="100.68" y2="100.68"/></g><!--link e to c1--><g id="link_e_c1"><path codeLine="8" d="M67.5,143.36 C67.5,160.54 67.5,177.51 67.5,194.68 " fill="none" id="e-to-c1" style="stroke:#181818;stroke-width:1.0;"/><line style="stroke:#181818;stroke-width:1.0;" x1="67.5" x2="73.5" y1="194.68" y2="202.68"/><line style="stroke:#181818;stroke-width:1.0;" x1="67.5" x2="61.5" y1="194.68" y2="202.68"/><line style="stroke:#181818;stroke-width:1.0;" x1="67.5" x2="67.5" y1="194.68" y2="202.68"/><line style="stroke:#181818;stroke-width:1.0;" x1="71.5" x2="63.5" y1="192.68" y2="192.68"/></g><!--SRC=[NOmn3i9030JxUuMLFiNz0ObtE8a9Xejj-Om0aSTZfODkf9bTR4sV6xzOrjBlB8QE6pGMYhSHgCTLIt6Q0sLj14EY-dAY2mi7gmo07Qp-9aOO-NXsVTWHpBNeTClat_P3Kx4AuwXx4YNidrny0G00]--></g></svg>