<?xml version="1.0" encoding="us-ascii" standalone="no"?><svg xmlns="http://www.w3.org/2000/svg" xmlns:xlink="http://www.w3.org/1999/xlink" contentStyleType="text/css" height="246px" preserveAspectRatio="none" style="width:370px;height:246px;background:#FFFFFF;" version="1.1" viewBox="0 0 370 246" width="370px" zoomAndPan="magnify"><defs/><g><!--entity p1--><g id="elem_p1"><rect fill="#F1F1F1" height="37.6094" rx="2.5" ry="2.5" style="stroke:#181818;stroke-width:0.5;" width="69" x="159" y="7"/><text fill="#000000" font-family="sans-serif" font-size="14" lengthAdjust="spacing" textLength="49" x="169" y="31.5332">flatFiles</text></g><!--entity c1--><g id="elem_c1"><rect fill="#F1F1F1" height="37.6094" rx="2.5" ry="2.5" style="stroke:#181818;stroke-width:0.5;" width="101" x="7" y="203"/><text fill="#000000" font-family="sans-serif" font-size="14" lengthAdjust="spacing" textLength="81" x="17" y="227.5332">flatFileTypes</text></g><!--entity c2--><g id="elem_c2"><rect fill="#F1F1F1" height="37.6094" rx="2.5" ry="2.5" style="stroke:#181818;stroke-width:0.5;" width="100" x="143.5" y="203"/><text fill="#000000" font-family="sans-serif" font-size="14" lengthAdjust="spacing" textLength="80" x="153.5" y="227.5332">recordTypes</text></g><!--entity c3--><g id="elem_c3"><rect fill="#F1F1F1" height="37.6094" rx="2.5" ry="2.5" style="stroke:#181818;stroke-width:0.5;" width="85" x="279" y="203"/><text fill="#000000" font-family="sans-serif" font-size="14" lengthAdjust="spacing" textLength="65" x="289" y="227.5332">fieldTypes</text></g><g id="elem_e"><rect fill="#F1F1F1" height="37.6094" style="stroke:#181818;stroke-width:0.5;" width="109" x="139" y="105"/><text fill="#000000" font-family="sans-serif" font-size="14" lengthAdjust="spacing" textLength="95" x="146" y="121.5332">structureTypes</text><line style="stroke:#181818;stroke-width:0.5;" x1="140" x2="247" y1="126.6094" y2="126.6094"/></g><!--link p1 to e--><g id="link_p1_e"><path codeLine="9" d="M193.5,45.36 C193.5,62.54 193.5,79.51 193.5,96.68 " fill="none" id="p1-to-e" style="stroke:#181818;stroke-width:1.0;"/><line style="stroke:#181818;stroke-width:1.0;" x1="197.5" x2="189.5" y1="100.68" y2="100.68"/><line style="stroke:#181818;stroke-width:1.0;" x1="197.5" x2="189.5" y1="97.68" y2="97.68"/><line style="stroke:#181818;stroke-width:1.0;" x1="193.5" x2="193.5" y1="96.68" y2="104.68"/></g><!--link e to c1--><g id="link_e_c1"><path codeLine="10" d="M138.97,124 C101.13,124 57.5,124 57.5,124 C57.5,124 57.5,166.08 57.5,194.64 " fill="none" id="e-to-c1" style="stroke:#181818;stroke-width:1.0;"/><line style="stroke:#181818;stroke-width:1.0;" x1="61.5" x2="53.5" y1="198.64" y2="198.64"/><line style="stroke:#181818;stroke-width:1.0;" x1="61.5" x2="53.5" y1="195.64" y2="195.64"/><line style="stroke:#181818;stroke-width:1.0;" x1="57.5" x2="57.5" y1="194.64" y2="202.64"/></g><!--link e to c2--><g id="link_e_c2"><path codeLine="11" d="M193.5,143.36 C193.5,160.54 193.5,170.51 193.5,187.68 " fill="none" id="e-to-c2" style="stroke:#181818;stroke-width:1.0;"/><line style="stroke:#181818;stroke-width:1.0;" x1="193.5" x2="193.5" y1="191.68" y2="202.68"/><ellipse cx="193.5" cy="191.68" fill="none" rx="4" ry="4" style="stroke:#181818;stroke-width:1.0;"/><line style="stroke:#181818;stroke-width:1.0;" x1="197.5" x2="189.5" y1="198.68" y2="198.68"/></g><!--link e to c3--><g id="link_e_c3"><path codeLine="12" d="M248.15,124 C282.94,124 321.5,124 321.5,124 C321.5,124 321.5,166.08 321.5,194.64 " fill="none" id="e-to-c3" style="stroke:#181818;stroke-width:1.0;"/><line style="stroke:#181818;stroke-width:1.0;" x1="325.5" x2="317.5" y1="198.64" y2="198.64"/><line style="stroke:#181818;stroke-width:1.0;" x1="325.5" x2="317.5" y1="195.64" y2="195.64"/><line style="stroke:#181818;stroke-width:1.0;" x1="321.5" x2="321.5" y1="194.64" y2="202.64"/></g><!--SRC=[ROr13i8m30JlUONLUm-bV-05V204Kmnk73cke58UJweAAPMuZNQqkvvPtZDzA4ukloWchtu6feYs9WHHUuXpYi5yd1YXkxEtCp7c3do6DFnpbrhTVJZuYgAtnfuERK9kvUZa-gmQkcow15kq6KQN1kZxKYhX3lLh8odRxYyRlm00]--></g></svg>