<?xml version="1.0" encoding="us-ascii" standalone="no"?><svg xmlns="http://www.w3.org/2000/svg" xmlns:xlink="http://www.w3.org/1999/xlink" contentStyleType="text/css" height="148px" preserveAspectRatio="none" style="width:253px;height:148px;background:#FFFFFF;" version="1.1" viewBox="0 0 253 148" width="253px" zoomAndPan="magnify"><defs/><g><!--entity p1--><g id="elem_p1"><rect fill="#F1F1F1" height="37.6094" rx="2.5" ry="2.5" style="stroke:#181818;stroke-width:0.5;" width="132" x="7" y="7"/><text fill="#000000" font-family="sans-serif" font-size="14" lengthAdjust="spacing" textLength="112" x="17" y="31.5332">additionalElement</text></g><!--entity p2--><g id="elem_p2"><rect fill="#F1F1F1" height="37.6094" rx="2.5" ry="2.5" style="stroke:#181818;stroke-width:0.5;" width="73" x="174.5" y="7"/><text fill="#000000" font-family="sans-serif" font-size="14" lengthAdjust="spacing" textLength="53" x="184.5" y="31.5332">property</text></g><g id="elem_e"><rect fill="#F1F1F1" height="37.6094" style="stroke:#181818;stroke-width:0.5;" width="48" x="118" y="105"/><text fill="#000000" font-family="sans-serif" font-size="14" lengthAdjust="spacing" textLength="34" x="125" y="121.5332">value</text><line style="stroke:#181818;stroke-width:0.5;" x1="119" x2="165" y1="126.6094" y2="126.6094"/></g><!--link p1 to e--><g id="link_p1_e"><path codeLine="7" d="M128.5,45.36 C128.5,62.54 128.5,72.51 128.5,89.68 " fill="none" id="p1-to-e" style="stroke:#181818;stroke-width:1.0;"/><line style="stroke:#181818;stroke-width:1.0;" x1="128.5" x2="128.5" y1="93.68" y2="104.68"/><ellipse cx="128.5" cy="93.68" fill="none" rx="4" ry="4" style="stroke:#181818;stroke-width:1.0;"/><line style="stroke:#181818;stroke-width:1.0;" x1="132.5" x2="124.5" y1="100.68" y2="100.68"/></g><!--link p2 to e--><g id="link_p2_e"><path codeLine="8" d="M174.28,26 C162.53,26 152.5,26 152.5,26 C152.5,26 152.5,61.08 152.5,89.64 " fill="none" id="p2-to-e" style="stroke:#181818;stroke-width:1.0;"/><line style="stroke:#181818;stroke-width:1.0;" x1="152.5" x2="152.5" y1="93.64" y2="104.64"/><ellipse cx="152.5" cy="93.64" fill="none" rx="4" ry="4" style="stroke:#181818;stroke-width:1.0;"/><line style="stroke:#181818;stroke-width:1.0;" x1="156.5" x2="148.5" y1="100.64" y2="100.64"/></g><!--SRC=[JOfB3i9G203td8AyVHVj7Jm8Mb9H7X2AdoOUtk_2tMHcIDLlNUvY2wndiQ2aZYh6jGMZPnqT8FbGP8ioDffdAN4ZtIbtjcf8AyRu_qHwSDRsJHFu_lIAsAwa5_v8XXXn6Fpnfkb7Jm00]--></g></svg>