<?xml version="1.0" encoding="us-ascii" standalone="no"?><svg xmlns="http://www.w3.org/2000/svg" xmlns:xlink="http://www.w3.org/1999/xlink" contentStyleType="text/css" height="241px" preserveAspectRatio="none" style="width:477px;height:241px;background:#FFFFFF;" version="1.1" viewBox="0 0 477 241" width="477px" zoomAndPan="magnify"><defs/><g><!--entity flatFile--><g id="elem_flatFile"><rect fill="#F1F1F1" height="36.2969" rx="2.5" ry="2.5" style="stroke:#181818;stroke-width:0.5;" width="70" x="182" y="7"/><text fill="#000000" font-family="sans-serif" font-size="14" lengthAdjust="spacing" textLength="50" x="192" y="29.9951">flatFile</text></g><!--entity fileName--><g id="elem_fileName"><rect fill="#F1F1F1" height="36.2969" rx="2.5" ry="2.5" style="stroke:#181818;stroke-width:0.5;" width="84" x="7" y="103"/><text fill="#000000" font-family="sans-serif" font-size="14" lengthAdjust="spacing" textLength="64" x="17" y="125.9951">fileName</text></g><!--entity numberOfOccurrences--><g id="elem_numberOfOccurrences"><rect fill="#F1F1F1" height="36.2969" rx="2.5" ry="2.5" style="stroke:#181818;stroke-width:0.5;" width="182" x="126" y="103"/><text fill="#000000" font-family="sans-serif" font-size="14" lengthAdjust="spacing" textLength="162" x="136" y="125.9951">numberOfOccurrences</text></g><!--entity checksum--><g id="elem_checksum"><rect fill="#F1F1F1" height="36.2969" rx="2.5" ry="2.5" style="stroke:#181818;stroke-width:0.5;" width="92" x="343" y="103"/><text fill="#000000" font-family="sans-serif" font-size="14" lengthAdjust="spacing" textLength="72" x="353" y="125.9951">checksum</text></g><!--entity algorithm--><g id="elem_algorithm"><rect fill="#F1F1F1" height="36.2969" rx="2.5" ry="2.5" style="stroke:#181818;stroke-width:0.5;" width="90" x="289" y="199"/><text fill="#000000" font-family="sans-serif" font-size="14" lengthAdjust="spacing" textLength="70" x="299" y="221.9951">algorithm</text></g><!--entity value--><g id="elem_value"><rect fill="#F1F1F1" height="36.2969" rx="2.5" ry="2.5" style="stroke:#181818;stroke-width:0.5;" width="57" x="414.5" y="199"/><text fill="#000000" font-family="sans-serif" font-size="14" lengthAdjust="spacing" textLength="37" x="424.5" y="221.9951">value</text></g><!--link flatFile to fileName--><g id="link_flatFile_fileName"><path d="M181.782,25 C132.519,25 49,25 49,25 C49,25 49,75.134 49,102.943 " fill="none" id="flatFile-fileName" style="stroke:#181818;stroke-width:1.0;"/></g><!--link flatFile to numberOfOccurrences--><g id="link_flatFile_numberOfOccurrences"><path d="M217,43.057 C217,60.112 217,85.563 217,102.698 " fill="none" id="flatFile-numberOfOccurrences" style="stroke:#181818;stroke-width:1.0;"/></g><!--link flatFile to checksum--><g id="link_flatFile_checksum"><path d="M252.222,25 C302.543,25 389,25 389,25 C389,25 389,75.134 389,102.943 " fill="none" id="flatFile-checksum" style="stroke:#181818;stroke-width:1.0;"/></g><!--link checksum to algorithm--><g id="link_checksum_algorithm"><path d="M361,139.0569 C361,156.1115 361,181.5631 361,198.6977 " fill="none" id="checksum-algorithm" style="stroke:#181818;stroke-width:1.0;"/></g><!--link checksum to value--><g id="link_checksum_value"><path d="M424.75,139.0569 C424.75,156.1115 424.75,181.5631 424.75,198.6977 " fill="none" id="checksum-value" style="stroke:#181818;stroke-width:1.0;"/></g><!--SRC=[RSsx3SCm34NHNbDe0Q-HCfw18PujmPHaK5I0R9yFO9j5ElAyulOjrvsKIfHSOQyTiQcb5eA2ZUegY8kGtRB0q-UzK_5KHtb0vsLc7ggeZEvMJk2jZ-A8P6sQBNbxaWo4S1JZD5qfZ_zYVZzpn_75A-Zrbtm3]--></g></svg>
