<?xml version="1.0" encoding="us-ascii" standalone="no"?><svg xmlns="http://www.w3.org/2000/svg" xmlns:xlink="http://www.w3.org/1999/xlink" contentStyleType="text/css" height="633px" preserveAspectRatio="none" style="width:639px;height:633px;background:#FFFFFF;" version="1.1" viewBox="0 0 639 633" width="639px" zoomAndPan="magnify"><defs/><g><!--entity c1--><g id="elem_c1"><rect fill="#F1F1F1" height="20" rx="2.5" ry="2.5" style="stroke:#0000FF;stroke-width:0.5;" width="20" x="375" y="103"/></g><!--entity c2--><g id="elem_c2"><rect fill="#F1F1F1" height="20" rx="2.5" ry="2.5" style="stroke:#0000FF;stroke-width:0.5;" width="20" x="177" y="279"/></g><!--entity c3--><g id="elem_c3"><rect fill="#F1F1F1" height="20" rx="2.5" ry="2.5" style="stroke:#0000FF;stroke-width:0.5;" width="20" x="273" y="480.5"/></g><!--entity c4--><g id="elem_c4"><rect fill="#F1F1F1" height="20" rx="2.5" ry="2.5" style="stroke:#0000FF;stroke-width:0.5;" width="20" x="375" y="279"/></g><!--entity c5--><g id="elem_c5"><rect fill="#F1F1F1" height="20" rx="2.5" ry="2.5" style="stroke:#0000FF;stroke-width:0.5;" width="20" x="570" y="279"/></g><!--entity content--><g id="elem_content"><rect fill="#F1F1F1" height="36.2969" rx="2.5" ry="2.5" style="stroke:#0000FF;stroke-width:0.5;" width="78" x="346" y="7"/><text fill="#000000" font-family="sans-serif" font-size="14" lengthAdjust="spacing" textLength="58" x="356" y="29.9951">content</text></g><!--entity archivalPeriod--><g id="elem_archivalPeriod"><rect fill="#F1F1F1" height="36.2969" rx="2.5" ry="2.5" style="stroke:#0000FF;stroke-width:0.5;" width="121" x="147.5" y="183"/><text fill="#000000" font-family="sans-serif" font-size="14" lengthAdjust="spacing" textLength="101" x="157.5" y="205.9951">archivalPeriod</text></g><!--entity startDate--><g id="elem_startDate"><rect fill="#F1F1F1" height="36.2969" rx="2.5" ry="2.5" style="stroke:#0000FF;stroke-width:0.5;" width="90" x="7" y="359"/><text fill="#000000" font-family="sans-serif" font-size="14" lengthAdjust="spacing" textLength="70" x="17" y="381.9951">startDate</text></g><!--entity endDate--><g id="elem_endDate"><rect fill="#F1F1F1" height="36.2969" rx="2.5" ry="2.5" style="stroke:#0000FF;stroke-width:0.5;" width="82" x="132" y="359"/><text fill="#000000" font-family="sans-serif" font-size="14" lengthAdjust="spacing" textLength="62" x="142" y="381.9951">endDate</text></g><!--entity period--><g id="elem_period"><rect fill="#F1F1F1" height="36.2969" rx="2.5" ry="2.5" style="stroke:#0000FF;stroke-width:0.5;" width="67" x="249.5" y="359"/><text fill="#000000" font-family="sans-serif" font-size="14" lengthAdjust="spacing" textLength="47" x="259.5" y="381.9951">period</text></g><!--entity inboundPartition--><g id="elem_inboundPartition"><rect fill="#F1F1F1" height="36.2969" rx="2.5" ry="2.5" style="stroke:#0000FF;stroke-width:0.5;" width="148" x="115" y="588"/><text fill="#000000" font-family="sans-serif" font-size="14" lengthAdjust="spacing" textLength="128" x="125" y="610.9951">inboundPartition*</text></g><!--entity outboundPartition--><g id="elem_outboundPartition"><rect fill="#F1F1F1" height="36.2969" rx="2.5" ry="2.5" style="stroke:#0000FF;stroke-width:0.5;" width="159" x="298.5" y="588"/><text fill="#000000" font-family="sans-serif" font-size="14" lengthAdjust="spacing" textLength="139" x="308.5" y="610.9951">outboundPartition*</text></g><!--entity archivalDataset--><g id="elem_archivalDataset"><rect fill="#F1F1F1" height="36.2969" rx="2.5" ry="2.5" style="stroke:#0000FF;stroke-width:0.5;" width="132" x="319" y="183"/><text fill="#000000" font-family="sans-serif" font-size="14" lengthAdjust="spacing" textLength="112" x="329" y="205.9951">archivalDataset</text></g><!--entity date--><g id="elem_date"><rect fill="#F1F1F1" height="36.2969" rx="2.5" ry="2.5" style="stroke:#0000FF;stroke-width:0.5;" width="53" x="351.5" y="359"/><text fill="#000000" font-family="sans-serif" font-size="14" lengthAdjust="spacing" textLength="33" x="361.5" y="381.9951">date</text></g><!--entity type1--><g id="elem_type1"><rect fill="#F1F1F1" height="36.2969" rx="2.5" ry="2.5" style="stroke:#0000FF;stroke-width:0.5;" width="68" x="440" y="359"/><text fill="#000000" font-family="sans-serif" font-size="14" lengthAdjust="spacing" textLength="48" x="450" y="381.9951">type**</text></g><!--entity comments--><g id="elem_comments"><rect fill="#F1F1F1" height="36.2969" rx="2.5" ry="2.5" style="stroke:#0000FF;stroke-width:0.5;" width="97" x="516.5" y="183"/><text fill="#000000" font-family="sans-serif" font-size="14" lengthAdjust="spacing" textLength="77" x="526.5" y="205.9951">comments</text></g><!--entity comment--><g id="elem_comment"><rect fill="#F1F1F1" height="36.2969" rx="2.5" ry="2.5" style="stroke:#0000FF;stroke-width:0.5;" width="90" x="543" y="359"/><text fill="#000000" font-family="sans-serif" font-size="14" lengthAdjust="spacing" textLength="70" x="553" y="381.9951">comment</text></g><g id="elem_GMN35"><path d="M18.5,586 L18.5,626.2656 A0,0 0 0 0 18.5,626.2656 L79.5,626.2656 A0,0 0 0 0 79.5,626.2656 L79.5,610 L114.755,606 L79.5,602 L79.5,596 L69.5,586 L18.5,586 A0,0 0 0 0 18.5,586 " fill="#FEFFDD" style="stroke:#181818;stroke-width:0.5;"/><path d="M69.5,586 L69.5,596 L79.5,596 L69.5,586 " fill="#FEFFDD" style="stroke:#181818;stroke-width:0.5;"/><text fill="#000000" font-family="sans-serif" font-size="13" lengthAdjust="spacing" textLength="40" x="24.5" y="603.0669">skarpt</text><text fill="#000000" font-family="sans-serif" font-size="13" lengthAdjust="spacing" textLength="33" x="24.5" y="618.1997">mykt</text></g><g id="elem_GMN38"><path d="M492.5,586 L492.5,602 L457.711,606 L492.5,610 L492.5,626.2656 A0,0 0 0 0 492.5,626.2656 L553.5,626.2656 A0,0 0 0 0 553.5,626.2656 L553.5,596 L543.5,586 L492.5,586 A0,0 0 0 0 492.5,586 " fill="#FEFFDD" style="stroke:#181818;stroke-width:0.5;"/><path d="M543.5,586 L543.5,596 L553.5,596 L543.5,586 " fill="#FEFFDD" style="stroke:#181818;stroke-width:0.5;"/><text fill="#000000" font-family="sans-serif" font-size="13" lengthAdjust="spacing" textLength="40" x="498.5" y="603.0669">skarpt</text><text fill="#000000" font-family="sans-serif" font-size="13" lengthAdjust="spacing" textLength="33" x="498.5" y="618.1997">mykt</text></g><g id="elem_GMN41"><path d="M428,455 L428,525.5313 A0,0 0 0 0 428,525.5313 L520,525.5313 A0,0 0 0 0 520,525.5313 L520,465 L510,455 L478,455 L474,395.236 L470,455 L428,455 A0,0 0 0 0 428,455 " fill="#FEFFDD" style="stroke:#181818;stroke-width:0.5;"/><path d="M510,455 L510,465 L520,465 L510,455 " fill="#FEFFDD" style="stroke:#181818;stroke-width:0.5;"/><text fill="#000000" font-family="sans-serif" font-size="13" lengthAdjust="spacing" textLength="50" x="434" y="472.0669">Noark-3</text><text fill="#000000" font-family="sans-serif" font-size="13" lengthAdjust="spacing" textLength="50" x="434" y="487.1997">Noark-4</text><text fill="#000000" font-family="sans-serif" font-size="13" lengthAdjust="spacing" textLength="49" x="434" y="502.3325">Noark 5</text><text fill="#000000" font-family="sans-serif" font-size="13" lengthAdjust="spacing" textLength="71" x="434" y="517.4653">Fagsystem</text></g><!--link content to c1--><g id="link_content_c1"><path d="M385,43.234 C385,61.357 385,88.486 385,102.996 " fill="none" id="content-c1" style="stroke:#0000FF;stroke-width:1.0;"/></g><!--link c1 to archivalPeriod--><g id="link_c1_archivalPeriod"><path d="M374.977,113 C337.533,113 208,113 208,113 C208,113 208,156.991 208,182.766 " fill="none" id="c1-archivalPeriod" style="stroke:#0000FF;stroke-width:1.0;"/></g><!--link archivalPeriod to c2--><g id="link_archivalPeriod_c2"><path d="M187,219.234 C187,237.357 187,264.486 187,278.996 " fill="none" id="archivalPeriod-c2" style="stroke:#0000FF;stroke-width:1.0;"/></g><!--link c2 to startDate--><g id="link_c2_startDate"><path d="M176.853,289 C145.457,289 52,289 52,289 C52,289 52,332.991 52,358.766 " fill="none" id="c2-startDate" style="stroke:#0000FF;stroke-width:1.0;"/></g><!--link c2 to endDate--><g id="link_c2_endDate"><path d="M187,299.095 C187,313.632 187,340.697 187,358.783 " fill="none" id="c2-endDate" style="stroke:#0000FF;stroke-width:1.0;"/></g><!--link c2 to period--><g id="link_c2_period"><path d="M197.011,289 C216.795,289 259,289 259,289 C259,289 259,332.991 259,358.766 " fill="none" id="c2-period" style="stroke:#0000FF;stroke-width:1.0;"/></g><!--link period to c3--><g id="link_period_c3"><path d="M283,395.236 C283,419.424 283,461.287 283,480.426 " fill="none" id="period-c3" style="stroke:#0000FF;stroke-width:1.0;"/></g><!--link c3 to inboundPartition--><g id="link_c3_inboundPartition"><path d="M272.734,491 C265.191,491 256.25,491 256.25,491 C256.25,491 256.25,555.351 256.25,587.7779 " fill="none" id="c3-inboundPartition" style="stroke:#0000FF;stroke-width:1.0;"/></g><!--link c3 to outboundPartition--><g id="link_c3_outboundPartition"><path d="M293.248,491 C299.962,491 307.5,491 307.5,491 C307.5,491 307.5,555.351 307.5,587.7779 " fill="none" id="c3-outboundPartition" style="stroke:#0000FF;stroke-width:1.0;"/></g><!--link c1 to archivalDataset--><g id="link_c1_archivalDataset"><path d="M385,123.095 C385,137.632 385,164.697 385,182.783 " fill="none" id="c1-archivalDataset" style="stroke:#0000FF;stroke-width:1.0;"/></g><!--link archivalDataset to c4--><g id="link_archivalDataset_c4"><path d="M385,219.234 C385,237.357 385,264.486 385,278.996 " fill="none" id="archivalDataset-c4" style="stroke:#0000FF;stroke-width:1.0;"/></g><!--link c4 to date--><g id="link_c4_date"><path d="M385,299.095 C385,313.632 385,340.697 385,358.783 " fill="none" id="c4-date" style="stroke:#0000FF;stroke-width:1.0;"/></g><!--link c4 to type1--><g id="link_c4_type1"><path d="M395.263,289 C412.524,289 445.5,289 445.5,289 C445.5,289 445.5,332.991 445.5,358.766 " fill="none" id="c4-type1" style="stroke:#0000FF;stroke-width:1.0;"/></g><!--link c1 to comments--><g id="link_c1_comments"><path d="M395.193,113 C433.271,113 565,113 565,113 C565,113 565,156.991 565,182.766 " fill="none" id="c1-comments" style="stroke:#0000FF;stroke-width:1.0;"/></g><!--link comments to c5--><g id="link_comments_c5"><path d="M580,219.234 C580,237.357 580,264.486 580,278.996 " fill="none" id="comments-c5" style="stroke:#0000FF;stroke-width:1.0;"/></g><!--link c5 to comment--><g id="link_c5_comment"><path d="M580,299.095 C580,313.632 580,340.697 580,358.783 " fill="none" id="c5-comment" style="stroke:#0000FF;stroke-width:1.0;"/></g><!--SRC=[XLF1ReCm3BtxAwBsLWbfRUbbkquxJhrFEwGGsWY8KU9Ewj_Fq898800Nwpq_EyvpNAbD8wsiHQMDeaUZ15gw8O1L6KbphPJOy2-ToFPYsoQzNwgx-fZX3olySOLFL_YJnuyICZIa34NaqcOt_IUhix8QyqYI8sdfKvAAyCha2sopL7gZpGNl9Zzp1qqQpQuR9qHZQhpJd7m2hqpFfvTEnUueZy-sQPTYzspQXh4joB2ksGItJFiMziObFzit_ehYD-4rOtplGRw341ZgYG_0QpX61cD3ukLe23-jX6QczX5uXST8Q678JpoAJlPo1qAtlFufy1CP8tbtVX_hB9hqwSs1mIMFFG4_hfby08Ey69KgI60ndLS8LqhR40VreoJWEnMjugMp-dhhXDEBM55Ua0ZhLlgSHuXlbBPCZaEKzf4uSVGbh-xXIDL3eNy0]--></g></svg>