<?xml version="1.0" encoding="us-ascii" standalone="no"?><svg xmlns="http://www.w3.org/2000/svg" xmlns:xlink="http://www.w3.org/1999/xlink" contentStyleType="text/css" height="417px" preserveAspectRatio="none" style="width:208px;height:417px;background:#FFFFFF;" version="1.1" viewBox="0 0 208 417" width="208px" zoomAndPan="magnify"><defs/><g><!--entity c1--><g id="elem_c1"><rect fill="#F1F1F1" height="20" rx="2.5" ry="2.5" style="stroke:#FF0000;stroke-width:0.5;" width="20" x="88" y="103"/></g><!--entity c2--><g id="elem_c2"><rect fill="#F1F1F1" height="20" rx="2.5" ry="2.5" style="stroke:#FF0000;stroke-width:0.5;" width="20" x="33" y="287"/></g><!--entity uttrekk--><g id="elem_uttrekk"><rect fill="#F1F1F1" height="36.2969" rx="2.5" ry="2.5" style="stroke:#0000FF;stroke-width:0.5;" width="75" x="60.5" y="7"/><text fill="#000000" font-family="sans-serif" font-size="14" lengthAdjust="spacing" textLength="55" x="70.5" y="29.9951">uttrekk</text></g><!--entity type--><g id="elem_type"><rect fill="#F1F1F1" height="36.2969" rx="2.5" ry="2.5" style="stroke:#FF0000;stroke-width:0.5;" width="54" x="16" y="183"/><text fill="#000000" font-family="sans-serif" font-size="14" lengthAdjust="spacing" textLength="34" x="26" y="205.9951">type</text></g><!--entity version--><g id="elem_version"><rect fill="#F1F1F1" height="36.2969" rx="2.5" ry="2.5" style="stroke:#FF0000;stroke-width:0.5;" width="72" x="7" y="375"/><text fill="#000000" font-family="sans-serif" font-size="14" lengthAdjust="spacing" textLength="52" x="17" y="397.9951">version</text></g><!--entity comments--><g id="elem_comments"><rect fill="#F1F1F1" height="36.2969" rx="2.5" ry="2.5" style="stroke:#FF0000;stroke-width:0.5;" width="97" x="105.5" y="183"/><text fill="#000000" font-family="sans-serif" font-size="14" lengthAdjust="spacing" textLength="77" x="115.5" y="205.9951">comments</text></g><!--entity comment--><g id="elem_comment"><rect fill="#F1F1F1" height="36.2969" rx="2.5" ry="2.5" style="stroke:#FF0000;stroke-width:0.5;" width="90" x="109" y="279"/><text fill="#000000" font-family="sans-serif" font-size="14" lengthAdjust="spacing" textLength="70" x="119" y="301.9951">comment</text></g><!--link uttrekk to c1--><g id="link_uttrekk_c1"><path d="M98,43.234 C98,61.357 98,88.486 98,102.996 " fill="none" id="uttrekk-c1" style="stroke:#FF0000;stroke-width:1.0;"/></g><!--link c1 to type--><g id="link_c1_type"><path d="M87.996,113 C78.3648,113 65.25,113 65.25,113 C65.25,113 65.25,156.991 65.25,182.766 " fill="none" id="c1-type" style="stroke:#FF0000;stroke-width:1.0;"/></g><!--link type to c2--><g id="link_type_c2"><path d="M43,219.057 C43,239.153 43,270.908 43,286.977 " fill="none" id="type-c2" style="stroke:#FF0000;stroke-width:1.0;"/></g><!--link c2 to version--><g id="link_c2_version"><path d="M43,307.274 C43,323.4292 43,354.9879 43,374.9784 " fill="none" id="c2-version" style="stroke:#FF0000;stroke-width:1.0;"/></g><!--link c1 to comments--><g id="link_c1_comments"><path d="M108.21,113 C114.647,113 121.75,113 121.75,113 C121.75,113 121.75,156.991 121.75,182.766 " fill="none" id="c1-comments" style="stroke:#FF0000;stroke-width:1.0;"/></g><!--link comments to comment--><g id="link_comments_comment"><path d="M154,219.057 C154,236.112 154,261.563 154,278.698 " fill="none" id="comments-comment" style="stroke:#FF0000;stroke-width:1.0;"/></g><!--SRC=[VOyz3i8m34PtdoAYSoNe24T1326u4EMlSjnAt1wtQb6A8fpDptRUbvsDWoOTbBSH-JsWIiIl141eMCUdHtMGfxCo9zNCGsV2nwM2kn8NV6GcT6wbTpzYkRryMRqx8MMROXsQ5096pd_fJcZJQAzDtn-bRgr40abLTcOTM9nsSnr8lBApolskRrhmzQlG3m00]--></g></svg>