<?xml version="1.0" encoding="us-ascii" standalone="no"?><svg xmlns="http://www.w3.org/2000/svg" xmlns:xlink="http://www.w3.org/1999/xlink" contentStyleType="text/css" height="753px" preserveAspectRatio="none" style="width:388px;height:753px;background:#FFFFFF;" version="1.1" viewBox="0 0 388 753" width="388px" zoomAndPan="magnify"><defs/><g><!--entity c1--><g id="elem_c1"><rect fill="#F1F1F1" height="20" rx="2.5" ry="2.5" style="stroke:#0000FF;stroke-width:0.5;" width="20" x="120" y="103"/></g><!--entity c2--><g id="elem_c2"><rect fill="#F1F1F1" height="20" rx="2.5" ry="2.5" style="stroke:#0000FF;stroke-width:0.5;" width="20" x="147" y="279"/></g><!--entity c3--><g id="elem_c3"><rect fill="#F1F1F1" height="20" rx="2.5" ry="2.5" style="stroke:#0000FF;stroke-width:0.5;" width="20" x="216" y="279"/></g><!--entity c4--><g id="elem_c4"><rect fill="#F1F1F1" height="20" rx="2.5" ry="2.5" style="stroke:#FF0000;stroke-width:0.5;" width="20" x="181" y="455"/></g><!--entity c5--><g id="elem_c5"><rect fill="#F1F1F1" height="20" rx="2.5" ry="2.5" style="stroke:#FF0000;stroke-width:0.5;" width="20" x="27" y="631"/></g><!--entity c6--><g id="elem_c6"><rect fill="#F1F1F1" height="20" rx="2.5" ry="2.5" style="stroke:#FF0000;stroke-width:0.5;" width="20" x="181" y="631"/></g><!--entity c7--><g id="elem_c7"><rect fill="#F1F1F1" height="20" rx="2.5" ry="2.5" style="stroke:#FF0000;stroke-width:0.5;" width="20" x="324" y="631"/></g><!--entity xmlfile--><g id="elem_xmlfile"><rect fill="#F1F1F1" height="36.2969" rx="2.5" ry="2.5" style="stroke:#0000FF;stroke-width:0.5;" width="75" x="92.5" y="7"/><text fill="#000000" font-family="sans-serif" font-size="14" lengthAdjust="spacing" textLength="55" x="102.5" y="29.9951">xml-file</text></g><!--entity info--><g id="elem_info"><rect fill="#F1F1F1" height="36.2969" rx="2.5" ry="2.5" style="stroke:#0000FF;stroke-width:0.5;" width="48" x="9" y="183"/><text fill="#000000" font-family="sans-serif" font-size="14" lengthAdjust="spacing" textLength="28" x="19" y="205.9951">info</text></g><!--entity datafile--><g id="elem_datafile"><rect fill="#F1F1F1" height="36.2969" rx="2.5" ry="2.5" style="stroke:#0000FF;stroke-width:0.5;" width="75" x="92.5" y="183"/><text fill="#000000" font-family="sans-serif" font-size="14" lengthAdjust="spacing" textLength="55" x="102.5" y="205.9951">datafile</text></g><!--entity schema--><g id="elem_schema"><rect fill="#F1F1F1" height="36.2969" rx="2.5" ry="2.5" style="stroke:#0000FF;stroke-width:0.5;" width="75" x="202.5" y="183"/><text fill="#000000" font-family="sans-serif" font-size="14" lengthAdjust="spacing" textLength="55" x="212.5" y="205.9951">schema</text></g><!--entity file--><g id="elem_file"><rect fill="#F1F1F1" height="36.2969" rx="2.5" ry="2.5" style="stroke:#0000FF;stroke-width:0.5;" width="43" x="169.5" y="359"/><text fill="#000000" font-family="sans-serif" font-size="14" lengthAdjust="spacing" textLength="23" x="179.5" y="381.9951">file</text></g><!--entity name--><g id="elem_name"><rect fill="#F1F1F1" height="36.2969" rx="2.5" ry="2.5" style="stroke:#FF0000;stroke-width:0.5;" width="60" x="18" y="535"/><text fill="#000000" font-family="sans-serif" font-size="14" lengthAdjust="spacing" textLength="40" x="28" y="557.9951">name</text></g><!--entity path--><g id="elem_path"><rect fill="#F1F1F1" height="36.2969" rx="2.5" ry="2.5" style="stroke:#FF0000;stroke-width:0.5;" width="54" x="7" y="711"/><text fill="#000000" font-family="sans-serif" font-size="14" lengthAdjust="spacing" textLength="34" x="17" y="733.9951">path</text></g><!--entity format--><g id="elem_format"><rect fill="#F1F1F1" height="36.2969" rx="2.5" ry="2.5" style="stroke:#FF0000;stroke-width:0.5;" width="70" x="156" y="535"/><text fill="#000000" font-family="sans-serif" font-size="14" lengthAdjust="spacing" textLength="50" x="166" y="557.9951">format</text></g><!--entity type--><g id="elem_type"><rect fill="#F1F1F1" height="36.2969" rx="2.5" ry="2.5" style="stroke:#FF0000;stroke-width:0.5;" width="54" x="96" y="711"/><text fill="#000000" font-family="sans-serif" font-size="14" lengthAdjust="spacing" textLength="34" x="106" y="733.9951">type</text></g><!--entity version--><g id="elem_version"><rect fill="#F1F1F1" height="36.2969" rx="2.5" ry="2.5" style="stroke:#FF0000;stroke-width:0.5;" width="72" x="185" y="711"/><text fill="#000000" font-family="sans-serif" font-size="14" lengthAdjust="spacing" textLength="52" x="195" y="733.9951">version</text></g><!--entity checksum--><g id="elem_checksum"><rect fill="#F1F1F1" height="36.2969" rx="2.5" ry="2.5" style="stroke:#FF0000;stroke-width:0.5;" width="92" x="283" y="535"/><text fill="#000000" font-family="sans-serif" font-size="14" lengthAdjust="spacing" textLength="72" x="293" y="557.9951">checksum</text></g><!--entity algorithm--><g id="elem_algorithm"><rect fill="#F1F1F1" height="36.2969" rx="2.5" ry="2.5" style="stroke:#FF0000;stroke-width:0.5;" width="90" x="292" y="711"/><text fill="#000000" font-family="sans-serif" font-size="14" lengthAdjust="spacing" textLength="70" x="302" y="733.9951">algorithm</text></g><!--link xmlfile to c1--><g id="link_xmlfile_c1"><path d="M130,43.234 C130,61.357 130,88.486 130,102.996 " fill="none" id="xmlfile-c1" style="stroke:#0000FF;stroke-width:1.0;"/></g><!--link c1 to info--><g id="link_c1_info"><path d="M119.985,113 C95.2013,113 33,113 33,113 C33,113 33,156.991 33,182.766 " fill="none" id="c1-info" style="stroke:#0000FF;stroke-width:1.0;"/></g><!--link c1 to datafile--><g id="link_c1_datafile"><path d="M130,123.095 C130,137.632 130,164.697 130,182.783 " fill="none" id="c1-datafile" style="stroke:#0000FF;stroke-width:1.0;"/></g><!--link c1 to schema--><g id="link_c1_schema"><path d="M140.151,113 C167.383,113 240,113 240,113 C240,113 240,156.991 240,182.766 " fill="none" id="c1-schema" style="stroke:#0000FF;stroke-width:1.0;"/></g><!--link datafile to c2--><g id="link_datafile_c2"><path d="M157,219.234 C157,237.357 157,264.486 157,278.996 " fill="none" id="datafile-c2" style="stroke:#0000FF;stroke-width:1.0;"/></g><!--link schema to c3--><g id="link_schema_c3"><path d="M226,219.234 C226,237.357 226,264.486 226,278.996 " fill="none" id="schema-c3" style="stroke:#0000FF;stroke-width:1.0;"/></g><!--link c2 to file--><g id="link_c2_file"><path d="M161.5,299.095 C161.5,322.209 161.5,377 161.5,377 C161.5,377 164.829,377 169.251,377 " fill="none" id="c2-file" style="stroke:#0000FF;stroke-width:1.0;"/></g><!--link c3 to file--><g id="link_c3_file"><path d="M215.884,289 C211.565,289 207.5,289 207.5,289 C207.5,289 207.5,332.991 207.5,358.766 " fill="none" id="c3-file" style="stroke:#0000FF;stroke-width:1.0;"/></g><!--link file to c4--><g id="link_file_c4"><path d="M191,395.234 C191,413.357 191,440.486 191,454.996 " fill="none" id="file-c4" style="stroke:#FF0000;stroke-width:1.0;"/></g><!--link c4 to name--><g id="link_c4_name"><path d="M180.893,465 C151.398,465 67.5,465 67.5,465 C67.5,465 67.5,508.991 67.5,534.766 " fill="none" id="c4-name" style="stroke:#FF0000;stroke-width:1.0;"/></g><!--link name to c5--><g id="link_name_c5"><path d="M37,571.234 C37,589.357 37,616.486 37,630.996 " fill="none" id="name-c5" style="stroke:#FF0000;stroke-width:1.0;"/></g><!--link c5 to path--><g id="link_c5_path"><path d="M37,651.0947 C37,665.6317 37,692.6972 37,710.783 " fill="none" id="c5-path" style="stroke:#FF0000;stroke-width:1.0;"/></g><!--link c4 to format--><g id="link_c4_format"><path d="M191,475.095 C191,489.632 191,516.697 191,534.783 " fill="none" id="c4-format" style="stroke:#FF0000;stroke-width:1.0;"/></g><!--link format to c6--><g id="link_format_c6"><path d="M191,571.234 C191,589.357 191,616.486 191,630.996 " fill="none" id="format-c6" style="stroke:#FF0000;stroke-width:1.0;"/></g><!--link c6 to type--><g id="link_c6_type"><path d="M180.745,641 C161.412,641 121.5,641 121.5,641 C121.5,641 121.5,684.9906 121.5,710.7663 " fill="none" id="c6-type" style="stroke:#FF0000;stroke-width:1.0;"/></g><!--link c6 to version--><g id="link_c6_version"><path d="M193,651.0947 C193,665.6317 193,692.6972 193,710.783 " fill="none" id="c6-version" style="stroke:#FF0000;stroke-width:1.0;"/></g><!--link c4 to checksum--><g id="link_c4_checksum"><path d="M201.372,465 C233.466,465 329,465 329,465 C329,465 329,508.991 329,534.766 " fill="none" id="c4-checksum" style="stroke:#FF0000;stroke-width:1.0;"/></g><!--link checksum to c7--><g id="link_checksum_c7"><path d="M334,571.234 C334,589.357 334,616.486 334,630.996 " fill="none" id="checksum-c7" style="stroke:#FF0000;stroke-width:1.0;"/></g><!--link c7 to algorithm--><g id="link_c7_algorithm"><path d="M334,651.0947 C334,665.6317 334,692.6972 334,710.783 " fill="none" id="c7-algorithm" style="stroke:#FF0000;stroke-width:1.0;"/></g><!--SRC=[XPFRReCm38Rl_HHelKRQIW_IzYZJBZoQbAWve91EszlF2L0vaBPmGVW_so7-pN1HjaUFfjBAYl3NYyhvq3a0Bzg0zgn5zK8t3bNxLcrYqFktlegF0jy-uSqJlfku5wSItZ_6XyVuo37dlqRNKccHmkWbhkzygBBItK4d3BZ8P7HeEs6GCmPJ6kszsfZ5M3Gf9ZsBv-mnT34YFOiHqdc3eSoIyKNo8_oWd8sbvsKnZaxONeQhALFKP-TLw38CSxVhpyqhNL9-rJHbG8F6bTZrfJQtUwcFZGQusP6Lti9aHAOsG9FBbR5mizPWBYbb135v1q1powLe4IIVii0zq01p9HgrIXuzWicghC01QCIv4ZrRQfD5gxgpEt2pAQD7eF-3ApU__W40]--></g></svg>