<?xml version="1.0" encoding="us-ascii" standalone="no"?><svg xmlns="http://www.w3.org/2000/svg" xmlns:xlink="http://www.w3.org/1999/xlink" contentStyleType="text/css" height="225px" preserveAspectRatio="none" style="width:449px;height:225px;background:#FFFFFF;" version="1.1" viewBox="0 0 449 225" width="449px" zoomAndPan="magnify"><defs/><g><!--entity c1--><g id="elem_c1"><rect fill="#F1F1F1" height="20" rx="2.5" ry="2.5" style="stroke:#0000FF;stroke-width:0.5;" width="20" x="241.5" y="103"/></g><!--entity system--><g id="elem_system"><rect fill="#F1F1F1" height="36.2969" rx="2.5" ry="2.5" style="stroke:#0000FF;stroke-width:0.5;" width="72" x="215.5" y="7"/><text fill="#000000" font-family="sans-serif" font-size="14" lengthAdjust="spacing" textLength="52" x="225.5" y="29.9951">system</text></g><!--entity systemType--><g id="elem_systemType"><rect fill="#F1F1F1" height="36.2969" rx="2.5" ry="2.5" style="stroke:#0000FF;stroke-width:0.5;" width="129" x="7" y="183"/><text fill="#000000" font-family="sans-serif" font-size="14" lengthAdjust="spacing" textLength="109" x="17" y="205.9951">systemType***</text></g><!--entity name2--><g id="elem_name2"><rect fill="#F1F1F1" height="36.2969" rx="2.5" ry="2.5" style="stroke:#0000FF;stroke-width:0.5;" width="60" x="171.5" y="183"/><text fill="#000000" font-family="sans-serif" font-size="14" lengthAdjust="spacing" textLength="40" x="181.5" y="205.9951">name</text></g><!--entity version--><g id="elem_version"><rect fill="#F1F1F1" height="36.2969" rx="2.5" ry="2.5" style="stroke:#0000FF;stroke-width:0.5;" width="72" x="266.5" y="183"/><text fill="#000000" font-family="sans-serif" font-size="14" lengthAdjust="spacing" textLength="52" x="276.5" y="205.9951">version</text></g><!--entity history--><g id="elem_history"><rect fill="#F1F1F1" height="36.2969" rx="2.5" ry="2.5" style="stroke:#0000FF;stroke-width:0.5;" width="70" x="373.5" y="183"/><text fill="#000000" font-family="sans-serif" font-size="14" lengthAdjust="spacing" textLength="50" x="383.5" y="205.9951">history</text></g><!--link system to c1--><g id="link_system_c1"><path d="M251.5,43.234 C251.5,61.357 251.5,88.486 251.5,102.996 " fill="none" id="system-c1" style="stroke:#0000FF;stroke-width:1.0;"/></g><!--link c1 to systemType--><g id="link_c1_systemType"><path d="M241.307,110 C203.229,110 71.5,110 71.5,110 C71.5,110 71.5,155.9943 71.5,182.5848 " fill="none" id="c1-systemType" style="stroke:#0000FF;stroke-width:1.0;"/></g><!--link c1 to name2--><g id="link_c1_name2"><path d="M241.391,117 C233.371,117 223.5,117 223.5,117 C223.5,117 223.5,158.0682 223.5,182.7733 " fill="none" id="c1-name2" style="stroke:#0000FF;stroke-width:1.0;"/></g><!--link c1 to version--><g id="link_c1_version"><path d="M261.578,117 C268.706,117 277,117 277,117 C277,117 277,158.0682 277,182.7733 " fill="none" id="c1-version" style="stroke:#0000FF;stroke-width:1.0;"/></g><!--link c1 to history--><g id="link_c1_history"><path d="M261.801,110 C296.729,110 408.5,110 408.5,110 C408.5,110 408.5,155.9943 408.5,182.5848 " fill="none" id="c1-history" style="stroke:#0000FF;stroke-width:1.0;"/></g><!--SRC=[AyxEp2j8B4hCLSZ9p4ijgIn8LSWlAid8v-8gIaqkISnBpqbLK0B2n6A5P4C5PP0YgwISqbHhP0N5bSKbgRaeiaYw8R8XGAErjBJ09Y54SEd9IynD1Ii5COnmg2fBBIhEpC_38PkHMLoINrI9wcQeItMZbGs082qjLXVeBIwWpv154Cv3bm6x1bqGwWnqOQZz0000]--></g></svg>