<?xml version="1.0" encoding="us-ascii" standalone="no"?><svg xmlns="http://www.w3.org/2000/svg" xmlns:xlink="http://www.w3.org/1999/xlink" contentStyleType="text/css" height="401px" preserveAspectRatio="none" style="width:90px;height:401px;background:#FFFFFF;" version="1.1" viewBox="0 0 90 401" width="90px" zoomAndPan="magnify"><defs/><g><!--entity c1--><g id="elem_c1"><rect fill="#F1F1F1" height="20" rx="2.5" ry="2.5" style="stroke:#FF0000;stroke-width:0.5;" width="20" x="35.5" y="103"/></g><!--entity c2--><g id="elem_c2"><rect fill="#F1F1F1" height="20" rx="2.5" ry="2.5" style="stroke:#FF0000;stroke-width:0.5;" width="20" x="35.5" y="279"/></g><!--entity info--><g id="elem_info"><rect fill="#F1F1F1" height="36.2969" rx="2.5" ry="2.5" style="stroke:#0000FF;stroke-width:0.5;" width="48" x="21.5" y="7"/><text fill="#000000" font-family="sans-serif" font-size="14" lengthAdjust="spacing" textLength="28" x="31.5" y="29.9951">info</text></g><!--entity filetype--><g id="elem_filetype"><rect fill="#F1F1F1" height="36.2969" rx="2.5" ry="2.5" style="stroke:#FF0000;stroke-width:0.5;" width="77" x="7" y="183"/><text fill="#000000" font-family="sans-serif" font-size="14" lengthAdjust="spacing" textLength="57" x="17" y="205.9951">filetype</text></g><!--entity version--><g id="elem_version"><rect fill="#F1F1F1" height="36.2969" rx="2.5" ry="2.5" style="stroke:#FF0000;stroke-width:0.5;" width="72" x="9.5" y="359"/><text fill="#000000" font-family="sans-serif" font-size="14" lengthAdjust="spacing" textLength="52" x="19.5" y="381.9951">version</text></g><!--link info to c1--><g id="link_info_c1"><path d="M45.5,43.234 C45.5,61.357 45.5,88.486 45.5,102.996 " fill="none" id="info-c1" style="stroke:#FF0000;stroke-width:1.0;"/></g><!--link c1 to filetype--><g id="link_c1_filetype"><path d="M45.5,123.095 C45.5,137.632 45.5,164.697 45.5,182.783 " fill="none" id="c1-filetype" style="stroke:#FF0000;stroke-width:1.0;"/></g><!--link filetype to c2--><g id="link_filetype_c2"><path d="M45.5,219.234 C45.5,237.357 45.5,264.486 45.5,278.996 " fill="none" id="filetype-c2" style="stroke:#FF0000;stroke-width:1.0;"/></g><!--link c2 to version--><g id="link_c2_version"><path d="M45.5,299.0947 C45.5,313.6317 45.5,340.6972 45.5,358.783 " fill="none" id="c2-version" style="stroke:#FF0000;stroke-width:1.0;"/></g><!--SRC=[ROx13i9024JlV0MnvoRQetwAyR1MLeahsx2hYNylhTNGf71ZXZTJxYn3qF30n4BrFH1chRSCeDJN8DT4kB4D1ViTDgDfhtGvhCYTbvtE4lCidTEJ_6lazCrS1Rz82sTPO2TOUsnYtDgSMci5LinVVb3uqnV-3goflymn7m00]--></g></svg>