<?xml version="1.0" encoding="us-ascii" standalone="no"?><svg xmlns="http://www.w3.org/2000/svg" xmlns:xlink="http://www.w3.org/1999/xlink" contentStyleType="text/css" height="905px" preserveAspectRatio="none" style="width:897px;height:905px;background:#FFFFFF;" version="1.1" viewBox="0 0 897 905" width="897px" zoomAndPan="magnify"><defs/><g><!--entity c1--><g id="elem_c1"><rect fill="#F1F1F1" height="20" rx="2.5" ry="2.5" style="stroke:#0000FF;stroke-width:0.5;" width="20" x="539" y="103"/></g><!--entity c2--><g id="elem_c2"><rect fill="#F1F1F1" height="20" rx="2.5" ry="2.5" style="stroke:#0000FF;stroke-width:0.5;" width="20" x="304" y="279"/></g><!--entity c3--><g id="elem_c3"><rect fill="#F1F1F1" height="20" rx="2.5" ry="2.5" style="stroke:#FF0000;stroke-width:0.5;" width="20" x="174" y="480.5"/></g><!--entity c4--><g id="elem_c4"><rect fill="#F1F1F1" height="20" rx="2.5" ry="2.5" style="stroke:#0000FF;stroke-width:0.5;" width="20" x="273" y="480.5"/></g><!--entity c5--><g id="elem_c5"><rect fill="#F1F1F1" height="20" rx="2.5" ry="2.5" style="stroke:#FF0000;stroke-width:0.5;" width="20" x="376" y="715"/></g><!--entity c6--><g id="elem_c6"><rect fill="#F1F1F1" height="20" rx="2.5" ry="2.5" style="stroke:#0000FF;stroke-width:0.5;" width="20" x="539" y="279"/></g><!--entity c7--><g id="elem_c7"><rect fill="#F1F1F1" height="20" rx="2.5" ry="2.5" style="stroke:#0000FF;stroke-width:0.5;" width="20" x="810" y="279"/></g><!--entity context--><g id="elem_context"><rect fill="#F1F1F1" height="36.2969" rx="2.5" ry="2.5" style="stroke:#0000FF;stroke-width:0.5;" width="77" x="510.5" y="7"/><text fill="#000000" font-family="sans-serif" font-size="14" lengthAdjust="spacing" textLength="57" x="520.5" y="29.9951">context</text></g><!--entity agents--><g id="elem_agents"><rect fill="#F1F1F1" height="36.2969" rx="2.5" ry="2.5" style="stroke:#0000FF;stroke-width:0.5;" width="69" x="331.5" y="183"/><text fill="#000000" font-family="sans-serif" font-size="14" lengthAdjust="spacing" textLength="49" x="341.5" y="205.9951">agents</text></g><!--entity agent--><g id="elem_agent"><rect fill="#F1F1F1" height="36.2969" rx="2.5" ry="2.5" style="stroke:#0000FF;stroke-width:0.5;" width="62" x="232" y="359"/><text fill="#000000" font-family="sans-serif" font-size="14" lengthAdjust="spacing" textLength="42" x="242" y="381.9951">agent</text></g><!--entity role--><g id="elem_role"><rect fill="#F1F1F1" height="36.2969" rx="2.5" ry="2.5" style="stroke:#FF0000;stroke-width:0.5;" width="55" x="42.5" y="586"/><text fill="#000000" font-family="sans-serif" font-size="14" lengthAdjust="spacing" textLength="35" x="52.5" y="608.9951">role*</text></g><!--entity type1--><g id="elem_type1"><rect fill="#F1F1F1" height="36.2969" rx="2.5" ry="2.5" style="stroke:#FF0000;stroke-width:0.5;" width="68" x="150" y="586"/><text fill="#000000" font-family="sans-serif" font-size="14" lengthAdjust="spacing" textLength="48" x="160" y="608.9951">type**</text></g><!--entity name1--><g id="elem_name1"><rect fill="#F1F1F1" height="36.2969" rx="2.5" ry="2.5" style="stroke:#0000FF;stroke-width:0.5;" width="60" x="253" y="586"/><text fill="#000000" font-family="sans-serif" font-size="14" lengthAdjust="spacing" textLength="40" x="263" y="608.9951">name</text></g><!--entity contact--><g id="elem_contact"><rect fill="#F1F1F1" height="36.2969" rx="2.5" ry="2.5" style="stroke:#0000FF;stroke-width:0.5;" width="76" x="348" y="586"/><text fill="#000000" font-family="sans-serif" font-size="14" lengthAdjust="spacing" textLength="56" x="358" y="608.9951">contact</text></g><!--entity type2--><g id="elem_type2"><rect fill="#F1F1F1" height="36.2969" rx="2.5" ry="2.5" style="stroke:#FF0000;stroke-width:0.5;" width="82" x="345" y="845.5"/><text fill="#000000" font-family="sans-serif" font-size="14" lengthAdjust="spacing" textLength="62" x="355" y="868.4951">type****</text></g><!--entity system--><g id="elem_system"><rect fill="#F1F1F1" height="36.2969" rx="2.5" ry="2.5" style="stroke:#0000FF;stroke-width:0.5;" width="72" x="513" y="183"/><text fill="#000000" font-family="sans-serif" font-size="14" lengthAdjust="spacing" textLength="52" x="523" y="205.9951">system</text></g><!--entity systemType--><g id="elem_systemType"><rect fill="#F1F1F1" height="36.2969" rx="2.5" ry="2.5" style="stroke:#0000FF;stroke-width:0.5;" width="129" x="329.5" y="359"/><text fill="#000000" font-family="sans-serif" font-size="14" lengthAdjust="spacing" textLength="109" x="339.5" y="381.9951">systemType***</text></g><!--entity name2--><g id="elem_name2"><rect fill="#F1F1F1" height="36.2969" rx="2.5" ry="2.5" style="stroke:#0000FF;stroke-width:0.5;" width="60" x="494" y="359"/><text fill="#000000" font-family="sans-serif" font-size="14" lengthAdjust="spacing" textLength="40" x="504" y="381.9951">name</text></g><!--entity version--><g id="elem_version"><rect fill="#F1F1F1" height="36.2969" rx="2.5" ry="2.5" style="stroke:#0000FF;stroke-width:0.5;" width="72" x="589" y="359"/><text fill="#000000" font-family="sans-serif" font-size="14" lengthAdjust="spacing" textLength="52" x="599" y="381.9951">version</text></g><!--entity history--><g id="elem_history"><rect fill="#F1F1F1" height="36.2969" rx="2.5" ry="2.5" style="stroke:#0000FF;stroke-width:0.5;" width="70" x="696" y="359"/><text fill="#000000" font-family="sans-serif" font-size="14" lengthAdjust="spacing" textLength="50" x="706" y="381.9951">history</text></g><!--entity comments--><g id="elem_comments"><rect fill="#F1F1F1" height="36.2969" rx="2.5" ry="2.5" style="stroke:#0000FF;stroke-width:0.5;" width="97" x="721.5" y="183"/><text fill="#000000" font-family="sans-serif" font-size="14" lengthAdjust="spacing" textLength="77" x="731.5" y="205.9951">comments</text></g><!--entity comment--><g id="elem_comment"><rect fill="#F1F1F1" height="36.2969" rx="2.5" ry="2.5" style="stroke:#0000FF;stroke-width:0.5;" width="90" x="801" y="359"/><text fill="#000000" font-family="sans-serif" font-size="14" lengthAdjust="spacing" textLength="70" x="811" y="381.9951">comment</text></g><g id="elem_GMN45"><path d="M6,682 L6,767.6641 A0,0 0 0 0 6,767.6641 L116,767.6641 A0,0 0 0 0 116,767.6641 L116,692 L106,682 L74,682 L70,622.115 L66,682 L6,682 A0,0 0 0 0 6,682 " fill="#FEFFDD" style="stroke:#181818;stroke-width:0.5;"/><path d="M106,682 L106,692 L116,692 L106,682 " fill="#FEFFDD" style="stroke:#181818;stroke-width:0.5;"/><text fill="#000000" font-family="sans-serif" font-size="13" lengthAdjust="spacing" textLength="89" x="12" y="699.0669">recordCreator</text><text fill="#000000" font-family="sans-serif" font-size="13" lengthAdjust="spacing" textLength="43" x="12" y="714.1997">deliver</text><text fill="#000000" font-family="sans-serif" font-size="13" lengthAdjust="spacing" textLength="57" x="12" y="729.3325">producer</text><text fill="#000000" font-family="sans-serif" font-size="13" lengthAdjust="spacing" textLength="40" x="12" y="744.4653">owner</text><text fill="#000000" font-family="sans-serif" font-size="13" lengthAdjust="spacing" textLength="47" x="12" y="759.5981">archive</text></g><g id="elem_GMN48"><path d="M151,697.5 L151,752.8984 A0,0 0 0 0 151,752.8984 L235,752.8984 A0,0 0 0 0 235,752.8984 L235,707.5 L225,697.5 L188.5,697.5 L184.5,622.115 L180.5,697.5 L151,697.5 A0,0 0 0 0 151,697.5 " fill="#FEFFDD" style="stroke:#181818;stroke-width:0.5;"/><path d="M225,697.5 L225,707.5 L235,707.5 L225,697.5 " fill="#FEFFDD" style="stroke:#181818;stroke-width:0.5;"/><text fill="#000000" font-family="sans-serif" font-size="13" lengthAdjust="spacing" textLength="60" x="157" y="714.5669">individual</text><text fill="#000000" font-family="sans-serif" font-size="13" lengthAdjust="spacing" textLength="63" x="157" y="729.6997">institution</text><text fill="#000000" font-family="sans-serif" font-size="13" lengthAdjust="spacing" textLength="48" x="157" y="744.8325">system</text></g><g id="elem_GMN51"><path d="M348,455 L348,525.5313 A0,0 0 0 0 348,525.5313 L440,525.5313 A0,0 0 0 0 440,525.5313 L440,465 L430,455 L398,455 L394,395.236 L390,455 L348,455 A0,0 0 0 0 348,455 " fill="#FEFFDD" style="stroke:#181818;stroke-width:0.5;"/><path d="M430,455 L430,465 L440,465 L430,455 " fill="#FEFFDD" style="stroke:#181818;stroke-width:0.5;"/><text fill="#000000" font-family="sans-serif" font-size="13" lengthAdjust="spacing" textLength="50" x="354" y="472.0669">Noark-3</text><text fill="#000000" font-family="sans-serif" font-size="13" lengthAdjust="spacing" textLength="50" x="354" y="487.1997">Noark-4</text><text fill="#000000" font-family="sans-serif" font-size="13" lengthAdjust="spacing" textLength="49" x="354" y="502.3325">Noark 5</text><text fill="#000000" font-family="sans-serif" font-size="13" lengthAdjust="spacing" textLength="71" x="354" y="517.4653">Fagsystem</text></g><g id="elem_GMN54"><path d="M462.5,828 L462.5,860 L427.286,864 L462.5,868 L462.5,898.5313 A0,0 0 0 0 462.5,898.5313 L547.5,898.5313 A0,0 0 0 0 547.5,898.5313 L547.5,838 L537.5,828 L462.5,828 A0,0 0 0 0 462.5,828 " fill="#FEFFDD" style="stroke:#181818;stroke-width:0.5;"/><path d="M537.5,828 L537.5,838 L547.5,838 L537.5,828 " fill="#FEFFDD" style="stroke:#181818;stroke-width:0.5;"/><text fill="#000000" font-family="sans-serif" font-size="13" lengthAdjust="spacing" textLength="51" x="468.5" y="845.0669">address</text><text fill="#000000" font-family="sans-serif" font-size="13" lengthAdjust="spacing" textLength="35" x="468.5" y="860.1997">email</text><text fill="#000000" font-family="sans-serif" font-size="13" lengthAdjust="spacing" textLength="64" x="468.5" y="875.3325">telephone</text><text fill="#000000" font-family="sans-serif" font-size="13" lengthAdjust="spacing" textLength="43" x="468.5" y="890.4653">mobile</text></g><!--link context to c1--><g id="link_context_c1"><path d="M549,43.234 C549,61.357 549,88.486 549,102.996 " fill="none" id="context-c1" style="stroke:#0000FF;stroke-width:1.0;"/></g><!--link c1 to agents--><g id="link_c1_agents"><path d="M538.9,113 C500.537,113 366,113 366,113 C366,113 366,156.991 366,182.766 " fill="none" id="c1-agents" style="stroke:#0000FF;stroke-width:1.0;"/></g><!--link agents to c2--><g id="link_agents_c2"><path d="M331.315,201 C321.777,201 314,201 314,201 C314,201 314,255.791 314,278.905 " fill="none" id="agents-c2" style="stroke:#0000FF;stroke-width:1.0;"/></g><!--link c2 to agent--><g id="link_c2_agent"><path d="M308.5,299.095 C308.5,322.209 308.5,377 308.5,377 C308.5,377 302.102,377 294.104,377 " fill="none" id="c2-agent" style="stroke:#0000FF;stroke-width:1.0;"/></g><!--link agent to c3--><g id="link_agent_c3"><path d="M244,395.064 C244,427.209 244,491 244,491 C244,491 211.296,491 194.178,491 " fill="none" id="agent-c3" style="stroke:#FF0000;stroke-width:1.0;"/></g><!--link c3 to role--><g id="link_c3_role"><path d="M173.883,491 C145.983,491 70,491 70,491 C70,491 70,553.902 70,585.845 " fill="none" id="c3-role" style="stroke:#FF0000;stroke-width:1.0;"/></g><!--link c3 to type1--><g id="link_c3_type1"><path d="M184,500.572 C184,519.67 184,561.394 184,585.607 " fill="none" id="c3-type1" style="stroke:#FF0000;stroke-width:1.0;"/></g><!--link agent to c4--><g id="link_agent_c4"><path d="M283,395.236 C283,419.424 283,461.287 283,480.426 " fill="none" id="agent-c4" style="stroke:#0000FF;stroke-width:1.0;"/></g><!--link c4 to name1--><g id="link_c4_name1"><path d="M283,500.572 C283,519.67 283,561.394 283,585.607 " fill="none" id="c4-name1" style="stroke:#0000FF;stroke-width:1.0;"/></g><!--link c4 to contact--><g id="link_c4_contact"><path d="M293.078,491 C303.573,491 318.5,491 318.5,491 C318.5,491 318.5,604 318.5,604 C318.5,604 332.599,604 347.91,604 " fill="none" id="c4-contact" style="stroke:#0000FF;stroke-width:1.0;"/></g><!--link contact to c5--><g id="link_contact_c5"><path d="M386,622.115 C386,647.959 386,694.538 386,714.953 " fill="none" id="contact-c5" style="stroke:#FF0000;stroke-width:1.0;"/></g><!--link c5 to type2--><g id="link_c5_type2"><path d="M386,735.41 C386,758.812 386,815.826 386,845.2556 " fill="none" id="c5-type2" style="stroke:#FF0000;stroke-width:1.0;"/></g><!--link c1 to system--><g id="link_c1_system"><path d="M549,123.095 C549,137.632 549,164.697 549,182.783 " fill="none" id="c1-system" style="stroke:#0000FF;stroke-width:1.0;"/></g><!--link system to c6--><g id="link_system_c6"><path d="M549,219.234 C549,237.357 549,264.486 549,278.996 " fill="none" id="system-c6" style="stroke:#0000FF;stroke-width:1.0;"/></g><!--link c6 to systemType--><g id="link_c6_systemType"><path d="M538.811,289 C509.913,289 429.5,289 429.5,289 C429.5,289 429.5,332.991 429.5,358.766 " fill="none" id="c6-systemType" style="stroke:#0000FF;stroke-width:1.0;"/></g><!--link c6 to name2--><g id="link_c6_name2"><path d="M546.5,299.095 C546.5,313.632 546.5,340.697 546.5,358.783 " fill="none" id="c6-name2" style="stroke:#0000FF;stroke-width:1.0;"/></g><!--link c6 to version--><g id="link_c6_version"><path d="M559.25,293 C579.994,293 625,293 625,293 C625,293 625,334.068 625,358.773 " fill="none" id="c6-version" style="stroke:#0000FF;stroke-width:1.0;"/></g><!--link c6 to history--><g id="link_c6_history"><path d="M559.482,286 C595.022,286 708.75,286 708.75,286 C708.75,286 708.75,331.994 708.75,358.585 " fill="none" id="c6-history" style="stroke:#0000FF;stroke-width:1.0;"/></g><!--link c1 to comments--><g id="link_c1_comments"><path d="M559.07,113 C602.304,113 770,113 770,113 C770,113 770,156.991 770,182.766 " fill="none" id="c1-comments" style="stroke:#0000FF;stroke-width:1.0;"/></g><!--link comments to c7--><g id="link_comments_c7"><path d="M814.25,219.234 C814.25,237.357 814.25,264.486 814.25,278.996 " fill="none" id="comments-c7" style="stroke:#0000FF;stroke-width:1.0;"/></g><!--link c7 to comment--><g id="link_c7_comment"><path d="M820,299.095 C820,313.632 820,340.697 820,358.783 " fill="none" id="c7-comment" style="stroke:#0000FF;stroke-width:1.0;"/></g><!--SRC=[XLFBRiCW4Bpp5QYvHOhKE8zAxR5IZptrLlL0pDf6iS42d3P_tmNi-4cI7BBPcNt03EOiPCqqgsWf9DXh3LHfMoX2DAIMoRm4-eHVPcYwfIj7UZsL3RmjuCa3VDVY6lWIl7zGVhXVVdnG_ZB21uHKIGj_DbBESf3Mt0DZSxKgOUrdkoYolBlnTM2vS1kXILQ19xaWfeCx24kZ-uHHWs79yZ1pDHQgM9U0VeLUlbMVYTMCje-vv0BQ22KZQ26CLVeQFNbLtP6fXSS6w6JVVA-UyPDbFnkqEEQterJGdxGs694JWfQVSGFLvRFC8Owv8sZ-OSOvOfhp-lVL_PmzmRSnp7WJJ9Ej-gHpmMY10y7dCnsMp0uRf2Ij0qRTZmHVs9phP9yYNkLfifLtccvrdMtIAKfkqexG5uBlUO5FY5GMw4bPgoggid3HbA8NbERl6XXEm_ySIe4ROLHhnPlKX-fN-b-cqm9H0f9JrsxMD2X5gP1SN0HlMEd_62jiOzqXQNUJqHQ3swFqKp5ztknkqRwBw06Z3vOlTzCYBsotJ-8Mvro3CHX1nOHRoa89TQ6acrAfaoZxK_q3]--></g></svg>