<svg xmlns="http://www.w3.org/2000/svg" xmlns:xlink="http://www.w3.org/1999/xlink" contentStyleType="text/css" data-diagram-type="DESCRIPTION" height="701px" preserveAspectRatio="none" style="width:549px;height:701px;background:#FFFFFF;" version="1.1" viewBox="0 0 549 701" width="549px" zoomAndPan="magnify"><defs/><g><!--cluster files--><g class="cluster" data-entity="files" data-source-line="10" data-uid="ent0002" id="cluster_files"><path d="M8.5,6 L43.0166,6 A3.75,3.75 0 0 1 45.5166,8.5 L52.5166,28.2969 L109.5,28.2969 A2.5,2.5 0 0 1 112,30.7969 L112,306.39 A2.5,2.5 0 0 1 109.5,308.89 L8.5,308.89 A2.5,2.5 0 0 1 6,306.39 L6,8.5 A2.5,2.5 0 0 1 8.5,6" fill="none" style="stroke:none;stroke-width:1.5;"/><line style="stroke:none;stroke-width:1.5;" x1="6" x2="52.5166" y1="28.2969" y2="28.2969"/></g><!--cluster definitions--><g class="cluster" data-entity="definitions" data-source-line="15" data-uid="ent0005" id="cluster_definitions"><path d="M138.5,109.3 L224.0811,109.3 A3.75,3.75 0 0 1 226.5811,111.8 L233.5811,131.5969 L307.5,131.5969 A2.5,2.5 0 0 1 310,134.0969 L310,691.58 A2.5,2.5 0 0 1 307.5,694.08 L138.5,694.08 A2.5,2.5 0 0 1 136,691.58 L136,111.8 A2.5,2.5 0 0 1 138.5,109.3" fill="none" style="stroke:none;stroke-width:1.5;"/><line style="stroke:none;stroke-width:1.5;" x1="136" x2="233.5811" y1="131.5969" y2="131.5969"/></g><!--cluster types--><g class="cluster" data-entity="types" data-source-line="24" data-uid="ent0012" id="cluster_types"><path d="M336.5,109.3 L381.168,109.3 A3.75,3.75 0 0 1 383.668,111.8 L390.668,131.5969 L539.5,131.5969 A2.5,2.5 0 0 1 542,134.0969 L542,691.58 A2.5,2.5 0 0 1 539.5,694.08 L336.5,694.08 A2.5,2.5 0 0 1 334,691.58 L334,111.8 A2.5,2.5 0 0 1 336.5,109.3" fill="none" style="stroke:none;stroke-width:1.5;"/><line style="stroke:none;stroke-width:1.5;" x1="334" x2="390.668" y1="131.5969" y2="131.5969"/></g><!--entity flatFiles--><g class="entity" data-entity="flatFiles" data-source-line="11" data-uid="ent0003" id="entity_flatFiles"><rect fill="#F1F1F1" height="36.2969" rx="2.5" ry="2.5" style="stroke:#181818;stroke-width:0.5;" width="74.626" x="21.69" y="57"/><text fill="#000000" font-family="sans-serif" font-size="14" lengthAdjust="spacing" textLength="54.626" x="31.69" y="79.9951">flatFiles</text></g><!--entity flatFile--><g class="entity" data-entity="flatFile" data-source-line="12" data-uid="ent0004" id="entity_flatFile"><rect fill="#F1F1F1" height="36.2969" rx="2.5" ry="2.5" style="stroke:#181818;stroke-width:0.5;" width="67.332" x="27.33" y="256.6"/><text fill="#000000" font-family="sans-serif" font-size="14" lengthAdjust="spacing" textLength="47.332" x="37.33" y="279.5951">flatFile</text></g><!--entity flatFileDefinitions--><g class="entity" data-entity="flatFileDefinitions" data-source-line="16" data-uid="ent0006" id="entity_flatFileDefinitions"><rect fill="#F1F1F1" height="36.2969" rx="2.5" ry="2.5" style="stroke:#181818;stroke-width:0.5;" width="142.418" x="151.79" y="160.3"/><text fill="#000000" font-family="sans-serif" font-size="14" lengthAdjust="spacing" textLength="122.418" x="161.79" y="183.2951">flatFileDefinitions</text></g><!--entity flatFileDefinition--><g class="entity" data-entity="flatFileDefinition" data-source-line="17" data-uid="ent0007" id="entity_flatFileDefinition"><rect fill="#F1F1F1" height="36.2969" rx="2.5" ry="2.5" style="stroke:#181818;stroke-width:0.5;" width="135.124" x="155.44" y="256.6"/><text fill="#000000" font-family="sans-serif" font-size="14" lengthAdjust="spacing" textLength="115.124" x="165.44" y="279.5951">flatFileDefinition</text></g><!--entity recordDefinitions--><g class="entity" data-entity="recordDefinitions" data-source-line="18" data-uid="ent0008" id="entity_recordDefinitions"><rect fill="#F1F1F1" height="36.2969" rx="2.5" ry="2.5" style="stroke:#181818;stroke-width:0.5;" width="140.3604" x="153.82" y="352.89"/><text fill="#000000" font-family="sans-serif" font-size="14" lengthAdjust="spacing" textLength="120.3604" x="163.82" y="375.8851">recordDefinitions</text></g><!--entity recordDefinition--><g class="entity" data-entity="recordDefinition" data-source-line="19" data-uid="ent0009" id="entity_recordDefinition"><rect fill="#F1F1F1" height="36.2969" rx="2.5" ry="2.5" style="stroke:#181818;stroke-width:0.5;" width="133.0664" x="160.47" y="449.19"/><text fill="#000000" font-family="sans-serif" font-size="14" lengthAdjust="spacing" textLength="113.0664" x="170.47" y="472.1851">recordDefinition</text></g><!--entity fieldDefinitions--><g class="entity" data-entity="fieldDefinitions" data-source-line="20" data-uid="ent0010" id="entity_fieldDefinitions"><rect fill="#F1F1F1" height="36.2969" rx="2.5" ry="2.5" style="stroke:#181818;stroke-width:0.5;" width="125.2939" x="166.35" y="545.49"/><text fill="#000000" font-family="sans-serif" font-size="14" lengthAdjust="spacing" textLength="105.2939" x="176.35" y="568.4851">fieldDefinitions</text></g><!--entity fieldDefinition--><g class="entity" data-entity="fieldDefinition" data-source-line="21" data-uid="ent0011" id="entity_fieldDefinition"><rect fill="#F1F1F1" height="36.2969" rx="2.5" ry="2.5" style="stroke:#181818;stroke-width:0.5;" width="118" x="174" y="641.78"/><text fill="#000000" font-family="sans-serif" font-size="14" lengthAdjust="spacing" textLength="98" x="184" y="664.7751">fieldDefinition</text></g><!--entity structureTypes--><g class="entity" data-entity="structureTypes" data-source-line="25" data-uid="ent0013" id="entity_structureTypes"><rect fill="#F1F1F1" height="36.2969" rx="2.5" ry="2.5" style="stroke:#181818;stroke-width:0.5;" width="125.4717" x="375.26" y="160.3"/><text fill="#000000" font-family="sans-serif" font-size="14" lengthAdjust="spacing" textLength="105.4717" x="385.26" y="183.2951">structureTypes</text></g><!--entity flatFileType--><g class="entity" data-entity="flatFileType" data-source-line="26" data-uid="ent0014" id="entity_flatFileType"><rect fill="#F1F1F1" height="36.2969" rx="2.5" ry="2.5" style="stroke:#181818;stroke-width:0.5;" width="101.6689" x="350.17" y="256.6"/><text fill="#000000" font-family="sans-serif" font-size="14" lengthAdjust="spacing" textLength="81.6689" x="360.17" y="279.5951">flatFileType</text></g><!--entity recordType--><g class="entity" data-entity="recordType" data-source-line="27" data-uid="ent0015" id="entity_recordType"><rect fill="#F1F1F1" height="36.2969" rx="2.5" ry="2.5" style="stroke:#181818;stroke-width:0.5;" width="99.6113" x="351.19" y="449.19"/><text fill="#000000" font-family="sans-serif" font-size="14" lengthAdjust="spacing" textLength="79.6113" x="361.19" y="472.1851">recordType</text></g><!--entity fieldType--><g class="entity" data-entity="fieldType" data-source-line="28" data-uid="ent0016" id="entity_fieldType"><rect fill="#F1F1F1" height="36.2969" rx="2.5" ry="2.5" style="stroke:#181818;stroke-width:0.5;" width="84.5449" x="358.73" y="641.78"/><text fill="#000000" font-family="sans-serif" font-size="14" lengthAdjust="spacing" textLength="64.5449" x="368.73" y="664.7751">fieldType</text></g><!--link flatFiles to flatFile--><g class="link" data-entity-1="flatFiles" data-entity-2="flatFile" data-source-line="32" data-uid="lnk17" id="link_flatFiles_flatFile"><path d="M49.78,93.57 C49.78,131.59 49.78,218.38 49.78,256.37" fill="none" id="flatFiles-flatFile" style="stroke:#181818;stroke-width:1;"/></g><!--link flatFiles to flatFileDefinitions--><g class="link" data-entity-1="flatFiles" data-entity-2="flatFileDefinitions" data-source-line="33" data-uid="lnk18" id="link_flatFiles_flatFileDefinitions"><path d="M72.22,93.73 C72.22,123.62 72.22,179.08 72.22,179.08 C72.22,179.08 112.61,179.08 151.58,179.08" fill="none" id="flatFiles-flatFileDefinitions" style="stroke:#181818;stroke-width:1;"/></g><!--link flatFile to flatFileDefinition--><g class="link" data-entity-1="flatFile" data-entity-2="flatFileDefinition" data-source-line="34" data-uid="lnk19" id="link_flatFile_flatFileDefinition"><path d="M94.96,275.08 C112.4,275.08 134.3,275.08 155.03,275.08" fill="none" id="flatFile-flatFileDefinition" style="stroke:#181818;stroke-width:1;stroke-dasharray:7.0,7.0;"/></g><!--link flatFileDefinitions to flatFileDefinition--><g class="link" data-entity-1="flatFileDefinitions" data-entity-2="flatFileDefinition" data-source-line="36" data-uid="lnk20" id="link_flatFileDefinitions_flatFileDefinition"><path d="M223,197.01 C223,214.07 223,239.2 223,256.23" fill="none" id="flatFileDefinitions-flatFileDefinition" style="stroke:#181818;stroke-width:1;"/></g><!--link flatFileDefinition to recordDefinitions--><g class="link" data-entity-1="flatFileDefinition" data-entity-2="recordDefinitions" data-source-line="37" data-uid="lnk21" id="link_flatFileDefinition_recordDefinitions"><path d="M223,293.31 C223,310.36 223,335.5 223,352.53" fill="none" id="flatFileDefinition-recordDefinitions" style="stroke:#181818;stroke-width:1;"/></g><!--link recordDefinitions to recordDefinition--><g class="link" data-entity-1="recordDefinitions" data-entity-2="recordDefinition" data-source-line="38" data-uid="lnk22" id="link_recordDefinitions_recordDefinition"><path d="M227,389.61 C227,406.66 227,431.79 227,448.83" fill="none" id="recordDefinitions-recordDefinition" style="stroke:#181818;stroke-width:1;"/></g><!--link recordDefinition to fieldDefinitions--><g class="link" data-entity-1="recordDefinition" data-entity-2="fieldDefinitions" data-source-line="39" data-uid="lnk23" id="link_recordDefinition_fieldDefinitions"><path d="M229,485.9 C229,502.96 229,528.09 229,545.12" fill="none" id="recordDefinition-fieldDefinitions" style="stroke:#181818;stroke-width:1;"/></g><!--link fieldDefinitions to fieldDefinition--><g class="link" data-entity-1="fieldDefinitions" data-entity-2="fieldDefinition" data-source-line="40" data-uid="lnk24" id="link_fieldDefinitions_fieldDefinition"><path d="M232.82,582.2 C232.82,599.25 232.82,624.39 232.82,641.42" fill="none" id="fieldDefinitions-fieldDefinition" style="stroke:#181818;stroke-width:1;"/></g><!--link flatFileDefinition to flatFileType--><g class="link" data-entity-1="flatFileDefinition" data-entity-2="flatFileType" data-source-line="42" data-uid="lnk25" id="link_flatFileDefinition_flatFileType"><path d="M291.06,275.08 C310.59,275.08 331.54,275.08 349.87,275.08" fill="none" id="flatFileDefinition-flatFileType" style="stroke:#181818;stroke-width:1;stroke-dasharray:7.0,7.0;"/></g><!--link recordDefinition to recordType--><g class="link" data-entity-1="recordDefinition" data-entity-2="recordType" data-source-line="43" data-uid="lnk26" id="link_recordDefinition_recordType"><path d="M293.78,468.08 C312.75,468.08 333.09,468.08 350.89,468.08" fill="none" id="recordDefinition-recordType" style="stroke:#181818;stroke-width:1;stroke-dasharray:7.0,7.0;"/></g><!--link fieldDefinition to fieldType--><g class="link" data-entity-1="fieldDefinition" data-entity-2="fieldType" data-source-line="44" data-uid="lnk27" id="link_fieldDefinition_fieldType"><path d="M292.23,660.08 C314.05,660.08 338.32,660.08 358.39,660.08" fill="none" id="fieldDefinition-fieldType" style="stroke:#181818;stroke-width:1;stroke-dasharray:7.0,7.0;"/></g><!--link structureTypes to flatFileType--><g class="link" data-entity-1="structureTypes" data-entity-2="flatFileType" data-source-line="46" data-uid="lnk28" id="link_structureTypes_flatFileType"><path d="M413.55,197.01 C413.55,214.07 413.55,239.2 413.55,256.23" fill="none" id="structureTypes-flatFileType" style="stroke:#181818;stroke-width:1;"/></g><!--link flatFileType to recordType--><!--link recordType to fieldType--><!--link structureTypes to recordType--><g class="link" data-entity-1="structureTypes" data-entity-2="recordType" data-source-line="49" data-uid="lnk31" id="link_structureTypes_recordType"><path d="M468.13,197.01 C468.13,260.93 468.13,468.08 468.13,468.08 C468.13,468.08 460.91,468.08 451.19,468.08" fill="none" id="structureTypes-recordType" style="stroke:#181818;stroke-width:1;"/></g><!--link structureTypes to fieldType--><g class="link" data-entity-1="structureTypes" data-entity-2="fieldType" data-source-line="50" data-uid="lnk32" id="link_structureTypes_fieldType"><path d="M484.44,197.03 C484.44,285.55 484.44,660.08 484.44,660.08 C484.44,660.08 464.22,660.08 443.7,660.08" fill="none" id="structureTypes-fieldType" style="stroke:#181818;stroke-width:1;"/></g><!--link flatFiles to structureTypes--><g class="link" data-entity-1="flatFiles" data-entity-2="structureTypes" data-source-line="52" data-uid="lnk33" id="link_flatFiles_structureTypes"><path d="M96.73,76.08 C192.59,76.08 438,76.08 438,76.08 C438,76.08 438,130.7 438,160.15" fill="none" id="flatFiles-structureTypes" style="stroke:#181818;stroke-width:1;"/></g><!--SRC=[XL4nRiCm3Dpr2dv0UK6GfKMcZjcA3gfDEq9KAQ3e8IZwzqf6OaioqsxItP4y7kF5-giXymNEUkJR5I4GduDISM6kfhkO4VVxDtCB4nyEyAq0FWFrI2_11O8J6H-J63rd9kb72fFl9NO8dYKyCXA6xE0eAdwKkXk1mJgCKFaXxDZuqINI6JvcWO2LJNeShBTiW_-trUig_PCjoFHA-SY5BLVsjEYUL3LKkKeExUaIaMdgU28yPPNWF-CRTmqu3v-nD5Oj4OFMUWstXCNi7XZifF2KK29t4fHPA6PU8v9ievg7jeTe0K4aRL2i-eYqdhKh0syQvk8bU5KViamc0w2gdzRlPzltw3zqSz7xinIiGxOpYcB1mEgkEdwj_0K0]--></g></svg>